<?xml version="1.0" encoding="UTF-8"?>
<svg id="Layer_1" xmlns="http://www.w3.org/2000/svg" xmlns:xlink="http://www.w3.org/1999/xlink" viewBox="0 0 841.53 231.57">
  <defs>
    <style>
      .cls-1 {
        fill: url(#linear-gradient-15);
      }

      .cls-2 {
        fill: url(#linear-gradient-13);
      }

      .cls-3 {
        fill: url(#linear-gradient-28);
      }

      .cls-4 {
        fill: url(#linear-gradient-2);
      }

      .cls-5 {
        fill: url(#linear-gradient-25);
      }

      .cls-6 {
        fill: url(#linear-gradient-10);
      }

      .cls-7 {
        fill: url(#linear-gradient-12);
      }

      .cls-8 {
        fill: url(#linear-gradient-40);
      }

      .cls-9 {
        fill: url(#linear-gradient-27);
      }

      .cls-10 {
        fill: url(#linear-gradient-37);
      }

      .cls-11 {
        fill: url(#linear-gradient-39);
      }

      .cls-12 {
        fill: url(#linear-gradient-26);
      }

      .cls-13 {
        fill: url(#linear-gradient-4);
      }

      .cls-14 {
        fill: url(#linear-gradient-35);
      }

      .cls-15 {
        fill: url(#linear-gradient-30);
      }

      .cls-16 {
        fill: url(#linear-gradient-3);
      }

      .cls-17 {
        fill: url(#linear-gradient-34);
      }

      .cls-18 {
        fill: url(#linear-gradient-5);
      }

      .cls-19 {
        fill: url(#linear-gradient-38);
      }

      .cls-20 {
        fill: url(#linear-gradient-22);
      }

      .cls-21 {
        fill: url(#linear-gradient-24);
      }

      .cls-22 {
        fill: url(#linear-gradient-33);
      }

      .cls-23 {
        fill: url(#linear-gradient-8);
      }

      .cls-24 {
        fill: url(#linear-gradient-14);
      }

      .cls-25 {
        fill: url(#linear-gradient-29);
      }

      .cls-26 {
        fill: url(#linear-gradient-20);
      }

      .cls-27 {
        fill: url(#linear-gradient-17);
      }

      .cls-28 {
        fill: url(#linear-gradient-7);
      }

      .cls-29 {
        fill: url(#linear-gradient-9);
      }

      .cls-30 {
        fill: url(#linear-gradient-11);
      }

      .cls-31 {
        fill: url(#linear-gradient-19);
      }

      .cls-32 {
        fill: url(#linear-gradient-6);
      }

      .cls-33 {
        fill: url(#linear-gradient-36);
      }

      .cls-34 {
        fill: url(#linear-gradient-21);
      }

      .cls-35 {
        fill: url(#linear-gradient-32);
      }

      .cls-36 {
        fill: url(#linear-gradient-41);
      }

      .cls-37 {
        fill: url(#linear-gradient-16);
      }

      .cls-38 {
        fill: url(#linear-gradient);
      }

      .cls-39 {
        fill: url(#linear-gradient-23);
      }

      .cls-40 {
        fill: url(#linear-gradient-31);
      }

      .cls-41 {
        fill: url(#linear-gradient-18);
      }
    </style>
    <linearGradient id="linear-gradient" x1="639.92" y1="-224.21" x2="639.92" y2="380.39" gradientUnits="userSpaceOnUse">
      <stop offset="0" stop-color="#bf9b30"/>
      <stop offset=".03" stop-color="#c6a63c"/>
      <stop offset=".09" stop-color="#dbc45e"/>
      <stop offset=".16" stop-color="#fbf391"/>
      <stop offset=".36" stop-color="#ffdc73"/>
      <stop offset=".53" stop-color="#ffdc38"/>
      <stop offset=".7" stop-color="#bf9b30"/>
      <stop offset=".85" stop-color="#966528"/>
      <stop offset="1" stop-color="#844d24"/>
    </linearGradient>
    <linearGradient id="linear-gradient-2" x1="589.83" y1="-224.21" x2="589.83" y2="380.39" gradientUnits="userSpaceOnUse">
      <stop offset=".01" stop-color="#bf9b30"/>
      <stop offset=".04" stop-color="#c6a63c"/>
      <stop offset=".09" stop-color="#dbc45e"/>
      <stop offset=".16" stop-color="#fbf391"/>
      <stop offset=".36" stop-color="#ffdc73"/>
      <stop offset=".53" stop-color="#ffdc38"/>
      <stop offset=".7" stop-color="#bf9b30"/>
      <stop offset=".85" stop-color="#966528"/>
      <stop offset="1" stop-color="#844d24"/>
    </linearGradient>
    <linearGradient id="linear-gradient-3" x1="589.83" y1="-224.21" x2="589.83" y2="380.39" xlink:href="#linear-gradient"/>
    <linearGradient id="linear-gradient-4" x1="506.61" y1="-224.21" x2="506.61" y2="380.39" xlink:href="#linear-gradient"/>
    <linearGradient id="linear-gradient-5" x1="355.69" y1="-224.21" x2="355.69" y2="380.39" xlink:href="#linear-gradient"/>
    <linearGradient id="linear-gradient-6" x1="447.14" y1="-224.21" x2="447.14" y2="380.39" xlink:href="#linear-gradient"/>
    <linearGradient id="linear-gradient-7" x1="441.24" y1="-224.21" x2="441.24" y2="380.39" xlink:href="#linear-gradient"/>
    <linearGradient id="linear-gradient-8" x1="183.24" y1="-224.21" x2="183.24" y2="380.39" xlink:href="#linear-gradient"/>
    <linearGradient id="linear-gradient-9" x1="213.3" y1="-224.21" x2="213.3" y2="380.39" xlink:href="#linear-gradient"/>
    <linearGradient id="linear-gradient-10" x1="491.69" y1="-224.21" x2="491.69" y2="380.39" xlink:href="#linear-gradient"/>
    <linearGradient id="linear-gradient-11" x1="458.69" y1="-224.21" x2="458.69" y2="380.39" xlink:href="#linear-gradient"/>
    <linearGradient id="linear-gradient-12" x1="247.33" y1="-224.21" x2="247.33" y2="380.39" xlink:href="#linear-gradient"/>
    <linearGradient id="linear-gradient-13" x1="169.23" y1="-224.21" x2="169.23" y2="380.39" xlink:href="#linear-gradient"/>
    <linearGradient id="linear-gradient-14" x1="555.76" y1="-224.21" x2="555.76" y2="380.39" xlink:href="#linear-gradient"/>
    <linearGradient id="linear-gradient-15" x1="262.43" y1="-224.21" x2="262.43" y2="380.39" xlink:href="#linear-gradient"/>
    <linearGradient id="linear-gradient-16" x1="360.88" y1="-224.21" x2="360.88" y2="380.39" xlink:href="#linear-gradient"/>
    <linearGradient id="linear-gradient-17" x1="692.41" y1="-224.21" x2="692.41" y2="380.39" xlink:href="#linear-gradient"/>
    <linearGradient id="linear-gradient-18" x1="603.65" y1="-224.21" x2="603.65" y2="380.39" xlink:href="#linear-gradient"/>
    <linearGradient id="linear-gradient-19" x1="159.26" y1="-224.21" x2="159.26" y2="380.39" xlink:href="#linear-gradient"/>
    <linearGradient id="linear-gradient-20" x1="631.84" y1="-224.21" x2="631.84" y2="380.39" xlink:href="#linear-gradient"/>
    <linearGradient id="linear-gradient-21" x1="501.11" y1="-224.21" x2="501.11" y2="380.39" xlink:href="#linear-gradient"/>
    <linearGradient id="linear-gradient-22" x1="669.93" y1="-224.21" x2="669.93" y2="380.39" xlink:href="#linear-gradient"/>
    <linearGradient id="linear-gradient-23" x1="404.87" y1="-224.21" x2="404.87" y2="380.39" xlink:href="#linear-gradient"/>
    <linearGradient id="linear-gradient-24" x1="485.29" y1="-224.21" x2="485.29" y2="380.39" xlink:href="#linear-gradient"/>
    <linearGradient id="linear-gradient-25" x1="133.5" y1="-224.21" x2="133.5" y2="380.39" xlink:href="#linear-gradient"/>
    <linearGradient id="linear-gradient-26" x1="195.15" y1="-224.21" x2="195.15" y2="380.39" xlink:href="#linear-gradient"/>
    <linearGradient id="linear-gradient-27" x1="295.59" y1="-224.21" x2="295.59" y2="380.39" xlink:href="#linear-gradient"/>
    <linearGradient id="linear-gradient-28" x1="324.81" y1="-224.21" x2="324.81" y2="380.39" xlink:href="#linear-gradient"/>
    <linearGradient id="linear-gradient-29" x1="482.98" y1="-224.21" x2="482.98" y2="380.39" xlink:href="#linear-gradient"/>
    <linearGradient id="linear-gradient-30" x1="435.56" y1="-224.21" x2="435.56" y2="380.39" xlink:href="#linear-gradient"/>
    <linearGradient id="linear-gradient-31" x1="227.81" y1="-224.21" x2="227.81" y2="380.39" xlink:href="#linear-gradient"/>
    <linearGradient id="linear-gradient-32" x1="117.13" y1="-224.21" x2="117.13" y2="380.39" xlink:href="#linear-gradient"/>
    <linearGradient id="linear-gradient-33" x1="133.5" y1="-224.21" x2="133.5" y2="380.39" xlink:href="#linear-gradient"/>
    <linearGradient id="linear-gradient-34" x1="355.69" y1="-224.21" x2="355.69" y2="380.39" xlink:href="#linear-gradient"/>
    <linearGradient id="linear-gradient-35" x1="355.69" y1="-224.21" x2="355.69" y2="380.39" xlink:href="#linear-gradient"/>
    <linearGradient id="linear-gradient-36" x1="455.41" y1="-224.21" x2="455.41" y2="380.39" xlink:href="#linear-gradient"/>
    <linearGradient id="linear-gradient-37" x1="455.41" y1="-224.21" x2="455.41" y2="380.39" xlink:href="#linear-gradient"/>
    <linearGradient id="linear-gradient-38" x1="401.63" y1="-224.21" x2="401.63" y2="380.39" xlink:href="#linear-gradient"/>
    <linearGradient id="linear-gradient-39" x1="600.62" y1="-224.21" x2="600.62" y2="380.39" xlink:href="#linear-gradient"/>
    <linearGradient id="linear-gradient-40" x1="255.25" y1="-224.21" x2="255.25" y2="380.39" xlink:href="#linear-gradient"/>
    <linearGradient id="linear-gradient-41" x1="300.62" y1="-224.21" x2="300.62" y2="380.39" xlink:href="#linear-gradient"/>
  </defs>
  <g id="_على" data-name="على">
    <path class="cls-38" d="M720.24,153.72l-.02.1c-1.35,5.25-5.83,10.12-13.34,14.54-2.62,1.55-5.61,3.05-8.96,4.48-12.85,5.5-23.57,7.77-31.84,6.71l-.77-.14c-4.64-.48-8.44-2.22-11.3-5.15-2.42-1.89-4.29-5.52-5.61-11.01-1.45,4.57-3.68,8.2-6.65,10.82-2.57,1.69-4.28,2.71-5.4,3.32,9.46,2.15,14.84,3.49,16.41,4.11,2.97,1.82,4.38,3.77,4.38,5.83.43,4.75-.75,9.32-3.51,13.67-3.68,5.85-10.19,11.28-19.5,16.29-16.04,8.62-30.32,13.43-42.49,14.27h-3.17c-12.27,0-20.84-5.57-25.48-16.58-1.79-3.2-2.91-8.9-3.36-17.3-.44-8.28,2.22-18.9,7.93-31.55,1.64-3.48,2.18-3.9,2.66-4.06l.51-.05c.89,0,1.33.9,1.48,1.19l.17.36-.15.38c-5.04,11.38-7.6,20.86-7.6,28.17,0,12.12,3.82,20.5,11.32,24.92,6.43,3.68,14.91,4.04,25.22,1.06,10.5-3.05,23.03-8.27,37.24-15.48,1.07-.51,2.11-1.04,3.1-1.62,3.82-2.11,7.06-4.58,9.68-7.35-1.98-2.13-6-3.66-12.02-4.52-6.68-.97-13.28-2.76-19.63-5.33-2.39-1.28-2.97-1.89-3.14-2.45l-.07-.24.07-.22c2.32-9.03,2.9-9.03,3.7-9.03,7.33-1.4,12.82-2.91,16.17-4.47,6.27-3.34,9.34-9.32,9.34-18.29,0-7.53-1.67-27.29-4.98-58.82-.7-6.75-1.48-14.04-2.33-21.87l-.02-.17,5.27-17.16.63,3.43c2.25,12.27,4.06,24.22,5.42,35.77,1.53,12.95,2.49,25.43,2.86,37.31.92,28.97,3.61,34.51,5.15,35.23l.17.09.14.17c1.84,2.35,4.29,3.95,7.29,4.74-4.94-11.52-7-20.49-6.08-26.66.97-6.54,4.36-11.98,10.11-16.14,5.74-4.18,13.02-5.59,21.64-4.21,6.61,1.07,11.96,3.75,15.99,8.01,1.26,1.31,2.37,2.76,3.36,4.38l.12.2v1.57h-1.45l-.26-.27c-.49-.53-1.07-1.01-1.77-1.47-3.08-1.98-8.1-3.27-14.96-3.83-8.32-.68-17.55,3.27-27.47,11.78.77,6.73,3.24,12.66,7.38,17.62,4.19,5.04,8.95,7.19,14.55,6.56,5.73-.65,12.02-2.62,18.71-5.88.61-.31,1.21-.6,1.79-.87,5.66-2.78,9.05-4.62,10.14-5.45,1.53-1.19,2.13-1.43,2.69-1.16l.48.24.05,1.47Z"/>
    <g>
      <path class="cls-4" d="M589.63,184.69c-.3-.29-.67-.44-1.08-.44-.33,0-.81.12-1.25.68l-5.34,6.59c-.31.39-.47.78-.47,1.18,0,.3.09.74.61,1.25l7.97,6.52c.36.36.73.53,1.12.53.54,0,1.01-.29,1.31-.81l5.3-6.61c.25-.33.38-.71.38-1.09,0-.3-.09-.75-.6-1.25l-7.94-6.56Z"/>
      <path class="cls-16" d="M589.63,200.46c-.3-.29-.67-.44-1.08-.44-.33,0-.81.12-1.25.68l-5.34,6.59c-.31.39-.47.78-.47,1.18,0,.3.09.74.61,1.25l7.97,6.52c.36.36.73.53,1.12.53.54,0,1.01-.29,1.31-.81l5.3-6.61c.25-.33.38-.71.38-1.09,0-.3-.09-.75-.6-1.25l-7.94-6.56Z"/>
    </g>
  </g>
  <path id="_محمد" data-name="محمد" class="cls-13" d="M584.6,162.75c-20.89.21-46.15-.28-75.11-1.47,7.81-4.87,17.79-9.88,29.73-14.92,3.83,3.78,5.3,4.16,6.29,3.52,1.06-.68,1.04-2.28-.11-5.62,11.19-3.4,13.64-3.93,14.12-3.93,2.6-.06,4.52-3.89,6.26-12.61v-.65l-.26-.27c-14.75-15.31-24.37-20.78-29.4-16.74-4.75,3.81-7.14,8.64-7.12,14.34.02,5,1.12,8.87,3.27,11.54-14.74,6.85-26.58,13.9-35.21,20.98l-.2.16-5.14,13.64c-1.44-5.01-3.09-10.89-4.94-17.65-4.75-17.35-11.18-34.33-19.12-50.48l-1.1-2.24-4.42,15.99.14.31c12.76,29.04,18.94,47.13,18.38,53.76-.46,4.27-6.14,12.82-16.87,25.41-10.7,12.55-18.97,19.29-24.59,20.03-1.45.19-2.64-.14-3.6-1.03-2.57-2.35-3.68-8.44-3.29-18.03.61-6.24,1.64-12,3.04-17.13,1.47-5.4,1.31-6.53.39-7.03-.93-.5-1.77.44-2.05.76-1.01,1.13-2.62,4.25-4.96,18.16-1.72,10.22-2.1,19.01-1.14,26.11,1,7.4,4.1,12,9.21,13.67.56.18,1.16.27,1.8.27,5.34,0,13.61-6.3,25.18-19.13,11.24-12.47,18.38-24.62,21.27-36.18,1.79,7.74,3.1,13.23,3.89,16.35.95,3.73,3,8.37,6.09,13.8,3.15,5.52,8.56,10.14,16.08,13.71,7.52,3.58,15.33,4.75,23.06,3.49.83,0,1.78,0,5.75-10.27l.4-1.03-1.08-.24c-5.47-1.19-11.04-2.5-16.56-3.89-5.13-1.29-7.64-3.51-7.7-6.96l-.05-.15c0-.33.33-1.56,4.63-3.61,3.4-1.62,15.54-5.69,36.11-12.09l22.95-7.85,7.55-14.8-1.56.02ZM535.65,125.32c.54-.19,1.71-.46,4.21-.62,3.13-.23,7.16,1.42,12.02,4.86-3.82,1.41-7.31,2.57-10.41,3.45-1.05-1.66-2.96-4.19-5.82-7.68ZM495.68,174.23c10.26.49,27.52.83,51.36,1.02-5.21,1.56-10.68,3.26-16.32,5.06-8.03,2.57-14.04,5.73-17.86,9.42l-.16.15-.07.2c-1.67,4.5-2.94,8.83-3.8,12.88-.74-.21-1.83-.78-3.44-2.11-1.93-1.6-3.52-3.3-4.73-5.04-1.21-1.74-2.46-4.51-3.72-8.24-1.03-2.88-2.43-7.32-4.19-13.28l2.92-.05Z"/>
  <g id="_أحمد" data-name="أحمد">
    <path class="cls-18" d="M374.91,143.69c-16.47-.84-25.39,1.58-27.27,7.39h0c-1.09,3.52-1.83,8.3-2.2,14.29,0,4.28,5.27,10.35,16.09,18.54-1.17.6-2.22,1.21-3.15,1.83-1.31.86-2.16,1.47-2.6,1.87l-.18.16-.08.22c-1.51,4.07-2.69,7.99-3.54,11.69-1.58-2.51-2.78-5.32-3.59-8.38-1.64-5.83-4.29-17.76-7.85-35.49-3.59-17.81-8.88-35.35-15.73-52.15l-.95-2.32-5.6,15.74.11.32c10.84,30.16,15.83,48.84,14.83,55.48-.77,4.27-7.09,12.48-18.78,24.39-11.66,11.88-20.47,18.09-26.19,18.45-1.49.1-2.65-.33-3.57-1.28-2.43-2.54-3.12-8.74-2.06-18.36,1.06-6.24,2.5-11.99,4.27-17.07,1.86-5.34,1.77-6.49.88-7.06-.9-.57-1.81.32-2.11.61-1.1,1.06-2.94,4.08-6.25,17.96-2.43,10.18-3.43,19-2.95,26.22.5,7.51,3.3,12.36,8.33,14.41.69.28,1.46.42,2.31.42,5.42,0,14.04-5.78,26.2-17.54,12.22-11.82,20.26-23.6,23.95-35.07,1.68,8.9,4.25,17.82,7.67,26.59,4.08,10.46,13.27,16.26,27.34,17.23l.64.04,5.95-12.29-1.08-.32c-17.21-5.09-19.81-8.95-19.83-10.82-.02-.65.56-2.04,4.62-4.06,3.16-1.57,5.86-2.91,8.11-4.01,3.08,3.56,4.04,5.11,4.29,5.78.16.44.53,1.46,1.49,1.3,1.01-.18,1.02-1.39,1.04-2.46.02-1.61.03-4.13.03-7.56,16.03-6.11,27.19-10.21,33.18-12.19l18.36-5.84,6.02-12.64-1-.35c-23.39-8.25-43.29-12.84-59.14-13.64ZM412.84,164.08c-24.15,8.65-37.98,13.51-41.18,14.49l-4.23-3.73c-15.21-11.64-16.85-15.01-16.85-15.92,0-.02.17-2,14.55-2,9.81,0,25.85,2.41,47.71,7.17Z"/>
    <path class="cls-32" d="M454.67,68.69l4.73-8.43-2.23.81c-6.28,2.28-8.32,2.85-8.93,2.93-1.19.16-1.61.18-1.75.18-1.09,0-2.02-.4-2.88-1.26-1.07-.96-1.77-2.04-2.09-3.21.14-.25.58-.71,2.03-1.19,2.06-.69,2.7-.76,2.88-.76.76,0,1.5.22,1.73,1.79l.32,2.2,5.28-7.54-.09-.39c-.3-1.27-1.38-2.79-4.83-2.79-2.51,0-5.03.99-7.49,2.95-2.41,1.92-4.33,4.41-5.71,7.42l-.08.37c0,2.86.91,5.14,2.71,6.81-1.82,1.77-2.79,3.13-3.03,4.23-.32,1.46-.36,1.93-.36,2.17,0,1.46,1.07,1.5,1.19,1.5.23,0,.47-.07.84-.26.64-.4,1.67-.96,3.06-1.67,1.4-.71,6.24-2.65,14.4-5.76l.3-.11Z"/>
    <path class="cls-28" d="M443.2,99.89c2.46,4.11,3.11,4.12,3.86,3.79,1.13-.51,2.11-.96-8.14-28.75l-.67-1.81-5.22,9.51.03.28c6.09,55.08,9.17,87.29,9.17,95.72s-1.06,15.74-3.15,21.89c-1.4,4.11-1.5,5.15-.55,5.58.16.07.31.12.47.12.75,0,1.67-1.08,4.4-5.78,4.01-6.91,6.04-14.99,6.04-24.01s-.96-23.84-2.86-44.48c-1.39-15.1-2.52-25.82-3.39-32.04Z"/>
  </g>
  <g id="_سليم" data-name="سليم">
    <path class="cls-23" d="M189.44,208.55l-.03-.02c-.31-.23-.62-.35-.93-.35s-.74.11-1.14.62l-4.18,5.16-6.48-5.35c-.28-.28-.63-.43-1.02-.43-.3,0-.74.11-1.14.62l-4.86,6c-.28.35-.43.71-.43,1.07,0,.27.08.68.55,1.14l7.25,5.94c.78.78,1.75.56,2.21-.25l4.08-5.09,6.47,5.34c.41.4.81.49,1.08.49.32,0,.78-.13,1.15-.68l4.73-5.98c.4-.4.49-.81.49-1.08s-.08-.68-.55-1.14l-7.25-5.99Z"/>
    <path class="cls-29" d="M323.62,170.88c-2.93,4.52-7.21,6.2-12.7,5.01-4.89-1.07-7.94-4.14-9.1-9.14-4.81,5.98-10.74,9.27-17.64,9.78-7.41.55-11.88-4.14-13.31-13.92-6.03,4.86-11.56,8.28-16.41,10.17-2.03.78-4.23,1.45-6.61,1.94-8.93,1.87-14.16.66-15.78.15-.03,0-.07-.02-.09-.02-.97-.36-1.89-.75-2.78-1.21-5.13-2.44-9.12-6.41-11.88-11.83-.75,1.86-2.16,4.07-4.23,6.66-.66.84-1.43,1.6-2.3,2.32-.02,0-.02.02-.03.03-1.62,1.31-3.56,2.42-5.85,3.31-.22.1-.44.19-.66.27-1.24.44-2.56.84-3.97,1.18-.05,0-.12.02-.17.03-5.79,1.02-9.46-1.11-10.48-1.82-.2-.14-.31-.22-.31-.22-.63-.51-1.21-1.11-1.74-1.79-2.51-3.1-4.35-7.09-5.5-11.83-2.15.43-4.77,2.03-7.72,4.75-3.87,3.54-4.67,5.59-4.67,6.68,0,.84,1.01,2.81,7.7,6.56,13.6,5.57,15.83,7.62,16.23,8.88l.05.15-.02.17c-.84,9.63-1.69,10.36-2.76,10.36h-.82l-.24-.22c-3.7-3.34-7.23-5.04-10.48-5.04s-8.3,1.57-14.71,4.65c-6.44,3.1-15.46,9.66-26.79,19.51-11.73,10.19-19.86,15.13-24.88,15.13s-8.78-2.59-10.84-7.69c-1.96-4.89-2.56-10.6-1.79-16.99.77-6.39,4.19-13.86,10.16-22.17,4.62-6.46,4.75-6.37,5.56-5.85.84.56.95.65-4.24,9.24-5.86,9.68-8.5,17.62-7.86,23.6.63,5.81,2.93,8.81,7.02,9.17,2.91.24,9.87-2.39,26.38-16.46,13-11.06,23.11-18.01,30.12-20.69-2.08-2.69-3.08-6.97-3.08-13.02,0-6.68,2.35-12.07,6.99-16.02,4.57-3.89,9.44-6.02,14.49-6.31l.92-.05-.02.92c-.15,6.1.94,10.21,3.24,12.22,1.13,1.01,2.57,1.79,4.34,2.36,2.89.93,6,.64,8.75-.63,3.75-1.74,6.14-4.34,7.24-7.88,0-.02.02-.05.02-.07v-.02c.37-1.86.56-3.89.56-6.08,0-.39,0-.84-.02-1.3,0-.2-.02-.39-.02-.61,0-.26-.02-.53-.03-.8,0-.17,0-.34-.02-.51-.07-1.26-.14-2.57-.19-3.92v-.09c-.02-.41-.05-.84-.07-1.26-.65-10.26-2.2-27.1-4.64-50.33-.7-6.75-1.48-14.04-2.33-21.87l-.02-.17.82-2.69,2.56-8.32,1.89-6.15.24,1.31.39,2.11c2.25,12.27,4.06,24.22,5.42,35.77,1.53,12.95,2.49,25.43,2.86,37.31.24,7.75,1.19,13.89,2.13,18.68.09.39.15.77.24,1.12,1.62,7.79,7.18,14.2,14.73,16.65.15.05.29.1.44.15,1.16.36,2.4.51,3.61.43,10.63-.75,22.12-5.03,34.21-12.71,1.14-.72,2.35-.55,2.54-.51,0,0,.02,0,.02.02-.31.92.22,3.73.22,3.73.8,6.08,4.36,9.36,10.91,10.02,6.8.68,12.22-2.22,16.55-8.9,3.26-3.82,3.41-3.82,3.89-3.82h.24c.84,0,1.4.55,1.4,1.35l-.05.53c-1.09,2.93-1.21,3.56-1.21,3.68,0,2.81,1.43,4.72,4.36,5.83,2.93,1.11,5.45,1.38,7.52.8l-3.34-7.19,4.94-7.69h.46c1.72,0,3.05,2.2,4.45,7.35,1.28,4.69.48,9.31-2.39,13.72Z"/>
  </g>
  <path class="cls-6" d="M508.86,83.37c-.2-.97-1.3-1.08-2.11-1.27-.09-.02-.18-.04-.27-.06.83-3.66.78-6.23.62-7.65,0-.08,0-.16-.01-.25-.03-.35-.1-.7-.21-1.04h0s0,0,0,0c-.37-1.11-1.19-2.04-2.53-1.81-1.5.26-2.66,1.84-3.5,2.98-1.07,1.47-1.55,3.17-1.88,4.93-.26,1.36-.51,2.89.16,4.18.79,1.5,2.54,1.77,4.04,2.12.3.07.6.14.9.21,0,0,0,0,0,0-.28.39-.58.79-.9,1.19-1.14,1.34-2.73,3.06-4.81,4.88-2.78,2.44-5.16,3.94-7.16,5.19-2.52,1.58-5.15,2.91-7.81,4.23-5.91,2.64-8.94,3.72-8.91,3.92.04.28,7.41-.77,16.42-5.04,0,0,9.52-4.52,13.57-12.39.28-.55.53-1.18.71-1.71.28.07.6.14.71.17.68.16,1.86.25,2.04,1.1.05.24.52-1.23.55-1.36.17-.72.54-1.76.39-2.51ZM505.69,81.86c-.92-.21-1.85-.42-2.76-.65-1.02-.26-2.09-.6-2.73-1.5-.22-.31-.35-.64-.43-.99.02-.04.05-.08.07-.12.98-1.5,3.24-4.46,5.27-2.89,1.66,1.29,1.16,4.17.58,6.14Z"/>
  <path class="cls-30" d="M469.5,184.17c-.13-.61-.82-.68-1.33-.8-.06-.01-.12-.03-.17-.04.52-2.3.49-3.92.39-4.81,0-.05,0-.1,0-.15-.02-.22-.06-.44-.13-.65-.21-.63-.65-1.16-1.34-1.16-.08,0-.16,0-.25.02-.95.16-1.68,1.16-2.2,1.88-.67.92-.97,1.99-1.18,3.1-.16.86-.32,1.82.1,2.63.49.94,1.6,1.11,2.54,1.33.19.04.38.09.57.13-.18.25-.37.49-.57.75-.72.84-1.72,1.93-3.03,3.07-1.75,1.53-3.25,2.48-4.5,3.27-.35.22-.71.43-1.07.64-.5.29-1.01.56-1.52.83.03-.05.05-.1.08-.14.87-1.65,1.37-3.49,1.67-5.34.17-1.05.57-2.8-.21-3.7-.8-.92-2.55-.78-3.6-.51-2.71.71-3.96,3.12-4.43,5.69-.22,1.2-.42,2.96,1.02,3.49,1.36.5,2.58-.52,3.39-1.5.29-.34.33-1.07.41-1.5.03-.15.1-.97.03-.89-.6.73-1.35,1.43-2.35,1.53-.78.08-1.51-.25-1.87-.9h0s-.01-.03-.02-.04c-.01-.02-.02-.05-.03-.07-.18-.43.01-.85.12-1.03.02-.03.04-.06.06-.09.18-.27.38-.52.61-.75.71-.74,1.64-1.26,2.63-1.5.9-.22,2-.26,2.87.1,1.06.44,1.06,1.57.93,2.56-.18,1.29-.88,2.48-1.66,3.5-.37.48-.78,1.04-1.28,1.39-.57.41-1.15.79-1.75,1.15-.53.32-1.08.62-1.64.9-1.95.83-2.93,1.2-2.92,1.3,0,0,0,.01.02.02,0,0,0,0,0,0,0,0,0,0,0,0,.02,0,.05,0,.09,0,0,0,.02,0,.02,0,0,0,.01,0,.02,0,.71,0,3.77-.55,7.7-2.12.79-.32,1.62-.67,2.47-1.08,0,0,5.99-2.84,8.54-7.8.18-.35.33-.74.44-1.08.18.04.38.09.45.11.43.1,1.17.16,1.28.69.03.15.33-.78.34-.85.11-.45.34-1.11.24-1.58ZM467.5,183.21c-.58-.13-1.16-.26-1.74-.41-.64-.16-1.31-.38-1.72-.94-.14-.19-.22-.4-.27-.62.01-.02.03-.05.04-.07.62-.95,2.04-2.81,3.31-1.82,1.05.81.73,2.62.37,3.87Z"/>
  <path class="cls-7" d="M274.73,180.12s-.7,2.14-.74,2.33c-.1.45-.64,2.03-.27,2.43.54.58.87,1.18,1.14,1.85-.32.21-.68.36-1.04.46-.85.22-1.75.11-2.49-.37-.7-.46-1.09-1.17-1.24-2-.07-.36-.02-.72-.05-1.08.03-.21.06-.42.08-.63,0-.11.02-.25,0-.35,0-.02-.01-.04-.03-.06-.02-.03-.04-.05-.07-.06-.23-.09-.43.27-.49.43-.14.39-.19.82-.29,1.23-.23.93-.57,1.82-1,2.68-.41.82-.82,1.69-1.63,2.18-1.73,1.05-3.39-.38-4.48-1.64-1.31-1.52-2.61-3-4.83-2.53-1.91.4-3.28,1.9-4.36,3.42-3.01,4.23-6.42,8.19-10.64,11.26-3.26,2.37-6.81,4.35-10.43,6.11-2.36,1.15-4.76,2.21-7.2,3.17-4.38,1.71-6.42,2.15-6.33,2.42.08.25,2.18.08,5.31-.7,14.81-3.25,23.9-12.16,23.9-12.16.75-.68,1.5-1.41,2.24-2.2,3.38-3.6,5.34-6.92,7.79-6.63,2.92.35,4.58,6.05,7.87,4.31,1.47-.77,2.18-2.67,2.76-4.12.19-.49.36-.99.52-1.5.02.64.13,1.26.4,1.82.83,1.75,2.88,2.37,4.55,1.38,1.91-1.12,2.23-3.93,2.52-5.89.31-2.08-.03-3.99-1.49-5.57Z"/>
  <path class="cls-2" d="M178.63,196.61c-.55-.52-1.32-.6-1.81-.12-.08.08-.15.17-.21.27-.28.42-.58,1.03-.71,1.3-.01,0-.03-.02-.04-.03-.03-.06-.06-.11-.11-.14-.45-.23-.8,1.62-.9,1.97-.19.67-.58,1.38-1.04,1.89-.67.75-1.66,1.21-2.54,1.65-2.39,1.19-4.92,2.11-7.48,2.87-.81.24-1.62.47-2.43.69l-2.45.68c-.32.18.49.15.75.13,1.83-.15,3.64-.39,5.45-.71,1.75-.31,3.24-.76,4.91-1.39.26-.1.53-.2.78-.32.84-.38,1.64-.83,2.36-1.41.62-.5,1.34-1.15,1.6-1.93.13-.4.21-.81.34-1.21.08-.24.15-.55.3-.76.02-.03.03-.05.04-.07.4.7,1.69,1.07,2.32,1.24.04.01.09.02.13.03.06.02.12.04.18.06,0,0,0,0,0-.02.36.07.73.07.98-.25.35-.44.46-1.24.55-1.77.16-.93-.29-2.02-.97-2.66ZM177.6,199.06c-.35-.13-.9-.33-1.29-.63.4-.54,1.26-.35,1.72.02.29.23.49.54.67.87.01.02.02.05.04.07-.4-.03-.83-.22-1.13-.33Z"/>
  <path class="cls-24" d="M578.67,141.86c-15.12,5-30.07,10.41-44.9,16.19-.42.16-.59,1.73-.68,2.12-.04.18-.25,2.21-.24,2.21,14.84-5.78,29.79-11.19,44.9-16.19.41-.14.6-1.75.68-2.12.04-.17.28-2.22.24-2.21h0Z"/>
  <path class="cls-1" d="M297.04,109.04c-22.84,7.55-45.43,15.73-67.84,24.46-.64.25-.9,2.62-1.02,3.2-.06.28-.38,3.34-.37,3.34,22.41-8.73,45-16.91,67.84-24.46.62-.2.9-2.65,1.02-3.2.06-.26.42-3.35.37-3.34h0Z"/>
  <path class="cls-37" d="M395.49,60.97c-22.84,7.55-45.43,15.73-67.84,24.46-.64.25-.9,2.62-1.02,3.2-.06.28-.38,3.34-.37,3.34,22.41-8.73,45-16.91,67.84-24.46.62-.2.9-2.65,1.02-3.2.06-.26.42-3.35.37-3.34h0Z"/>
  <path class="cls-27" d="M714.57,93.52c-1.33.47-5.89,2.11-6.86,2.43-4.63,1.56-26.5,9.83-35.91,13.49-.71.28-1,2.92-1.14,3.57-.07.31-.43,3.74-.41,3.73,8.58-3.34,37.19-13.89,42.9-15.9.69-.24.96-2.98,1.07-3.59.06-.29.4-3.76.34-3.74Z"/>
  <path class="cls-41" d="M625.81,136.81c-1.33.47-5.89,2.11-6.86,2.43-4.63,1.56-26.5,9.83-35.91,13.49-.71.28-1,2.92-1.14,3.57-.07.31-.43,3.74-.41,3.73,8.58-3.34,37.19-13.89,42.9-15.9.69-.24.96-2.98,1.07-3.59.06-.29.4-3.76.34-3.74Z"/>
  <path class="cls-31" d="M157.52,142.03c-.21-.11-.86,2.61-.9,2.83-.07.35-.75,2.73-.33,2.95.06.03.11.06.17.09-1.18,2.9-2.03,5.95-2.38,9.03-.2,1.75-.12,3.85,1.6,4.84,1.75,1.01,3.83.18,5.17-1.1,2.56-2.44,3.42-6.66,3.65-10.02.29-4.17-3.63-6.89-6.98-8.61ZM155.96,155.14c-.25-.34-.41-.74-.5-1.15-.02-.08-.03-.16-.04-.23.06-.18.11-.33.15-.42.59-1.51,1.25-2.98,2.02-4.41.06-.1.11-.21.16-.32,1.8,1.07,3.63,2.46,4.71,4.12.23.35.38.7.49,1.07-.2.29-.41.57-.65.83-1.55,1.74-4.71,2.73-6.34.5Z"/>
  <path class="cls-26" d="M630.33,54.51c-.18-.09-.74,2.26-.78,2.45-.06.3-.65,2.36-.28,2.55.05.02.1.05.15.08-1.02,2.51-1.76,5.15-2.06,7.82-.17,1.51-.1,3.33,1.38,4.18,1.51.87,3.31.16,4.48-.95,2.21-2.11,2.96-5.76,3.16-8.67.25-3.61-3.15-5.96-6.04-7.45ZM628.98,65.85c-.22-.3-.35-.64-.44-.99-.02-.07-.03-.14-.03-.2.05-.15.1-.28.13-.36.51-1.3,1.08-2.58,1.75-3.81.05-.09.09-.19.14-.28,1.56.93,3.14,2.13,4.08,3.57.2.3.33.61.43.93-.17.25-.36.49-.56.72-1.34,1.51-4.08,2.37-5.49.44Z"/>
  <path class="cls-34" d="M509.84,119.63c-1.18-3.09-2.61-5.86-3.25-9.13-.06-.29-.86,1.32-.91,1.45-.31.72-1.03,1.95-.88,2.75.43,2.2.96,4.43,1.97,6.49.56,1.14,1.18,2.24,1.57,3.44.02.06.14.7.25,1.24,0,0,0,0-.01.01-.32.15-.65.24-1.01.25-3.92.49-4.9-3.64-5.08-6.08-.2-2.79-.3-5.59-.52-8.38-.02-.27-.85,1.31-.91,1.45-.34.79-.95,1.88-.88,2.75.15,1.88.1,3.89.18,5.9.01.27.02.53.04.8,0,1.37-.35,4.05-2.96,4.6-.76.08-1.5-.09-2.1-.52-1.42-1.01-1.66-3.19-1.47-4.68.44-3.32,2.33-5.88.45-9.09-.06-.1-.46.69-1.11,2.13-1,2.19-1.25,3.03-1.13,3.08.1.04.38-.53.66-.49.32.04.41.82.43,1.03.1.96-.13,1.7-.32,2.34-.87,2.87-2.15,7.5.54,9.89,1.07.95,2.36.88,3.49.35,0,0,.07-.03.18-.09,0,0,.02-.01.03-.01.09-.04.19-.1.32-.18.06-.04.13-.08.19-.12.03-.02.07-.05.11-.07.07-.05.14-.1.2-.15.88-.66,2.15-1.94,3.04-4.16.05.21.11.42.18.63.96,3.07,5.33,5.05,7.46,1.55,1.76-2.88,2.41-5.91,1.24-8.97Z"/>
  <path class="cls-20" d="M677.94,193.16s0-.45-.11-.23c-1.2,2.24-3.08,4.18-5.5,5.06-1.19.43-2.47.65-3.73.72-1.07.07-2.27.14-3.3-.18-.49-.15-.94-.39-1.25-.81-.15-.2-.21-.41-.27-.62.66-1.15,1.59-2.13,2.57-3.02,2.15-1.96,4.62-3.61,5.92-6.31.36-.75.51-1.62.66-2.43.07-.36.24-.86.16-1.22,0-.02,0-.46-.11-.23-.51,1.07-1.22,1.97-2.01,2.79-1.99,1.31-5.45,2.25-7.31.89-.14-.1-.26-.21-.37-.34.15-.15.32-.29.51-.43.89-.67,2.96-1.6,3.36.12.06.24.51-1.23.54-1.35.17-.69.55-1.76.38-2.49-.51-2.17-3.01-.73-4.01.18-1.59,1.45-2.12,4.08-2.17,6.15-.05,1.97,1.48,2.73,3.25,2.83-.8,1.08-1.37,2.28-1.74,3.6-.43,1.53-1.12,3.74-.52,5.32.5,1.31,1.88,1.56,3.13,1.6,1.46.05,2.95-.07,4.38-.43,2.95-.74,5.29-2.85,6.71-5.5.39-.72.52-1.64.66-2.43.06-.33.26-.9.16-1.22Z"/>
  <path class="cls-39" d="M414.09,196.57s0-.55-.13-.28c-1.45,2.7-3.73,5.06-6.65,6.12-1.44.52-2.98.78-4.51.87-1.3.08-2.74.17-4-.22-.59-.19-1.13-.47-1.51-.98-.18-.24-.26-.49-.33-.75.8-1.39,1.92-2.58,3.11-3.66,1.19-1.09,2.46-2.09,3.65-3.18,1.85-1.71,3.47-3.77,4.21-6.21.23-.77.51-1.59.48-2.4-.04-1.29-1.09-1.32-2.11-1.34-2.66-.06-6.67-.45-8.25,2.26-.49.84-.63,2-.8,2.94-.08.43-.29,1.05-.2,1.47,0,.05-.01.54.13.28,1.01-1.72,3-1.86,4.8-1.93.92-.04,1.84-.07,2.76-.1.06,0,.12,0,.19-.01-1.8,1.71-3.86,3.18-5.53,5.04-1.38,1.54-2.31,3.31-2.87,5.29-.52,1.86-1.36,4.53-.63,6.44.6,1.59,2.28,1.88,3.79,1.93,1.77.06,3.57-.09,5.29-.52,3.57-.9,6.4-3.45,8.12-6.65.47-.87.63-1.98.8-2.94.07-.4.31-1.09.2-1.47Z"/>
  <path class="cls-21" d="M488.92,199.19c0-.18-.02-.35-.12-.49-1.11-1.45-2.58-4.06-3.94-3.54-.41.15-.75.58-.8.64-.32.4-.41.8-.52,1.3-.02.1-.27,1.24-.04,1.32.17.06.3-.54.71-.66.42-.12.88.09,1.35.45-.09.02-.18.03-.27.04-1.23.2-2.42.75-3.04,1.88-.7,1.28-.7,3.02-.43,4.41.3,1.54,1.02,2.96,1.74,4.34.33.64.67,1.29.97,1.95,1.34,2.93,2.06,6.15,2.1,9.38,0,.53.26-.36.28-.43.16-.57.34-1.22.34-1.81-.04-3.14-.64-6.23-1.87-9.12-.96-2.26-2.58-4.47-2.99-6.93.63-.58,1.47-.89,2.34-1.03.95-.16,2.97-.58,3.44.61,0,.01.01.02.02.02,0,0,.02,0,.06-.08.07-.12.15-.32.23-.55.13-.38.26-.76.35-1.15.04-.17.09-.36.1-.55Z"/>
  <path class="cls-5" d="M138.69,126.18c.01-.26-.02-.5-.18-.7-1.58-2.07-3.68-5.79-5.63-5.05-.58.22-1.07.83-1.14.91-.46.57-.59,1.14-.75,1.86-.03.14-.39,1.76-.06,1.89.24.09.43-.77,1.02-.94.59-.17,1.26.12,1.93.64-.13.02-.26.04-.38.06-1.76.29-3.46,1.06-4.34,2.69-.99,1.83-1,4.3-.61,6.3.43,2.2,1.46,4.22,2.48,6.2.47.92.95,1.84,1.38,2.78,1.91,4.19,2.94,8.78,3,13.38,0,.75.37-.51.4-.62.22-.81.49-1.74.48-2.59-.06-4.48-.92-8.89-2.67-13.02-1.37-3.23-3.68-6.38-4.26-9.89.9-.83,2.1-1.26,3.35-1.47,1.36-.22,4.24-.83,4.91.86,0,.02.01.03.02.03.01,0,.03,0,.08-.11.1-.17.21-.45.32-.79.19-.54.37-1.08.5-1.64.05-.24.13-.52.14-.79Z"/>
  <path class="cls-12" d="M195.89,101.75c.49-3,.76-6.8-.2-9.89h0c-.06-.24-.12-.47-.19-.71-1.03-3.49-3.04-6.6-5.73-9.03-.08-.07-.82,2.51-.87,2.72-.1.47-.75,2.44-.31,2.84,2.29,2.07,4.1,4.61,5.19,7.5.61,1.61.91,3.23.99,4.86,0,.35-.04,3.97-1.1,7.86-.29.78-.55,1.57-.78,2.37,0,0,0,0,0,0,0,0,0,0,0,0-.49,1.69-.86,3.42-1.05,5.15-.19,1.68-.12,3.7,1.53,4.65,1.68.97,3.68.18,4.97-1.06,2.46-2.35,3.29-6.4,3.51-9.63.27-3.91-2.82-6.01-5.96-7.65ZM193.64,113.72c-.24-.33-.39-.71-.48-1.1-.02-.07-.03-.15-.04-.22.06-.17.11-.32.14-.4.57-1.45,1.2-2.87,1.94-4.24.06-.11.11-.22.16-.33,1.81,1,3.34,2.18,4.52,3.98.22.34.36.68.47,1.03-.19.28-.4.55-.62.8-1.49,1.68-4.53,2.63-6.1.48Z"/>
  <path class="cls-9" d="M302.55,126.2c-2.69-.17-5.37-.45-8.06-.59-2.19-.11-5.12-.42-6.5,1.66-.96,1.34-1.26,3.19-1.46,4.8-.04.33-.06.67-.05,1.01,0,.09.03.82.19.51.43-.86,1.05-1.34,1.76-1.61.66-.24,1.44-.21,2.13-.23,1.36-.03,2.74.05,4.1.11s2.78.19,4.16.35c.11.01.58.14.66.08-.03.02-.06.04-.09.07-.54.37-2.64,1.79-5.84,3.31-4.49,2.13-5.99,2.33-5.92,2.73.1.6,3.64.54,6.15.22,1.72-.22,2.83-.37,4.18-1.05,1.71-.86,2.63-2,4.03-3.73.4-.5,2.26-2.85,2.69-5.52.26-1.63-.66-2.04-2.11-2.13Z"/>
  <path class="cls-3" d="M331.88,214.49c-2.73-.17-5.46-.46-8.18-.6-2.22-.12-5.2-.42-6.61,1.69-.98,1.36-1.28,3.24-1.48,4.87-.04.34-.07.68-.05,1.02,0,.09.03.83.19.51.44-.88,1.06-1.36,1.79-1.63.67-.25,1.46-.22,2.16-.23,1.38-.03,2.78.05,4.16.12s2.82.19,4.22.36c.12.01.59.14.67.08-.03.02-.06.04-.1.07-.55.38-2.68,1.82-5.93,3.36-4.56,2.16-6.08,2.37-6.01,2.77.1.61,3.69.55,6.24.22,1.74-.23,2.88-.37,4.24-1.06,1.74-.88,2.67-2.03,4.09-3.79.41-.51,2.3-2.89,2.73-5.61.26-1.65-.67-2.07-2.14-2.16Z"/>
  <path class="cls-25" d="M486.58,85.86c-.03-.26-.11-.44-.32-.26-.26.22-.37.65-.52.95-.44,1-1.34,2.36-2.61,2.34-2.57-.05-2.63-3.59-2.24-5.36.27-1.21.67-2.39,1.14-3.54.23-.57.49-1.14.74-1.7.53-1.14,1.07-2.27,1.61-3.41.32-.67.68-1.34.96-2.03.03-.07.06-.15.06-.22,0-.48-.49-.03-.59.11-1.26,1.8-2.09,3.52-2.88,5.3-1.3,2.92-2.64,6.1-2.56,9.35.04,1.4.3,2.82.96,4.06.05.11.11.21.17.31.04.06.06.13.11.18.27.41.63.76,1.12.97,1.92.82,3.28-1.15,3.95-2.67.31-.72.55-1.47.7-2.24.08-.4.13-.8.17-1.21,0-.11.07-.61.04-.95Z"/>
  <path class="cls-15" d="M439.16,169.58c-.03-.26-.11-.44-.32-.26-.26.22-.37.65-.52.95-.44,1-1.34,2.36-2.61,2.34-2.57-.05-2.63-3.59-2.24-5.36.27-1.21.67-2.39,1.14-3.54.23-.57.49-1.14.74-1.7.53-1.14,1.07-2.27,1.61-3.41.32-.67.68-1.34.96-2.03.03-.07.06-.15.06-.22,0-.48-.49-.03-.59.11-1.26,1.8-2.09,3.52-2.88,5.3-1.3,2.92-2.64,6.1-2.56,9.35.04,1.4.3,2.82.96,4.06.05.11.11.21.17.31.04.06.06.13.11.18.27.41.63.76,1.12.97,1.92.82,3.28-1.15,3.95-2.67.31-.72.55-1.47.7-2.24.08-.4.13-.8.17-1.21,0-.11.07-.61.04-.95Z"/>
  <path class="cls-40" d="M232.38,80.4c-.03-.34-.14-.55-.4-.33-.33.28-.47.83-.66,1.21-.56,1.27-1.7,3-3.31,2.97-3.26-.06-3.34-4.56-2.85-6.8.34-1.54.85-3.04,1.44-4.49.3-.73.62-1.45.95-2.16.67-1.45,1.36-2.88,2.04-4.32.4-.86.86-1.71,1.22-2.58.04-.09.07-.18.07-.28,0-.61-.62-.04-.75.14-1.6,2.28-2.66,4.46-3.66,6.72-1.64,3.71-3.35,7.74-3.25,11.87.04,1.78.38,3.57,1.22,5.16.06.14.14.27.21.4.05.08.08.17.14.23.34.52.79.96,1.42,1.23,2.44,1.04,4.17-1.45,5.01-3.39.4-.91.69-1.86.88-2.84.1-.51.17-1.02.21-1.53.01-.14.09-.77.05-1.2Z"/>
  <path class="cls-35" d="M121.7,173.98c-.03-.34-.14-.55-.4-.33-.33.28-.47.83-.66,1.21-.56,1.27-1.7,3-3.31,2.97-3.26-.06-3.34-4.56-2.85-6.8.34-1.54.85-3.04,1.44-4.49.3-.73.62-1.45.95-2.16.67-1.45,1.36-2.88,2.04-4.32.4-.86.86-1.71,1.22-2.58.04-.09.07-.18.07-.28,0-.61-.62-.04-.75.14-1.6,2.28-2.66,4.46-3.66,6.72-1.64,3.71-3.35,7.74-3.25,11.87.04,1.78.38,3.57,1.22,5.16.06.14.14.27.21.4.05.08.08.17.14.23.34.52.79.96,1.42,1.23,2.44,1.04,4.17-1.45,5.01-3.39.4-.91.69-1.86.88-2.84.1-.51.17-1.02.21-1.53.01-.14.09-.77.05-1.2Z"/>
  <path class="cls-22" d="M141.03,106.58s-.01-.06-.02-.09c-.05-.17-.13-.33-.23-.48-.26-.42-.6-.8-.98-1.11-.5-.41-1.15-.73-1.78-.59-.99.22-1.45,1.37-1.75,2.22-.43,1.2-.65,2.44-.82,3.72l-.55,4.12c-.04.24-.08.47-.13.71-.1.46-.19.92-.28,1.38-.05.23-.09.47-.14.7-.02.1-.09.32-.13.5-.56-1.55-1.98-5.25-1.99-5.25-.61-1.48-1.39-2.92-2.37-4.17-.67-.86-1.66-1.7-2.73-.98-.87.59-1.51,2.53-1,3.49.27.51.89.77,1.29,1.15.73.58,1.55,1.2,1.92,1.49.16-.22.31-.44.47-.66.08.1.17.22.2.26.11.17.22.35.32.53.2.34.38.69.55,1.05.34.71.64,1.44.93,2.17.56,1.46,1.07,2.93,1.7,4.36.06.14.13.44.31.48.38.07.66-.94.73-1.2.14-.58.2-1.17.3-1.76.05-.32.09-.64.14-.96l.19-1.2c.02-.24.05-.45.08-.67.09-.74.19-1.48.28-2.21.44-3.1.84-4.13.96-4.37.11-.22.23-.43.37-.63.55-.8,1.31-.71,2.05-.2.61.42,1.1.99,1.43,1.65.15-.19.22-.44.28-.67.18-.72.31-1.44.4-2.17.02-.2.05-.41,0-.61Z"/>
  <path class="cls-17" d="M360.87,108.76c.01-.26-.02-.5-.18-.7-1.58-2.07-3.68-5.79-5.63-5.05-.58.22-1.07.83-1.14.91-.46.57-.59,1.14-.75,1.86-.03.14-.39,1.76-.06,1.89.24.09.43-.77,1.02-.94.59-.17,1.26.12,1.93.64-.13.02-.26.04-.38.06-1.76.29-3.46,1.06-4.34,2.69-.99,1.83-1,4.3-.61,6.3.43,2.2,1.46,4.22,2.48,6.2.47.92.95,1.84,1.38,2.78,1.91,4.19,2.94,8.78,3,13.38,0,.75.37-.51.4-.62.22-.81.49-1.74.48-2.59-.06-4.48-.92-8.89-2.67-13.02-1.37-3.23-3.68-6.38-4.26-9.89.9-.83,2.1-1.26,3.35-1.47,1.36-.22,4.24-.83,4.91.86,0,.02.01.03.02.03.01,0,.03,0,.08-.11.1-.17.21-.45.32-.79.19-.54.37-1.08.5-1.64.05-.24.13-.52.14-.79Z"/>
  <path class="cls-14" d="M363.21,89.16s-.01-.06-.02-.09c-.05-.17-.13-.33-.23-.48-.26-.42-.6-.8-.98-1.11-.5-.41-1.15-.73-1.78-.59-.99.22-1.45,1.37-1.75,2.22-.43,1.2-.65,2.44-.82,3.72l-.55,4.12c-.04.24-.08.47-.13.71-.1.46-.19.92-.28,1.38-.05.23-.09.47-.14.7-.02.1-.09.32-.13.5-.56-1.55-1.98-5.25-1.99-5.25-.61-1.48-1.39-2.92-2.37-4.17-.67-.86-1.66-1.7-2.73-.98-.87.59-1.51,2.53-1,3.49.27.51.89.77,1.29,1.15.73.58,1.55,1.2,1.92,1.49.16-.22.31-.44.47-.66.08.1.17.22.2.26.11.17.22.35.32.53.2.34.38.69.55,1.05.34.71.64,1.44.93,2.17.56,1.46,1.07,2.93,1.7,4.36.06.14.13.44.31.48.38.07.66-.94.73-1.2.14-.58.2-1.17.3-1.76.05-.32.09-.64.14-.96l.19-1.2c.02-.24.05-.45.08-.67.09-.74.19-1.48.28-2.21.44-3.1.84-4.13.96-4.37.11-.22.23-.43.37-.63.55-.8,1.31-.71,2.05-.2.61.42,1.1.99,1.43,1.65.15-.19.22-.44.28-.67.18-.72.31-1.44.4-2.17.02-.2.05-.41,0-.61Z"/>
  <path class="cls-33" d="M460.59,124.67c.01-.26-.02-.5-.18-.7-1.58-2.07-3.68-5.79-5.63-5.05-.58.22-1.07.83-1.14.91-.46.57-.59,1.14-.75,1.86-.03.14-.39,1.76-.06,1.89.24.09.43-.77,1.02-.94.59-.17,1.26.12,1.93.64-.13.02-.26.04-.38.06-1.76.29-3.46,1.06-4.34,2.69-.99,1.83-1,4.3-.61,6.3.43,2.2,1.46,4.22,2.48,6.2.47.92.95,1.84,1.38,2.78,1.91,4.19,2.94,8.78,3,13.38,0,.75.37-.51.4-.62.22-.81.49-1.74.48-2.59-.06-4.48-.92-8.89-2.67-13.02-1.37-3.23-3.68-6.38-4.26-9.89.9-.83,2.1-1.26,3.35-1.47,1.36-.22,4.24-.83,4.91.86,0,.02.01.03.02.03.01,0,.03,0,.08-.11.1-.17.21-.45.32-.79.19-.54.37-1.08.5-1.64.05-.24.13-.52.14-.79Z"/>
  <path class="cls-10" d="M462.93,105.06s-.01-.06-.02-.09c-.05-.17-.13-.33-.23-.48-.26-.42-.6-.8-.98-1.11-.5-.41-1.15-.73-1.78-.59-.99.22-1.45,1.37-1.75,2.22-.43,1.2-.65,2.44-.82,3.72l-.55,4.12c-.04.24-.08.47-.13.71-.1.46-.19.92-.28,1.38-.05.23-.09.47-.14.7-.02.1-.09.32-.13.5-.56-1.55-1.98-5.25-1.99-5.25-.61-1.48-1.39-2.92-2.37-4.17-.67-.86-1.66-1.7-2.73-.98-.87.59-1.51,2.53-1,3.49.27.51.89.77,1.29,1.15.73.58,1.55,1.2,1.92,1.49.16-.22.31-.44.47-.66.08.1.17.22.2.26.11.17.22.35.32.53.2.34.38.69.55,1.05.34.71.64,1.44.93,2.17.56,1.46,1.07,2.93,1.7,4.36.06.14.13.44.31.48.38.07.66-.94.73-1.2.14-.58.2-1.17.3-1.76.05-.32.09-.64.14-.96l.19-1.2c.02-.24.05-.45.08-.67.09-.74.19-1.48.28-2.21.44-3.1.84-4.13.96-4.37.11-.22.23-.43.37-.63.55-.8,1.31-.71,2.05-.2.61.42,1.1.99,1.43,1.65.15-.19.22-.44.28-.67.18-.72.31-1.44.4-2.17.02-.2.05-.41,0-.61Z"/>
  <path class="cls-19" d="M411.75,115.07s-.02-.08-.03-.12c-.06-.23-.18-.44-.31-.64-.35-.57-.8-1.07-1.32-1.5-.67-.55-1.54-.98-2.39-.79-1.33.29-1.95,1.84-2.36,2.99-.57,1.61-.87,3.28-1.1,5l-.73,5.54c-.06.32-.11.64-.18.95-.13.62-.26,1.23-.38,1.85-.06.31-.12.63-.18.94-.03.13-.12.42-.17.67-.75-2.08-2.66-7.06-2.67-7.05-.82-1.99-1.87-3.92-3.19-5.6-.9-1.15-2.23-2.28-3.67-1.31-1.17.79-2.04,3.4-1.34,4.7.36.68,1.19,1.03,1.74,1.55.99.79,2.08,1.62,2.58,2,.21-.3.42-.59.63-.89.1.14.23.29.26.35.15.24.29.47.43.72.27.46.51.93.75,1.41.46.95.87,1.93,1.25,2.92.75,1.96,1.44,3.94,2.28,5.87.08.19.17.59.42.64.52.1.89-1.26.98-1.62.19-.78.26-1.57.4-2.36.07-.43.12-.86.18-1.29l.26-1.62c.03-.32.07-.61.1-.91.13-.99.26-1.98.38-2.98.6-4.17,1.14-5.56,1.29-5.88.15-.29.32-.58.5-.84.74-1.07,1.76-.96,2.76-.27.81.56,1.48,1.34,1.92,2.22.2-.26.29-.59.37-.91.24-.96.42-1.94.54-2.92.03-.27.06-.55,0-.82Z"/>
  <path class="cls-11" d="M617.48,110.29c-.01-.07-.03-.13-.05-.19-.11-.38-.3-.74-.51-1.07-.59-.94-1.33-1.79-2.19-2.5-1.12-.92-2.57-1.63-3.99-1.32-2.21.49-3.24,3.06-3.93,4.98-.95,2.68-1.45,5.47-1.84,8.33l-1.22,9.24c-.09.53-.18,1.06-.29,1.58-.22,1.03-.43,2.05-.63,3.08-.1.52-.21,1.05-.31,1.57-.04.22-.21.71-.29,1.11-1.25-3.47-4.44-11.77-4.45-11.76-1.36-3.32-3.12-6.53-5.31-9.34-1.5-1.92-3.71-3.8-6.11-2.19-1.95,1.31-3.39,5.66-2.24,7.83.61,1.14,1.99,1.72,2.9,2.59,1.65,1.31,3.47,2.7,4.31,3.34.35-.49.7-.99,1.05-1.48.17.23.38.49.44.58.25.39.49.79.72,1.19.44.77.85,1.55,1.24,2.35.77,1.59,1.44,3.22,2.08,4.87,1.26,3.27,2.4,6.57,3.81,9.78.14.32.28.99.7,1.07.86.16,1.49-2.1,1.63-2.69.32-1.3.44-2.62.67-3.94.12-.71.2-1.43.31-2.15l.43-2.7c.06-.53.11-1.01.17-1.51.21-1.65.43-3.31.63-4.96,1-6.95,1.89-9.26,2.14-9.8.25-.49.53-.97.83-1.4,1.23-1.79,2.94-1.6,4.6-.44,1.36.94,2.47,2.23,3.21,3.7.34-.43.49-.98.62-1.51.39-1.6.69-3.23.89-4.87.06-.45.1-.92.02-1.37Z"/>
  <path class="cls-8" d="M276.3,76.42s-.02-.08-.03-.12c-.07-.24-.19-.47-.33-.68-.38-.6-.85-1.14-1.4-1.59-.71-.59-1.64-1.04-2.54-.84-1.41.31-2.07,1.95-2.5,3.17-.61,1.71-.93,3.49-1.17,5.31l-.78,5.89c-.06.34-.12.68-.19,1.01-.14.65-.27,1.31-.4,1.97-.07.33-.13.67-.2,1-.03.14-.13.45-.18.71-.8-2.21-2.83-7.51-2.84-7.5-.87-2.12-1.99-4.17-3.39-5.96-.95-1.22-2.37-2.42-3.9-1.39-1.24.84-2.16,3.61-1.43,4.99.39.73,1.27,1.1,1.85,1.65,1.05.84,2.21,1.72,2.75,2.13.22-.31.45-.63.67-.94.11.15.24.31.28.37.16.25.31.5.46.76.28.49.54.99.79,1.5.49,1.01.92,2.05,1.33,3.1.74,1.92,1.42,3.86,2.23,5.76-1.12.9-2.44,1.87-3.96,2.86-3.31,2.15-6.05,3.37-8.35,4.39-2.9,1.28-5.89,2.28-8.89,3.27-6.64,1.88-10.01,2.56-10,2.78,0,.59,8.15-.5,8.62-.58,2.81-.46,5.58-1.1,8.31-1.89,2.88-.84,5.65-2.05,8.21-3.6,2.61-1.57,4.71-3.71,6.77-5.93.07-.07.13-.14.19-.21.42-.27.72-1.34.79-1.66.2-.83.28-1.67.42-2.51.08-.45.12-.91.19-1.37l.27-1.72c.04-.34.07-.65.11-.96.13-1.05.28-2.11.4-3.16.64-4.43,1.21-5.9,1.37-6.25.16-.31.34-.62.53-.9.78-1.14,1.87-1.02,2.93-.28.87.6,1.58,1.42,2.04,2.36.22-.28.31-.62.39-.96.25-1.02.44-2.06.57-3.1.04-.29.07-.59.01-.87Z"/>
  <path class="cls-36" d="M314.26,185.74c.2-.62.35-1.24.47-1.88.03-.18.06-.36.03-.53,0-.03,0-.05-.02-.08-.04-.15-.11-.29-.19-.43-.23-.38-.53-.72-.87-1.02-.45-.38-1.05-.69-1.65-.6-.94.14-1.42,1.12-1.75,1.85-.45,1.02-.72,2.1-.93,3.2l-.69,3.57c-.05.2-.1.41-.15.61-.11.39-.22.79-.33,1.19-.05.2-.11.4-.16.6-.02.08-.1.27-.14.43-.46-1.38-1.64-4.67-1.65-4.67-.51-1.32-1.19-2.61-2.05-3.75-.59-.78-1.49-1.56-2.53-.98-.79.44-1.19,1.22-1.66,1.95-1.23,1.89-2.91,3.41-4.62,4.86-1.33,1.13-2.72,2.12-4.14,3.12-3.01,2.11-4.86,2.74-4.75,3.03.12.32,2.48-.19,4.5-.99,2.26-.91,3.73-2.05,4.07-2.32,1.35-1.08,2.15-2.11,3.49-3.82.9-1.15,1.57-2.15,2.02-2.84,0,0,0,.01,0,.02.23.46.8.71,1.17,1.07.67.54,1.41,1.12,1.75,1.39.16-.18.31-.37.47-.55.07.09.15.2.17.24.1.16.19.32.28.48.17.31.33.62.48.94.29.63.55,1.28.78,1.94.47,1.3.88,2.61,1.41,3.88.05.13.1.39.27.43.36.08.67-.79.74-1.01.16-.5.23-1.01.36-1.52.07-.28.11-.55.17-.83l.23-1.04c.03-.21.07-.39.1-.58.12-.64.25-1.28.36-1.92.55-2.68.97-3.56,1.09-3.77.12-.19.24-.36.37-.53.55-.67,1.27-.56,1.94-.08.55.39,1,.92,1.28,1.51.15-.16.22-.37.29-.57Z"/>
</svg>