<?xml version="1.0" encoding="UTF-8"?>
<svg xmlns="http://www.w3.org/2000/svg" version="1.1" viewBox="0 0 612 202.2">
  <defs>
    <style>
      .cls-1 {
        fill: #0f766e;
      }
    </style>
  </defs>
  <!-- Generator: Adobe Illustrator 28.7.1, SVG Export Plug-In . SVG Version: 1.2.0 Build 142)  -->
  <g>
    <g id="Layer_1">
      <g id="Layer_1-2" data-name="Layer_1">
        <g>
          <path class="cls-1" d="M390.4,136c2.6-6.8,3.8-13.8,3.9-21,.2-11.9-.5-23.7-1.7-35.6-.7-7.3-.9-14.7-1.4-22-.2-3.4-.6-6.8-.8-10.2-.1-2.4,0-4.9,0-7.3h.5c1.4,1.8,2.8,3.6,4.2,5.4.2,0,.5,0,.7,0,0-1.3.3-2.7,0-3.8-2.1-6.3-4.4-12.5-6.6-18.7-.6-1.7-1.5-3.4-2.4-5.5-.7,1.7-1.3,2.9-1.8,4.1-1.4,3.5-3.6,6.9-1.2,10.9.3.5.1,1.3.1,2v5.3c.4,7.9.8,15.8,1.2,23.7.2,4.5.3,9,.5,13.6.1,2.9.3,5.8.5,8.7.5,9,1.1,18,1.7,27,.3,4.4.6,8.9.8,13.3.2,3.4.5,6.9-3.4,8.9-3.2,1.6-6.5,3-10.2,3.2-4.1.3-7.8-.5-11.7-2.5.6-.9,1-1.5,1.5-2.1,5.8-6.6,7.5-14.3,5.8-22.8-.8-3.9-2-7.8-5.1-10.6-2.4-2.2-5.3-2.4-7.6-.2-1.6,1.6-3.2,3.4-4.4,5.3-4.2,6.9-5.7,14.5-4.1,22.5,1,4.9,1.3,4.9-3.6,6.6h-.2c-6.8,2.8-13.8,5.1-20,9.2-8.7,5.9-15.3,13.8-22,21.8-3.9,4.7-7.8,9.2-13.3,12.1-5.8,3-11.8.9-12.7-5.8-.4-2.9-.1-6.1.3-9,.2-1.8,1-3.8,2.1-5.2,1.1-1.5,3.1-2.4,4.5-3.7,4-3.9,8.3-7.6,9.6-13.4.3-1.6.4-3.2.9-4.7,1.6-5.3.9-10.5-.8-15.6-1.7-4.9-3.7-9.7-5.6-14.8,1.6.2,3,.3,4.4.5.1-.2.3-.4.4-.6-3.3-4.4-6.7-8.8-10.2-13.3-2.7,5.7-3,9.2-1.5,14.4,1.5,5.1,3,10.3,4.6,15.3,1.5,4.4,3.3,8.6,4.8,13,.3.9-.1,2.4-.8,3.1-2.3,2.4-4.7,4.9-7.3,6.9-10.7,8.3-22.2,15.2-35.3,19.2-8.4,2.6-16.8,4.4-25.6,1.9-7.9-2.3-13.6-6.8-16.5-14.7-2.8-7.9-1.5-15.5,1.1-23.1.5-1.4,1-1.9,2.8-1.5,7,1.9,15.8-1.1,19-9.4,2.8-7.3,3.9-14.8,4.2-22.5.1-3.4-.2-6.8-.4-10.3-.3-4.6-.6-9.2-1-13.7-.5-5.6-1.1-11.1-1.6-16.7-.4-4.2-.6-8.4-.9-12.7-.1-1.7,0-3.4,0-5.1.2,0,.4,0,.6-.2,1.4,1.7,2.8,3.3,4.1,5,.2,0,.5,0,.7-.2,0-1.4.2-3-.3-4.3-2.5-7.2-5.2-14.4-7.9-21.5-.2-.6-.6-1-1.3-2.1-1.6,3.8-2.9,7.1-4.2,10.4-.1.3.1.7.3,1,2,3.6,1.5,7.6,1.7,11.5.4,6.4.4,12.8.5,19.3v.9c.7,9,1.5,18,2.1,27,.6,8.7.9,17.4,1.4,26.2.1,1.6-.5,2.9-1.8,3.5-2.6,1.2-5.3,2.4-8.1,2.9-6.5,1.1-11.6-1.9-16.2-6.3-3.8-3.6-7.6-7.2-11.6-10.7-7.7-6.7-16.2-12.4-25-17.7-9.4-5.6-18.7-11.4-28-17.1-.5-.3-.9-.8-1.5-1.3.8-.7,1.3-1.3,2-1.7,6.9-4.2,13.8-8.6,20.9-12.3,11.3-5.8,22.8-11.3,34.4-16.6,4.8-2.1,9.9-3.4,15-4.7,1.2-.3,2.9.6,4.1,1.4.3.2-.3,2.1-.9,3.1-.6,1.1-1.7,2-2.5,3.1-3.6,5.2-7.4,10.2-10.6,15.6-1.9,3.3-2.9,7.1-4.2,10.7.3,0,.5.2.8.3,1.1-2.1,2.1-4.4,3.5-6.4,3.7-5.2,7.5-10.3,11.4-15.4,3.5-4.7,6.6-9.6,7.7-15.4,1.2-5.9-.7-8.2-5.7-7.8-1.2,0-2.4.3-3.6.7-10.8,3-20.9,7.6-30.9,12.4-13.2,6.3-26.4,12.7-38.4,21.1-2.4,1.7-4.2,3.7-4.9,6.5-.8,3.4-1.3,6.8-1.8,10.2-.4,2.5.3,4.6,2.4,6.2,3.9,3.1,7.6,6.2,11.5,9.3,8.3,6.5,16.8,12.9,25.1,19.6,4.9,4,8.9,8.8,11.9,14.4,1.9,3.8,1.5,5.3-2.3,7.1-5.2,2.5-10.4,4.9-15.7,7.1-6.8,2.7-13.8,4.9-20.4,7.8-11.6,5-19.7,14.4-28.2,23.4-3.6,3.8-7.5,7.3-11.7,10.3-3.9,2.8-11.2,2.6-14.1-1.6-2.7-3.9-2.7-8.2-2-12.6,1.1-6.6,3.6-12.7,6.4-18.8.8-1.6,1.3-3.3,1.9-5-.7,0-1,.1-1.1.4-4.2,6.6-8.1,13.4-9.5,21.3-1.3,7.6-.8,15,4.3,21.5,3.2,4.1,9.1,6.3,14.1,4.9,5.8-1.6,9.5-6,13.4-10.1,4.1-4.4,7.9-9,12.1-13.2,7.9-7.7,18-11.3,28.1-15.1,6.5-2.5,13-5.3,19.3-8.2,3.2-1.5,6.2-3.8,7.8-7.1,2.9-6,3.8-12.3,1.4-18.7-.4-1.2-.9-2.4-1.3-3.6.1,0,.3-.2.4-.3,6.9,6.6,13.8,13.1,20.8,19.8-3.6,9.5-6.4,19.4-4.2,30.2,1.7,8.1,5.8,14.4,12.9,18.3,9.1,5.1,19,4.2,28.6,2,10.1-2.3,19.3-6.9,28-12.4,1.5-.9,2.9-1.9,4.6-2.9-1.2,7.6-1.3,12.7,1.7,18.4,4.1,7.8,12.1,9.7,18.6,5.4,2.4-1.6,4.7-3.5,6.7-5.6,3.3-3.6,6.3-7.4,9.4-11.2,4.6-5.5,9.3-11.1,15.7-14.7,4-2.3,8.4-4.1,12.7-6,5-2.2,10.2-4.4,15.3-6.5,4,6,9.6,8.8,16.8,8.6,8.6-.2,15.3-4.6,18.4-12.8h0v-.4ZM357.1,128.3c-1.4-3.2-2.8-6.4-4.2-9.6-.7-1.7-.5-3.3.7-4.7,1.4-1.5,2.6-3.1,4.1-4.4,1.5-1.4,3.3-1,4.5,1.1,1.6,2.9,3,5.9,4.2,8.9.5,1.2.2,2.5-1,3.4-2.5,1.8-4.9,3.7-7.4,5.5-.3,0-.7-.2-1-.3h0Z"/>
          <path class="cls-1" d="M497.5,186.2c-4.9.4-9.7,1-14.5,1.1-6.1.1-12.3-.2-18.4-.3-6.7-.1-13.3-1.1-19.7-3.1-16.1-4.9-21.9-16.5-21.3-30.8.3-8.7,3-17,7.2-25.3.9,1.1,1.5,2,2.3,2.7,4.2,3.8,8.8,7.2,14.6,8.1,6.5,1,13,1.4,19.4,2.2,4.6.6,8.9,1.7,12.6,4.8,3.2,2.7,4.3,7.5,1.7,10.8-2.3,2.9-5,5.7-7.9,8-6.6,5.3-14.3,8.8-21.8,12.5-1.7.8-3.4,1.5-5.1,2.2l.2.5c3.2-.6,6.4-1.2,9.5-1.9,5.5-1.3,11.1-2,15.8-6,6.5-5.6,11.7-12,13.6-20.5,1.8-7.8-1-16.4-8.9-19-4.1-1.4-8.6-1.9-13-2.2-8-.5-16-.9-23.8-2.8-2.5-.6-4.8-1.6-7.3-2.5,4.1-7,9.3-12.2,14.5-17.1,3.4,3,6.6,5.9,9.8,8.8,8,7,17.3,10.8,27.8,11.7,8,.7,15.6-1.3,22.5-5.3,2.6-1.5,5.2-3.2,6.6-6.1,2.8-5.7,3.5-11.8,2.5-18-1.2-7.4-4.3-13.9-10.3-18.8-4.3-3.6-8.9-3.4-12.8.5-3.7,3.7-5.8,8.2-6.1,13.3-.3,5.5,1.4,9,7.7,10.1,3,.6,6.3,0,9.4.3,3.6.3,7,1.2,8.5,5.1-14.8,12.3-42,10.1-57.6-7.5,4.8-3,9.5-6.2,14.3-9,1.8-1,2.6-2.4,3-4.3.3-1.7.5-3.5,1-5.1.5-1.4,0-1.9-1.1-2.6-6.9-4-14.4-5.4-22.2-6-7.2-.5-14.2.9-20.8,3.6-1.7.7-3.9,1.8-4.5,3.2-1.5,3.6-2.1,7.5-3.1,11.3,1.5-.2,2.6-.5,3.5-1.1,1.9-1.3,3.7-1,5.5,0,4.5,2.6,8.4,5.9,11.6,10.2-6.3,5.9-10.7,13-14.5,20.5-1.1-.5-2.1-.9-3-1.3-.1.2-.3.4-.4.6,1,.7,2,1.4,2.9,2-5.9,14.3-8.4,25.5-8,40.7.1,4.8.8,9.5,2.9,13.9,4.9,10.4,13.6,16,24.5,17.8,7.8,1.3,15.9,1.3,23.8,1.9,1,0,2.2-.2,3.2-.6,6.5-2.5,13-5.1,19.5-7.7,2-.8,4.1-1.6,6.1-2.4v-.6c-.6-.1-1.1-.4-1.7-.3h0l-.2-.2ZM496.9,93h-1.1c-.1,0-.2,0-.3,0s-.2,0-.3,0c-.1,0-.2,0-.3-.2h0s-.1,0-.2,0h-.1l-.2-.2-.2-.2s-.1,0-.1-.2h0s0,0-.1-.2c0,0,0-.2-.1-.3h0v-1.1h0c0-.2.2-.4.3-.6h0c0,0,.1-.2.2-.3h.1c0,0,.1-.2.2-.3.2,0,.4-.2.5-.4,0,0,.1,0,.2,0h0s.2,0,.2,0h.3c.2,0,.3,0,.5,0h1.7c.4,0,.7,0,1,.2h.2c.1,0,.3,0,.5.2h.2s.2,0,.3,0c0,0,.2,0,.3.2.2,0,.4.3.6.4h.1c0,0,.1.2.2.3,0,0,.2.2.3.3h0s.2.2.3.3.2.2.3.3c.2.2.4.5.6.7.5.5.9,1,1.4,1.6.2.2.3.4.5.5h-8.2l.2-.5ZM440.3,86.1c4.8-.5,9.3-.4,13.7.6.5,0,1,.2,1.5.4.6.2,1.2.4,1.9.6.6.2,1.1.4,1.7.6h0c-.6.5-1.3.9-1.9,1.4s-1.2.9-1.8,1.3c-1.2.9-2.3,1.7-3.5,2.5-2.7,2-2.7,1.9-4.9-.5-.2-.2-.4-.4-.6-.6-1.3-1.4-2.7-2.6-4.1-4-.6-.6-1.1-1.3-2-2.3h0Z"/>
          <path class="cls-1" d="M587.6,110c-2.2-5.2-5.6-7.3-10.4-5.9-2.7.8-4.9,3.3-7.3,5.2-.7.5-1,1.9-1.6,1.9-2.2.2-2.7,2.1-3.6,3.5-3.2,4.8-6.9,8.9-12.8,10.5-1.2.3-1.8.5-2.5-1-1.5-3.7-4-6.9-7-9.6-2.6-2.2-5.8-2.6-8.7-.7-5.5,3.6-7.9,9-8.2,15.2-.3,4.4,2.7,8,7.1,8.5,3.7.4,7.5.3,11.3,0,1.7-.2,2.4.2,2.4,1.6s-.2,2.7-.9,3.4c-5.5,5.2-10.9,10.5-16.9,15.1-6.2,4.8-13,8.2-21.3,8-6.4-.2-11-3.8-12.5-10.2-1.1-4.9-.4-9.8,1-14.6.7-2.5,1.3-5,1.9-7.5-.4-.1-.7-.2-1.1-.3-1,2.8-2.1,5.6-3,8.4-2.7,8.4-4,16.9-.6,25.5,2.5,6.4,7.4,9.6,13.6,9.8,5.3.2,10.1-1.6,14.7-4.1,8.3-4.7,15.3-10.9,21.6-17.9,4.4-4.8,7.6-10.3,8.2-17.1,0-1.3.6-2.3,2.2-3,2-.9,3.9-2.4,5.5-4.1,1.8-1.9,3.1-4.3,4.6-6.5,5.7,4.9,11.9,8.5,19.2,9.8.8.1,2.3-.3,2.7-.9,4.7-7.2,5.8-14.9,2.3-22.9h.1ZM534.5,127.2h-.9c-.4-.2-.9-.5-1.2-.8h0s0,0,0-.2v-.2h0v-.2h0v-.2h0v-.3c0,0,0-.2,0-.3v-.2h0c0,0,0-.2,0-.3h0q0,0,0-.2s0,0,.2-.2,0,0,.2-.2h.2c0,0,.2,0,.3-.2h2.6c0,0,.2,0,.3,0,0,0,.2,0,.3,0,.2,0,.3,0,.5.2,0,0,.2,0,.2,0h.2s.2,0,.3.2c0,0,.2,0,.3.2,0,0,0,0,.2.2,0,0,0,0,.2.2l.2.2c.2.2.5.5.7.8,0,0,.2.3.3.4s.2.3.3.4c0,0,0,0,0,.2,0-.2-.3-.4-.4-.6.2.3.4.6.6.8h0c0,0,.2.3.3.4h0c0,0,.2.3.3.4,0,.2-.2.5-.2.7-2.2-.2-4.5-.2-6.6-.7h0l.4-.8ZM580.1,122c-3.3-1.9-6.3-3.8-9.4-5.6h0c.2-.2.4-.4.6-.6.2-.2.3-.3.5-.5,0,0,0,0,.2,0,.2,0,.3-.2.5-.4,0,0,.2,0,.2-.2s.2,0,.2,0c0,0,.2,0,.3-.2,0,0,.2,0,.3,0,0,0,.2,0,.3,0,0,0,.2,0,.3,0h2.6c.2,0,.4.2.7.3,0,0,.2,0,.2.2.2,0,.4.3.6.5,0,0,.2.2.3.3,0,0,.3.3.4.4,0,0,.2.2.2.3s.2.2.2.3.2.2.3.4c0,.2.2.3.3.5,0,0,0,0,0,.2l.2.4c.2.3.3.6.4.9,0,0,0,.3.2.4,0,0,0,.3,0,.4,0,0,0,.2,0,.4h0v1.2h0v2.1h0c-.5-.3-.9-.6-1.4-.8h0l.5-.4Z"/>
          <path class="cls-1" d="M116.1,127.7c2.3.8,4.4,2,7.2,3.2.3-3.5.8-6.8.8-10.1s-1.1-2.2-2-2.7c-3.1-1.8-6.5-3.2-9.7-4.9-3.2-1.7-6.4-3.6-8.3-6.8-1.6-2.6-3.4-5.2-1.6-8.6,2.1-3.8,4.7-7,8.3-9.3,3.1-2,5.8-1.3,7.7,1.9.5.9,1.1,1.8,1.9,3.2,1.4-4.4,3-8.1,1.4-12.3-1.5-4.2-5.6-5.8-9.5-3.6-3.4,1.9-6.1,4.6-8.2,8-5.9,9.2-8.2,18.8-4.2,29.7-.5,0-1.2.3-1.8.5-3.9,1.3-7.9,2.2-11.7,3.9-12.4,5.6-22.4,14.6-32.4,23.6-4.3,3.9-8.7,7.4-13.9,10-4.8,2.4-9.7,1.7-12.7-1.9-3.1-3.7-2.9-8.2-2.1-12.5,1.4-7.6,4.3-14.8,8.5-21.4.7-1.1,1.3-1.8,2.8-2.1,1.2-.2,2.6-1.1,3.3-2.1,2.6-3.3,3.9-7.2,4.8-11.3,0-.5,0-1.1-.2-1.6h-.6c-.3.8-.6,1.6-.9,2.3-.4.8-.8,1.7-1.3,2.5-1.6,2.3-4.6,2.2-6.1-.2-2.2-3.7-3-7.8-1.9-11.8,1.7-6.7,4.1-13.2,6.1-19.8.3-1.1.5-2.1.8-3.2-.2,0-.4-.2-.6-.2-.4.7-1,1.4-1.3,2.1-1.1,2.4-2.2,4.9-3.2,7.4-3.2,8.1-6.5,16.1-6.1,25.1.2,3.8,1,7.3,3.5,10.3-.4.6-.8,1.2-1.2,1.8-5.6,8.8-9.8,18.1-9.3,28.9.3,5.6,2.6,10.4,6.8,14.1,5.2,4.5,12.1,5,17.8.8,6.2-4.6,12.1-9.8,18-14.8,6.6-5.6,13.3-11,21.2-14.7,9.6-4.5,19.5-6.9,29.9-3.1h0v-.3Z"/>
          <path class="cls-1" d="M416.7,41.9c-1.4-4.6-3-9.2-4.6-13.7-1.3-3.6-2.8-7.1-4.2-10.8-.4.4-.8.5-.8.7-1.2,4.4-4.8,8.4-2.5,13.5.2.4.2.8.2,1.3.2,6.3.2,12.7.5,19,.3,6.5.9,12.9,1.2,19.3.3,5.4.3,10.8.5,16.2,0,2.4.3,4.8.4,7.2.6,8.7,1.3,17.4,1.6,26.1.2,5.2-.2,10.5-.4,15.7,0,2.2-.3,4.4-.4,6.5,0,.5.2,1,.4,2,.5-.8.9-1.1,1-1.5,1.5-4.4,3.1-8.8,4.2-13.4,1.7-7,1.6-14.2,1.3-21.3-.4-10.2-1.2-20.5-1.8-30.7-.2-2.7-.3-5.4-.5-8.1-.5-8.6-1.1-17.2-1.6-25.7,0-1.3.1-2.6.3-4.1,1.5,2,3,3.8,4.5,5.7.2,0,.5,0,.7-.2,0-1.3.1-2.7-.2-3.9h0l.2.2Z"/>
          <path class="cls-1" d="M246.7,31.4c.4,6.8.5,13.6.9,20.3.6,11.2,1.4,22.4,2.2,33.5.6,8.6,1.4,17.1,1.7,25.7.2,8.2-.2,16.5-.2,24.8s.3,1.8.4,2.7c1.1-1,1.8-1.9,2.1-3,2.4-6.9,3.9-14,3.8-21.2-.1-11.4-.8-22.7-1.2-34.1-.1-2.5-.4-4.9-.6-7.4-.5-5.7-1-11.4-1.6-17.1-.2-2.5-.7-5-.8-7.6-.1-4,0-8.1,0-12.7,1.7,1.9,3,3.4,4.4,5,.2,0,.5-.2.7-.3,0-1.2.1-2.4-.3-3.5-1.9-5.5-3.9-11-6-16.5-.9-2.4-1.9-4.8-2.9-7.2-.2,0-.4,0-.6.1-1.1,2.7-2.2,5.4-3.1,8.2-.4,1.1-.2,2.4,0,3.5.3,2.2,1.1,4.4,1.2,6.5h0v.3Z"/>
          <path class="cls-1" d="M314.6,49.1c.2-1.2.6-2,.4-2.7-2.9-8.7-5.8-17.3-8.8-26-.3,0-.6.1-.9.1-.6,1.6-1.2,3.2-2,4.7-1.5,3.2-2.1,6.4-.8,9.8.2.5.3,1.1.4,1.7.3,5.8.5,11.6.9,17.4.4,6.8.9,13.6,1.3,20.4.6,8.4,1.3,16.8,1.7,25.2.4,7.6.8,15.1.8,22.7s-.5,14-.8,20.9c0,.6.4,1.2.6,1.9.5-.4.7-.5.8-.7,3.2-6.8,5.2-14,5.4-21.5.2-8.2,0-16.3-.4-24.5-.5-9.5-1.4-19-2.1-28.5-.6-7.8-1.2-15.7-1.8-23.5v-3.4c1.9,2.1,3.3,3.7,5.1,5.8h0l.2.2Z"/>
          <path class="cls-1" d="M55,57.2c1.1.8,2.3,2.3,4,.4,3.8,3.8,4.7,8.8,6.4,13.4-2.6,1.6-4.2,5.4-3.7,7.9,1.2-.8,2.4-1.9,3.8-2.5.5-.2,1.6,1,2.7,1.9-1.2.5-1.8.8-2.4.9-3,.7-4.8,2.5-5.9,5.4-1.3,3.8-.2,7.3.5,10.9,1,5.3,2.3,10.6,3.2,15.9.5,3.1.5,6.3.7,9.9,1.8-4.5,1.9-12.5.4-18.6-1.1-4.5-2.3-8.9-3.6-13.4-.5-1.7,0-3.2,1.5-3.9,2.4-1,5-1.9,7.6-2.2,3-.4,5.2-2.4,4.8-5.5,0-.5-.2-1-.6-1.3-2.6-2.1-5.3-4.1-8-6.2.3-.9.8-2.2,1.1-3.5.8-4,1.3-8.1,2.3-12.1.3-1.4,1.2-3.1,2.3-3.8,1.5-.9,2.8.6,3.8,1.8,0,0,.4.2.8.3.3-1.2.9-2.4.9-3.6,0-2.1-1.3-3.5-3-4.2-1.5-.7-2.6.4-3.6,1.7-2,2.7-2.5,5.8-3,8.9-.4,2.5-.8,4.9-1.2,7.4-1.4-2.1-2.1-4.2-3.2-6.1-1.5-2.5-3-5-5-7-2.3-2.2-3.7-1.5-4.7,1.5-.2.5-.5,1-.7,1.6-.8,2,.5,3,1.8,4h0Z"/>
          <path class="cls-1" d="M360.2,33.3c1,.6,1.9,1.3,3.1,2.1-9.6,10.3-21.8,17.2-32.5,25.9.6-.2,1.2-.3,1.8-.6,5.6-3,11.4-5.7,16.8-9,5.2-3.1,9.5-7.3,13.1-12.1,2.9-3.8,3.4-4,6.4,0,0,0,.2,0,.4,0h0c2.2-3.4,2.2-5.7-.2-7.6-1.3-1-1.2-1.9-1-3.3.4-2.7.8-5.4.6-8.1-.2-2.6-2.6-3.6-4.9-2.3-2.9,1.6-4.9,4-6,7.1-1.4,3.9-1,5.4,2.5,7.7h0ZM360.5,25.3h0c.8-.8,1.8-1.5,2.8-1.8.5-.1,1.7.4,1.8.9,0,.1,0,.3.1.5.1.4.2.9.2,1.3v.6c0,.6.1,1.2.2,1.8v.6l-4.9-2.3h0c0-.1-.1-.3-.1-.4v-.7h0v-.4h-.1Z"/>
          <path class="cls-1" d="M364.9,70.5c-1.2,2.1-2.5,4.2-3.8,6.4-2.8-2.1-5.5-4-8-6.1-1.3-1.1-2-.5-2.6.5-1.5,2.4-2.9,5-4.5,7.7,3.3,2.6,6.6,5.1,10.1,7.8,1.7-2.9,3.2-5.4,4.8-8.1.9.5,1.6.9,2.3,1.4,1.9,1.4,3.8,2.8,5.5,4.2,1.4,1.2,2.3.8,3.1-.6,1.1-2,2.1-4,3.2-5.9.7-1.1.5-1.8-.5-2.6-2.3-1.8-4.6-3.6-6.9-5.4-1.2-.9-2.1-.7-2.8.6h0Z"/>
          <path class="cls-1" d="M482.3,50.9c14.5-6.2,28.9-12.4,43.5-18.4,2.5-1,3.6-2.6,4.2-5.2-.8.3-1.5.4-2.1.7-3.8,1.5-7.7,2.9-11.5,4.5-16.3,7-32.5,14.1-48.8,21-2.8,1.2-3.6,3.4-4.7,6.6,1.2-.5,1.8-.8,2.5-1.1,5.6-2.7,11.2-5.5,16.9-8h0Z"/>
          <path class="cls-1" d="M500.6,54.2c-.8,1.3-1.6,2.6-2.3,4-1.5,2.9-1.8,3-4.4.9-2.1-1.7-4.4-3.2-6.8-5-1.8,3.3-3.5,6.3-5.2,9.5,3.4,2.4,6.7,4.8,10.2,7.2,1.6-2.8,3-5.2,4.6-7.9.9.7,1.6,1.2,2.3,1.6,2.1,1.5,4.1,3,6.2,4.3.4.2,1.5,0,1.7-.3,1.4-2.4,2.7-4.8,3.9-7.2.2-.5,0-1.7-.4-2-2.8-2.2-5.8-4.2-8.7-6.3-.5.5-.9.8-1.1,1.2h0Z"/>
          <path class="cls-1" d="M113.1,41.9c0,.3.2.5.3.8-5.3,3.2-10.6,6.4-15.9,9.5,0,.2.2.4.3.6,1.8-.5,3.7-1,5.4-1.6,4.5-1.6,9.5-2.5,12.2-7.2,1.4-2.3,2.8-4.5,4.2-6.8,1.4-2.3.9-4-1.7-4.3-3.9-.5-7.8-.9-11.7-.8-2,0-4.7.6-5.9,2-2.1,2.2-3.2,5.2-4.7,7.9.2.2.4.3.6.5,5.7-1.8,11.3-1.7,17-.5h-.1Z"/>
          <path class="cls-1" d="M112.1,139.7c-1.5,2.6-2.8,4.9-4.3,7.4-2.9-1.9-5.7-3.8-8.7-5.8-1.6,2.9-3.2,5.7-4.9,8.7,2.8,1.8,5.5,3.5,8.1,5.3,1.3.9,1.9.5,2.5-.7.9-1.8,2-3.6,3.1-5.7,2.9,1.8,5.6,3.6,8.5,5.5,1.3-2.1,2.6-4.3,4.1-6.4.9-1.4.6-2.3-.6-3.1-2.5-1.7-5-3.3-7.8-5.1h0Z"/>
          <path class="cls-1" d="M523.4,74.6c8-3.5,15.8-7.1,23.7-10.4,9.6-4,19.2-7.9,28.9-11.6,2.8-1,4-2.9,4.9-5.3-.2,0-.4-.2-.5,0-8,3.1-16,6.2-23.9,9.4-9.4,3.8-18.8,7.9-28.2,11.8-2.9,1.2-4,3.7-5,6.2h0Z"/>
          <path class="cls-1" d="M169.5,67.8c-3.9-.8-7.7-2.3-11.7-3.6,1.5,2.6,2.4,5.5,6,6,4.5.6,9,1.5,13.5,2,1.7.2,3.9.3,5-.6,1.3-1,2.2-3.2,2.2-4.9s-1.5-3.6-3.6-4.1c-3.1-.8-6.3-1.4-9.4-2.2-1.4-.4-2.6-1.2-4.1-1.8,3.6-3.6,9.4-4.9,12.3-2.9.2-.3.5-.6.6-.8.4-.9.7-1.8,1-2.7-1-.3-2-.9-3-.8-4.1.2-7.5,2-10.4,4.8-4.2,4.1-3.8,6.1,2,7.8,2.8.8,5.8,1.1,8.6,1.9,1.3.4,2.3,1.5,3.5,2.3-.1.3-.3.6-.4.8-4-.4-8.1-.4-12-1.2h-.1Z"/>
          <path class="cls-1" d="M419.9,54.8c10.4-4.3,19.7-9.8,26.1-19.8,1.3,1,2.3,2,3.4,2.8,2.1-3.2,1.9-4.7-.6-7.1-.5-.4-.5-1.5-.5-2.2.2-2.1.8-4.3.6-6.4,0-1.2-1.1-2.7-2.1-3.4-.6-.4-2.3.4-3.2.9-2.4,1.4-3.8,3.6-4.7,6.3-.7,2.1-.4,3.7,1.3,5.1,1.2,1,2.6,1.9,4.1,3-7,8.4-16.4,13.8-24.4,20.8h0ZM441,25.6c1.3-1.7,2.3-3,4.2-2.2h.3c.1,0,.2.1.3.2h0v.2s.1.1.1.2c0,.2.2.4.2.6v1.4c0,1-.2,2-.8,3-1.6-1.1-3.1-2.3-4.7-3.5h.4Z"/>
          <path class="cls-1" d="M137.3,171.9c-3.1,1.4-4.5,3.6-5.3,7.1,4.1-2.1,7.8-4.2,11.5-6,10.8-5.1,21.6-10,32.5-14.9,2.2-1,2.5-2.9,3.9-5.1-3.3,1.3-6,2.3-8.6,3.5-11.3,5.1-22.6,10.4-33.9,15.4h0Z"/>
          <path class="cls-1" d="M277.8,36c1,.8,2.1,1.4,3.3,2.2-6.4,8.1-15.4,13-22.8,19.6,9.9-4,18.3-9.9,24.6-18.9,1.2,1.1,2.2,2,3.2,3,2.1-3.9,2.1-4-.8-7.1-.3-.4-.3-1.1-.3-1.7,0-2.3.4-4.6.3-6.9,0-2.2-2-3.2-4.1-2.3-2.9,1.3-4.3,3.7-5.2,6.6-.8,2.4-.3,4,1.8,5.5h0ZM278.4,29.5c.2-.1.4-.3.6-.4.2-.2.5-.4.8-.5h.2c.1,0,.2-.1.3-.2.2-.1.4-.2.7-.2s.6.1,1,.4h.3c0,.1,0,.2.1.2s0,.1.1.1v.2c.3,1.2.2,2.5.3,4.3-1.5-1-2.5-1.5-3.4-2.3l-.2-.2-.2-.2c-.1-.1-.2-.3-.3-.5,0-.2-.2-.3-.3-.5,0,0,0-.2-.1-.2,0,0,0-.2-.1-.2h0l.2.2Z"/>
          <path class="cls-1" d="M574,150.1c-1-.8-2.2-1.2-3.1-.2-1.7,1.8-3.3,3.8-4.6,5.9-1.6,2.5-3.4,4.7-5.9,6.5-8,5.7-17,9.1-25.8,13.1,0,.2,0,.4.2.6,4-1,8.1-1.9,12.1-3,8.6-2.5,16.1-6.5,19.8-15.3,2,1,3.8,2.1,5.7,2.9.8.3,2.4.2,2.9-.4,2-2.3,1.2-8.1-1.2-10h-.1ZM573.2,156.5c-.6-.4-1.1-.7-1.6-1-.2-.1-.3-.2-.5-.3s-.4-.3-.7-.4c-.3-.2-.6-.4-.9-.5.8-.3,1.5-.4,2-.4h.5c0,0,.2,0,.3.1h0s0,0,.2.1h0c0,.2.2.3.2.4v.4c0,.2.2.4.2.6v.2c0,.2,0,.3,0,.5v.5h0c-.2-.1-.4-.2-.6-.4h0l.7.2Z"/>
          <path class="cls-1" d="M534.5,100.4c1.2-.3,2.3-.7,3.5-.9,6.9-1.3,11.7-5.3,14.8-11.5,1.4-2.8.8-3.9-2.3-4.3-1.6-.2-3.1-.7-4.7-.7-3.4,0-7.3-1.1-9.7,2.7-1,1.7-1.9,3.4-3,5.3,5.2-.4,9.8-.8,14.2.5,0,.2,0,.5.2.7-4.4,2.6-8.9,5.2-13.3,7.8,0,.2,0,.3.2.5h0Z"/>
          <path class="cls-1" d="M292.5,19.2c.1-1.9.3-3.7.4-5.4,2.4.6,4.8,1.5,7.2,1.8,7.2.8,13.9-.9,20.1-4.7,1.1-.7,2.5-.8,3.8-1.1.1.2.2.5.4.8-1.6,2.4-3.3,4.9-5,7.3.2.2.4.3.6.5.5-.6,1-1.2,1.5-1.9,1.7-2.4,3.5-4.8,4.9-7.3.4-.6,0-2-.4-2.7-.2-.4-1.6-.2-2.3,0-1.4.4-2.7,1.1-4,1.7-4.2,2.1-8.6,3.8-13.4,4-6.6.3-12.5-1.4-17.3-6-1.3,1.9-1.8,3.5-.4,5.6,1.4,2.1,2.3,4.6,3.7,7.5h.2Z"/>
          <path class="cls-1" d="M324.2,110.2c1.8-.5,3.6-1.1,5.4-1.4,6.7-1.1,10-6.1,13.1-11.3.8-1.4.1-2.8-1.4-3.1-3.2-.4-6.5-.8-9.7-.9-3.8,0-8,4.2-8.3,8.3,4.5-1.3,9-1.2,13.6.5-4.3,2.4-8.5,4.9-12.8,7.3l.2.6h-.1Z"/>
          <path class="cls-1" d="M396.1,159.4c-1.5-.8-2.8.6-3.4,1.9-.8,1.5-1.5,3-1.8,4.6-.7,3.4-1.2,6.9-1.8,10.4h-.5c-.1-.3-.2-.6-.4-.9-1.6-3.3-3-6.7-5-9.8-.8-1.3-2.7-1.9-4.1-2.9-.7,1.1-1.4,2.2-2.1,3.3,0,.1-.2.2-.2.4-1,2.4,1.2,5.6,3.7,5,1.5-.4,2.2.2,2.7,1.3,1.3,2.9,2.5,6,3.7,9,.4.9.5,1.8.8,2.7h.9c.8-3.1,1.6-6.2,2.2-9.4.6-2.8.8-5.7,1.4-8.6.5-2.4,2.5-2.8,4.4-1,.5.5,1,.9,1.9,1.8.2-1.8.9-3.2.5-4.2-.5-1.3-1.6-2.8-2.9-3.4h0v-.2Z"/>
          <path class="cls-1" d="M270.4,65.3c-1.5,2.5-3,5.2-4.2,7.8-.2.5,0,1.8.5,2.1,3,2.1,6.2,4,9.7,6.2,1.5-2.6,3-5.1,4.2-7.7.4-.8.2-2.4-.3-2.9-2.5-2.1-5.3-4.1-8-5.9-.4-.2-1.6,0-1.8.5h-.1Z"/>
          <path class="cls-1" d="M355.2,159.5c-1.5-.8-2.8.5-3.2,1.8-1,2.6-1.8,5.3-2.4,8-.5,2.4-.6,4.9-1,7.3h-.6c-.2-.7-.5-1.4-.8-2.2-1.4-3.9-3.1-7.6-6.2-10.6-2.1-2-3.1-1.8-4,1-.2.5-.5.9-.7,1.4-.9,1.7-.3,3.1,1.1,3.9,1.3.7,2.8.8,4.9,1.4,1.4,3.5,3.2,7.8,4.9,12.1.5-1.1,1.4-2.3,1.6-3.5.7-3.8,1.1-7.6,1.9-11.3.4-1.6,1.2-3.7,2.4-4.4,1.8-1,2.7,1.3,3.6,2.6,0,0,.1,0,.8.4.2-1.7.9-3.2.4-4.4-.5-1.3-1.7-2.7-2.9-3.4h.2Z"/>
          <path class="cls-1" d="M143.4,102.1c-1.5-.8-2.8.5-3.2,1.8-1,2.6-1.8,5.3-2.4,8-.5,2.4-.6,4.9-1,7.3h-.6c-.2-.7-.5-1.4-.8-2.2-1.4-3.9-3.1-7.6-6.2-10.6-2.1-2-3.1-1.8-4,1-.2.5-.5.9-.7,1.4-.9,1.7-.3,3.1,1.1,3.9,1.3.7,2.8.8,4.9,1.4,1.4,3.5,3.2,7.8,4.9,12.1.5-1.1,1.4-2.3,1.6-3.5.7-3.8,1.1-7.6,1.9-11.3.4-1.6,1.2-3.7,2.4-4.4,1.8-1,2.7,1.3,3.6,2.6,0,0,.1,0,.8.4.2-1.7.9-3.2.4-4.4-.5-1.3-1.7-2.7-2.9-3.4h.2Z"/>
          <path class="cls-1" d="M577.4,69.7c-.7,1.3-1.4,2.7-1.8,4.2-.8,3.6-1.3,7.2-2,10.8-2.2-5.4-4-10.9-9.8-13.7-2.2,2.7-2.9,5.1-1.9,6.5,1.3,1.7,3.2,2.4,4.7,1.6,3.3,3.3,3.7,8.1,5.7,12.4.4-.6.8-.8.9-1.2.8-2.8,1.6-5.5,2.2-8.3.6-2.4.7-5,1.4-7.4.9-2.7,2.7-2.8,4.4-.6.3.4.7.9,1.2,1.6.5-1.2,1.2-2.2,1.2-3.2,0-1.9-.7-3.4-2.5-4.1-1.7-.7-3,0-3.8,1.5h0Z"/>
          <path class="cls-1" d="M322.6,29.9c-1,2.5,1.1,5.2,3.7,5,.6,0,1.5.2,1.9.7.8,1.1,1.4,2.3,1.9,3.6.9,2.3,1.8,4.7,2.9,7.6.7-1.3,1.3-2.1,1.5-3,.8-3.7,1.4-7.4,2.3-11,.4-1.6,1.5-3,2.2-4.4,1.4.8,2.7,1.5,4.2,2.3.1-.6.5-1.6.6-2.7.2-2-.9-3.4-2.7-4-1.8-.6-2.9.6-3.6,2-.6,1.1-1.3,2.3-1.5,3.5-.7,3.4-1.3,6.8-2,10.6-1.2-2.8-2.1-5.5-3.5-7.9-1-1.8-2.6-3.3-4.1-4.8-1.5-1.4-2.6-.6-3.7,2.3h0v.2Z"/>
          <path class="cls-1" d="M447.9,171.5c2,0,4.1-.3,5.9-1.1,2.6-1.1,4.9-2.7,6.4-4.8-3.2.8-6.5,1.7-9.8,2.3-1.5.2-3.1-.3-4.6-.8-1.2-.4-1.8-1.5-.7-2.8,2-2.3,3.8-4.8,6-6.8,2.1-1.9,3.2-3.5,3-5.9-5.4,4.9-6.5,4-8.9,1.4,1.2-2.5,1.7-2.7,4.1-1.8,1.3-1,1.6-2.3.7-3.6-1.2-1.6-2.4-.3-3.3.5-1.1,1-2.2,2.2-2.9,3.4-2.1,3.4-2.2,5.6,1.9,7.1.1,0,.2.2.2.2-.9,2.1-1.8,4-2.5,6-1.4,3.9.5,6.6,4.6,6.4h0v.3Z"/>
          <path class="cls-1" d="M70.5,150.6c-.3.1-.6.3-.7.5-1.1,1.7-2.1,3.5-3.1,5.2.2.1.5.3.7.4,2.5-2.4,3.1-2.5,4.8-.7-5.9,1-7.1,5.9-6,10.5,1,4.4,2,8.9,2.8,13.4.4,2.3.4,4.7.6,7,.7-1.5,1-3.1,1.1-4.7.4-6-1.4-11.6-3.1-17.2-.7-2.5,0-3.8,2.5-4.4.9-.2,1.8-.3,2.8-.5,1.2-.3,2.8-.2,3.6-1,1.1-1,1.9-2.7.8-4.3-1.6-2.5-5.3-4.8-6.8-4.2h0Z"/>
          <path class="cls-1" d="M471.6,39.3c3.7-.5,6.6-3.3,7.3-7.4.7-3.6-.7-5.9-4.6-7.9-.1,0-.3-.1-.4-.1-1.1-.4-1.4-1.1-.9-2.2s.8-2.2,1.3-3.3c-.2,0-.4-.1-.5-.2-.3.2-.6.4-.8.7-3,4.8-4.9,10-5.7,15.5-.4,2.7,2.1,5.2,4.4,4.9h0ZM469.7,31v-.3c0-.2,0-.4.1-.6v-.6c0-.2.1-.4.2-.6h0c0-.2.1-.4.2-.6,0-.2.2-.4.3-.6,0-.1,0-.2.1-.3h0c.3.2.5.3.8.5.5.3,1,.7,1.5,1s1,.7,1.6,1c.5.4,1.1.7,1.6,1.1.3.2.5.4.8.5-2.4,2.6-4.9,3.4-6.5,2.3-.3-.2-.5-.4-.6-.6-.1-.2-.2-.3-.3-.5-.2-.5-.2-1.1,0-1.8h.2Z"/>
          <path class="cls-1" d="M243.8,188.9c-1.9.9-2.5,2.6-2.8,4.3,7.4-3.2,14.7-6.6,22.1-9.6,2.4-1,3.6-2.4,4.4-5.1-2.3,1-4.3,1.9-6.2,2.8-5.8,2.5-11.6,5.1-17.4,7.6h0Z"/>
          <path class="cls-1" d="M191.3,171.4c-.5.7-1.3,1.8-1.9,1.8s-2-.8-2.3-1.6c-.6-1.3-1.2-3-1-4.3.8-4.4,2.1-8.7,3.1-13,.2-.8.3-1.5.4-2.3-.3,0-.6-.1-.9-.2-1.7,5.6-3.8,11.1-5,16.8-.5,2.4.2,5.2.9,7.6.6,2.2,2.8,2.8,4.6,1.9,1.7-.9,4-6.6,3.5-9.2-.5,1.1-.8,1.9-1.3,2.6h-.1Z"/>
          <path class="cls-1" d="M331.4,69.7c-.5.9-1.2,1.8-1.5,2.8-1.1,3.3-2.3,6.6-3.2,10-.4,1.4.3,2.9,2,3.4,2.5.6,5-.8,6.3-3.3,1.4-2.8,1.3-5.3-.9-6.8-2.2-1.6-4.1-2.9-1.8-6.1h-.9ZM331.6,78.4c.2,0,.3.2.5.3.2.2.4.3.6.4.3.2.5.4.8.6h0s0,.2.1.3v.4c0,0,0,0,0,0v.2h0c-.6.3-1.3.7-2,.9-.2,0-.3,0-.5.2h-.4c0,0-.1.2-.2.2h-1.8s-.2,0-.2,0-.1,0-.2-.2h0v-.2h0v-.3h0v-1.5c0-.2.1-.4.2-.6,0,0,0,0,.1-.2,0,0,0-.2.1-.3.1-.2.2-.5.3-.7,0-.2.1-.3.2-.5,0,0,0-.2.1-.2h0c.2,0,.4.2.5.4.5.4,1,.7,1.5,1.1h0l.3-.2Z"/>
          <path class="cls-1" d="M546.1,50.6c1.9-1.1,3.8-5.8,3.2-8.5-.4.8-.7,1.5-1.1,2-.7.8-1.7,2.2-2.2,2.1-1-.3-1.9-1.4-2.6-2.4-.3-.4-.4-1.1-.3-1.6.8-3.6,1.7-7.1,2.6-10.7.4-1.6,1-3.1,1.7-5.1-.8.4-1,.4-1.1.5-1.8,5.1-3.8,10.1-5.3,15.3-.7,2.3-.7,4.9.7,7.1.9,1.4,3,2,4.3,1.3h0Z"/>
          <path class="cls-1" d="M207.8,65.8c.1-.6.3-1.2.4-1.9-.3,0-.7-.2-1-.3-1.6,4.9-3.4,9.7-4.7,14.7-.6,2.3-.2,5,.4,7.3.8,2.9,3.7,3.3,5.5.9,1.5-2,2.5-4.3,2.1-7-.5.6-.8,1.3-1.3,1.9-.6.7-1.6,1.8-2.1,1.7-.9-.2-1.6-1.2-2.2-2.1-.4-.6-.5-1.4-.4-2.1,1-4.4,2.1-8.8,3.1-13.2h.2Z"/>
          <path class="cls-1" d="M38,179.1c5.4-2.4,10.7-4.7,16-6.9,2.1-.9,3.1-2.4,4-4.9-6,2.6-11.4,4.9-16.9,7.2-2.2.9-3,2.4-3.1,4.7h0Z"/>
          <path class="cls-1" d="M143.8,37.6c1.8-1,3.5-5.2,2.9-7.4-.3.6-.4,1.2-.8,1.6-.6.7-1.7,1.9-2.1,1.7-.9-.5-2-1.4-2.1-2.4-.3-1.7-.3-3.6.1-5.3.8-3.2,2.1-6.3,3.1-9.4l-.7-.2c-1.4,3.3-3,6.5-4,10-.8,2.6-1.1,5.4-1.2,8.1,0,2.8,2.6,4.5,4.6,3.4h.2Z"/>
          <path class="cls-1" d="M513.5,133.3c-.3,0-.6-.2-.9-.2-1.2,3.7-2.8,7.4-3.6,11.2-.5,2.4-.3,5.2,0,7.7.1.9,1.7,2,2.8,2.3.6.2,2-.8,2.4-1.6.8-1.7,1.3-3.6,1.9-5.4-.2,0-.4-.1-.6-.2-.3.7-.7,1.4-1,2-.9,1.6-1.8,1.7-3,.3-.4-.5-.9-1.3-.8-1.9.1-2.4.2-4.8.7-7.2s1.4-4.6,2.1-7h0Z"/>
          <path class="cls-1" d="M292.5,65.8c.9-1.3,1.3-3,1.9-4.4-.2,0-.3-.2-.5-.2-.2.3-.4.7-.7,1-.6.5-1.4,1.5-1.8,1.4-.8-.2-1.7-1.1-1.8-1.8-.2-1.3-.1-2.8.2-4,.7-2.8,1.7-5.5,2.5-8.3-.2,0-.4,0-.6-.2-1.5,4.1-3.8,8-4,12.5,0,1.3.3,2.7.8,3.9.9,2,2.9,2.1,4,.3h0v-.2Z"/>
          <path class="cls-1" d="M446.9,49.8c.3-1.1.6-2.2,1-3.3-2.5,4-3.9,8.2-4.3,12.8-.1,1,.4,2.1.8,3.1.6,1.4,2.5,1.7,3.4.5,1-1.5,1.7-3.2,2.5-4.8-.2,0-.4-.2-.6-.3-.2.2-.3.5-.5.8-.6.6-1.3,1.2-1.9,1.9-.5-.8-1.4-1.5-1.5-2.3-.1-1.6,0-3.3.3-4.9.2-1.2.7-2.3,1-3.5h-.2Z"/>
        </g>
        <path class="cls-1" d="M242.3,133.1c-1.5-.8-2.8.5-3.2,1.8-1,2.6-1.8,5.3-2.4,8-.5,2.4-.6,4.9-1,7.3h-.6c-.2-.7-.5-1.4-.8-2.2-1.4-3.9-3.1-7.6-6.2-10.6-2.1-2-3.1-1.8-4,1-.2.5-.5.9-.7,1.4-.9,1.7-.3,3.1,1.1,3.9,1.3.7,2.8.8,4.9,1.4,1.4,3.5,3.2,7.8,4.9,12.1.5-1.1,1.4-2.3,1.6-3.5.7-3.8,1.1-7.6,1.9-11.3.4-1.6,1.2-3.7,2.4-4.4,1.8-1,2.7,1.3,3.6,2.6,0,0,.1,0,.8.4.2-1.7.9-3.2.4-4.4-.5-1.3-1.7-2.7-2.9-3.4h.2Z"/>
      </g>
    </g>
  </g>
</svg>