<?xml version="1.0" encoding="UTF-8"?>
<svg xmlns="http://www.w3.org/2000/svg" version="1.1" xmlns:xlink="http://www.w3.org/1999/xlink" viewBox="0 0 458.04 162.38">
  <defs>
    <style>
      .cls-1 {
        fill: url(#linear-gradient-15);
      }

      .cls-2 {
        fill: url(#linear-gradient-13);
      }

      .cls-3 {
        fill: url(#linear-gradient-28);
      }

      .cls-4 {
        fill: url(#linear-gradient-2);
      }

      .cls-5 {
        fill: url(#linear-gradient-25);
      }

      .cls-6 {
        fill: url(#linear-gradient-10);
      }

      .cls-7 {
        fill: url(#linear-gradient-12);
      }

      .cls-8 {
        fill: url(#linear-gradient-27);
      }

      .cls-9 {
        fill: url(#linear-gradient-26);
      }

      .cls-10 {
        fill: url(#linear-gradient-4);
      }

      .cls-11 {
        fill: url(#linear-gradient-30);
      }

      .cls-12 {
        fill: url(#linear-gradient-3);
      }

      .cls-13 {
        fill: url(#linear-gradient-5);
      }

      .cls-14 {
        fill: url(#linear-gradient-22);
      }

      .cls-15 {
        fill: url(#linear-gradient-24);
      }

      .cls-16 {
        fill: url(#linear-gradient-33);
      }

      .cls-17 {
        fill: url(#linear-gradient-8);
      }

      .cls-18 {
        fill: url(#linear-gradient-14);
      }

      .cls-19 {
        fill: url(#linear-gradient-29);
      }

      .cls-20 {
        fill: url(#linear-gradient-20);
      }

      .cls-21 {
        fill: url(#linear-gradient-17);
      }

      .cls-22 {
        fill: url(#linear-gradient-7);
      }

      .cls-23 {
        fill: url(#linear-gradient-9);
      }

      .cls-24 {
        fill: url(#linear-gradient-11);
      }

      .cls-25 {
        fill: url(#linear-gradient-19);
      }

      .cls-26 {
        fill: url(#linear-gradient-6);
      }

      .cls-27 {
        fill: url(#linear-gradient-21);
      }

      .cls-28 {
        fill: url(#linear-gradient-32);
      }

      .cls-29 {
        fill: url(#linear-gradient-16);
      }

      .cls-30 {
        fill: url(#linear-gradient);
      }

      .cls-31 {
        fill: url(#linear-gradient-23);
      }

      .cls-32 {
        fill: url(#linear-gradient-31);
      }

      .cls-33 {
        fill: url(#linear-gradient-18);
      }
    </style>
    <linearGradient id="linear-gradient" x1="169.28" y1="8.57" x2="169.28" y2="150.33" gradientUnits="userSpaceOnUse">
      <stop offset="0" stop-color="#179f9a"/>
      <stop offset="1" stop-color="#0f766e"/>
    </linearGradient>
    <linearGradient id="linear-gradient-2" x1="385.03" y1="8.57" x2="385.03" y2="150.33" xlink:href="#linear-gradient"/>
    <linearGradient id="linear-gradient-3" x1="39.71" y1="8.57" x2="39.71" y2="150.33" xlink:href="#linear-gradient"/>
    <linearGradient id="linear-gradient-4" x1="168.47" x2="168.47" xlink:href="#linear-gradient"/>
    <linearGradient id="linear-gradient-5" x1="302.64" y1="8.57" x2="302.64" y2="150.33" xlink:href="#linear-gradient"/>
    <linearGradient id="linear-gradient-6" x1="228.07" y1="8.57" x2="228.07" y2="150.33" xlink:href="#linear-gradient"/>
    <linearGradient id="linear-gradient-7" x1="71.19" y1="8.57" x2="71.19" y2="150.33" xlink:href="#linear-gradient"/>
    <linearGradient id="linear-gradient-8" x1="424.55" y1="8.57" x2="424.55" y2="150.33" xlink:href="#linear-gradient"/>
    <linearGradient id="linear-gradient-9" x1="25.43" y1="8.57" x2="25.43" y2="150.33" xlink:href="#linear-gradient"/>
    <linearGradient id="linear-gradient-10" x1="109.39" y1="8.57" x2="109.39" y2="150.33" xlink:href="#linear-gradient"/>
    <linearGradient id="linear-gradient-11" x1="224.71" y1="8.57" x2="224.71" y2="150.33" xlink:href="#linear-gradient"/>
    <linearGradient id="linear-gradient-12" x1="370.3" y1="8.57" x2="370.3" y2="150.33" xlink:href="#linear-gradient"/>
    <linearGradient id="linear-gradient-13" x1="261.84" y1="8.57" x2="261.84" y2="150.33" xlink:href="#linear-gradient"/>
    <linearGradient id="linear-gradient-14" x1="405.07" y1="8.57" x2="405.07" y2="150.33" xlink:href="#linear-gradient"/>
    <linearGradient id="linear-gradient-15" x1="345.89" y1="8.57" x2="345.89" y2="150.33" xlink:href="#linear-gradient"/>
    <linearGradient id="linear-gradient-16" x1="100.2" y1="8.57" x2="100.2" y2="150.33" xlink:href="#linear-gradient"/>
    <linearGradient id="linear-gradient-17" x1="255.1" y1="8.57" x2="255.1" y2="150.33" xlink:href="#linear-gradient"/>
    <linearGradient id="linear-gradient-18" x1="189.59" y1="8.57" x2="189.59" y2="150.33" xlink:href="#linear-gradient"/>
    <linearGradient id="linear-gradient-19" x1="39.6" y1="8.57" x2="39.6" y2="150.33" xlink:href="#linear-gradient"/>
    <linearGradient id="linear-gradient-20" x1="133.46" y1="8.57" x2="133.46" y2="150.33" xlink:href="#linear-gradient"/>
    <linearGradient id="linear-gradient-21" x1="35.06" y1="8.57" x2="35.06" y2="150.33" xlink:href="#linear-gradient"/>
    <linearGradient id="linear-gradient-22" x1="289.18" y1="8.57" x2="289.18" y2="150.33" xlink:href="#linear-gradient"/>
    <linearGradient id="linear-gradient-23" x1="386.13" y1="8.57" x2="386.13" y2="150.33" xlink:href="#linear-gradient"/>
    <linearGradient id="linear-gradient-24" x1="189.6" y1="8.57" x2="189.6" y2="150.33" xlink:href="#linear-gradient"/>
    <linearGradient id="linear-gradient-25" x1="85.21" y1="8.57" x2="85.21" y2="150.33" xlink:href="#linear-gradient"/>
    <linearGradient id="linear-gradient-26" x1="133.17" y1="8.57" x2="133.17" y2="150.33" xlink:href="#linear-gradient"/>
    <linearGradient id="linear-gradient-27" x1="53.86" y1="8.57" x2="53.86" y2="150.33" xlink:href="#linear-gradient"/>
    <linearGradient id="linear-gradient-28" x1="209.51" y1="8.57" x2="209.51" y2="150.33" xlink:href="#linear-gradient"/>
    <linearGradient id="linear-gradient-29" x1="243.36" y1="8.57" x2="243.36" y2="150.33" xlink:href="#linear-gradient"/>
    <linearGradient id="linear-gradient-30" x1="186.95" y1="8.57" x2="186.95" y2="150.33" xlink:href="#linear-gradient"/>
    <linearGradient id="linear-gradient-31" x1="249.5" y1="8.57" x2="249.5" y2="150.33" xlink:href="#linear-gradient"/>
    <linearGradient id="linear-gradient-32" x1="433.14" y1="8.57" x2="433.14" y2="150.33" xlink:href="#linear-gradient"/>
    <linearGradient id="linear-gradient-33" x1="331.28" y1="8.57" x2="331.28" y2="150.33" xlink:href="#linear-gradient"/>
  </defs>
  <!-- Generator: Adobe Illustrator 28.7.1, SVG Export Plug-In . SVG Version: 1.2.0 Build 142)  -->
  <g>
    <g id="Layer_1">
      <g>
        <g>
          <path class="cls-30" d="M290.01,81.78c-.34-5.1-.73-10.21-1.13-15.31-.32-4.15-.71-8.29-1.04-12.44-.43-5.44-.85-10.87-1.25-16.31-.03-.46.07-.92.1-1.37,1.12.4,2.05.73,2.92,1.04,1-1.27.98-2.52.61-3.82-1.78-6.35-4.13-12.48-6.82-18.5-.2-.46-.48-.9-.8-1.28-.76-.9-1.31-.86-2,.1-.16.23-.34.46-.44.72-.81,2.1-1.62,4.19-2.39,6.31-.32.87-.19,1.74.07,2.64.28.96.46,1.97.52,2.97.39,5.83.7,11.67,1.1,17.5.29,4.15.66,8.29,1.03,12.44.42,4.76.89,9.51,1.32,14.27.29,3.13.58,6.27.82,9.41.39,5.1.69,10.21,1.14,15.3.2,2.24-.87,3.54-2.76,4.29-3.13,1.25-6.4,1.76-9.76,1.36-1.57-.19-3.01-.77-4.08-1.92.91-1.19,1.89-2.22,2.57-3.41,2.92-5.12,3.88-10.62,2.87-16.44-.57-3.28-1.9-6.25-4.13-8.73-2.56-2.84-5.68-2.87-8.11.03-4.56,5.43-6.64,11.67-5.75,18.78.24,1.94.65,3.86.99,5.85-.23.16-.44.35-.68.46-3.12,1.42-6.29,2.74-9.35,4.28-3.26,1.64-6.53,3.31-9.58,5.3-5.67,3.69-10.21,8.62-14.21,14.05-2.51,3.4-5.18,6.66-8.36,9.47-1.42,1.26-3.03,2.14-4.89,2.54-2.66.57-5-.44-6.38-2.7-.94-1.54-1.14-3.26-1.27-5.01-.09-1.21.33-1.98,1.42-2.58,4.33-2.37,8.04-5.57,11.46-9.09,2.31-2.38,4.05-5.12,4.74-8.42.91-4.33,1.11-8.69.41-13.07-.44-2.75-1.44-5.3-2.53-7.84-.59-1.37-1.08-2.79-1.61-4.16,2.04-.94,2.33-1.78,1.41-3.51-.11-.2-.2-.41-.34-.58-2.13-2.69-4.21-5.42-6.41-8.05-1.21-1.45-2.25-1.25-2.78.53-.65,2.15-1.21,4.34-1.58,6.55-.16.93.16,1.98.46,2.92.45,1.44,1.09,2.82,1.62,4.24,1.39,3.74,2.72,7.5,4.17,11.21.65,1.67,1.48,3.28,2.28,4.89.85,1.72.48,3.13-.95,4.34-2.74,2.33-5.48,4.67-8.22,6.99-.19.16-.47.23-1.01.49.37-1.23.73-2.16.93-3.13.24-1.14.41-2.31.47-3.48.02-.35-.35-.99-.63-1.04-.4-.07-1.03.14-1.28.46-.61.79-1.2,1.66-1.56,2.58-.83,2.15-1.57,4.33-2.25,6.53-.22.71-.57,1.13-1.19,1.5-5.26,3.16-10.88,5.37-16.87,6.65-3.94.85-7.91,1.19-11.89.4-5.79-1.16-10.13-4.25-12.34-9.86-1.45-3.67-1.85-7.54-1.36-11.45.41-3.23,1.06-6.43,1.57-9.65.1-.62.01-1.27.01-1.95-.71-.07-1.24-.12-1.85-.17.08-.55.16-.99.21-1.43.29-2.4.81-4.8.81-7.19-.01-4.55-.19-9.11-.54-13.64-.59-7.62-1.39-15.23-2.05-22.84-.12-1.38-.02-2.77-.02-4.09,1.13-.82,1.82.37,2.69.44.82-.66,1.09-1.48.96-2.44-.11-.83-.24-1.67-.46-2.48-1.56-5.9-4.06-11.43-6.64-16.93-.07-.15-.17-.29-.25-.44-1.03-1.7-1.64-1.77-2.53-.06-.96,1.84-1.7,3.79-2.55,5.68-.56,1.26-.52,2.47.02,3.75.37.87.65,1.81.77,2.75.21,1.73.28,3.47.38,5.21.18,3.03.3,6.07.52,9.09.37,5.21.78,10.43,1.2,15.64.38,4.71.85,9.41,1.2,14.12.31,4.26.52,8.53.76,12.79.1,1.8-.69,3.09-2.19,4.08-2.61,1.72-5.47,2.57-8.58,2.7-4.83.2-8.89-1.63-12.44-4.75-1.98-1.75-3.9-3.57-5.87-5.34-6.32-5.7-13.12-10.79-20.22-15.47-6.48-4.27-13.01-8.47-19.51-12.71-.54-.35-1.03-.78-1.68-1.27.65-.48,1.08-.83,1.55-1.14,2.16-1.42,4.32-2.85,6.5-4.24,8.94-5.69,18.17-10.81,27.95-14.93,3.89-1.64,7.78-3.28,11.76-4.66,2.1-.73,4.38-.92,6.59-1.29.74-.12,1.52-.02,2.57-.02-.34.8-.5,1.44-.86,1.96-1.43,2.08-2.9,4.14-4.4,6.18-2.25,3.04-4.31,6.18-5.5,9.8-.41,1.26-.94,2.52-.8,3.84.16.13.24.23.34.26,1.2.45,1.76-.44,2.32-1.19,2.47-3.27,4.89-6.59,7.37-9.85,1.92-2.51,3.69-5.11,5.01-7.99,1.43-3.11,2.26-6.35,2.15-9.8-.1-3.02-1.99-4.96-5.02-4.97-1.39,0-2.8.23-4.18.48-4.63.83-8.95,2.62-13.26,4.4-12.55,5.21-24.5,11.58-35.99,18.82-1.23.78-2.39,1.69-3.52,2.61-1.63,1.33-2.95,2.92-3.78,4.89-1.74,4.16-2.46,8.52-2.58,12.99-.04,1.47.48,2.77,1.6,3.76,1.43,1.27,2.84,2.56,4.33,3.76,3.07,2.47,6.22,4.83,9.26,7.33,4.65,3.83,9.03,7.97,13.19,12.33,2.57,2.7,4.72,5.74,6.57,8.96,1.05,1.83.82,2.69-.91,3.83-1.22.8-2.48,1.57-3.8,2.18-3.26,1.51-6.54,3.02-9.87,4.36-7.84,3.16-14.43,7.98-19.8,14.51-2.61,3.17-5.2,6.36-7.84,9.5-1.64,1.95-3.44,3.74-5.87,4.7-3.72,1.47-7.15-.57-7.7-4.52-.35-2.55-.02-5.04.62-7.51.15-.58.41-1.13.68-1.85,1.46.68,2.77,1.28,3.96,1.83,1.28-.61,1.95-1.56,2.55-2.59.98-1.69,1.16-1.73,2.87-.72,1.16.68,2.29,1.43,3.46,2.11,1.5.87,2.41.72,3.21-.81,1.04-1.99,1.9-4.07,2.8-6.12.46-1.07.14-1.99-.73-2.72-.47-.4-.97-.76-1.49-1.1-1.46-.95-2.95-1.86-4.41-2.81-1.47-.97-2.23-.83-3.09.76-.4.74-.66,1.55-.97,2.33-.29.74-.8.93-1.47.55-1.36-.78-2.71-1.58-4.05-2.39-.48-.29-.89-.7-1.38-.96-.83-.44-1.37-.29-1.84.53-1.11,1.96-2.2,3.92-3.21,5.93-.25.5-.33,1.25-.15,1.77.35,1,.07,1.87-.14,2.8-.55,2.41-1.22,4.8-1.52,7.24-.48,3.9,0,7.74,1.55,11.41,1.22,2.89,3.32,4.94,6.08,6.29,2.52,1.24,5.21,1.71,7.76.17,1.62-.97,3.26-2.09,4.52-3.48,2.95-3.24,5.71-6.65,8.48-10.05,3.41-4.18,7.22-7.88,12.06-10.38,2.4-1.24,4.83-2.41,7.24-3.62,3.26-1.64,6.58-3.2,9.77-4.97,3.39-1.88,6.03-4.48,7.18-8.35,1.14-3.8,1.33-7.62.66-11.51-.1-.56-.37-1.15.1-1.93,2.16,2.1,4.23,4.06,6.24,6.08,3.4,3.41,7.03,6.42,11.58,8.27,7.1,2.89,15.9-.45,19.27-5.98.22-.36.5-.7.95-1.32,0,.65.06.97,0,1.26-.79,3.59-1.02,7.23-.9,10.9.18,5.37,1.38,10.45,4.11,15.14,1.9,3.27,4.51,5.8,7.88,7.4,6.54,3.1,13.35,3.32,20.23,1.24,4.31-1.31,8.52-2.92,12.38-5.31.4-.24.86-.38,1.42-.62.1.66.14,1.1.24,1.53.43,1.97.7,4,1.36,5.89.9,2.62,2.24,5.04,4.39,6.9,3.45,2.98,7.86,3.71,11.97.99,1.17-.77,2.24-1.7,3.28-2.64,3.53-3.2,6.25-7.09,9.03-10.9,5.16-7.04,11.68-12.22,19.87-15.34,3.04-1.16,6.05-2.47,8.92-4,2.18-1.16,3.54-.76,5.17,1.02,3.41,3.71,7.84,5.38,12.85,5.37,4.07-.01,7.58-1.37,10.33-4.52,1.67-1.91,2.73-4.13,3.45-6.5,2.08-6.79,2.8-13.75,2.32-20.83ZM266.31,89.72c-1.12,1.07-3.33,2.3-5.17,2.87-2.69-3.16-2.92-7.28-.63-10.29,1.69-2.22,3.31-2.21,5.02-.04,1.19,1.52,1.63,3.3,1.91,5.14.15,1-.47,1.69-1.13,2.32Z"/>
          <path class="cls-4" d="M450.13,63.06c-1.61-1.88-3.62-2.75-6.12-2.56-1.81.14-3.39.79-4.81,1.86-2.22,1.67-4.12,3.67-5.69,5.96-1.96,2.88-3.81,5.84-5.74,8.74-2.23,3.34-5.22,5.71-9.05,6.96-.4.13-.84.14-1.17.2-1.02-1.69-1.88-3.27-2.88-4.75-1.61-2.39-3.4-4.63-5.99-6.07-3.32-1.85-5.81-1.58-8.63.96-2.3,2.07-4,4.57-5.18,7.41-1.66,3.96-1.73,7.97-.2,12,.73,1.91,2.1,3.18,3.96,3.9,2.46.96,5.02,1.18,7.63.88,1.68-.19,3.35-.43,5.02-.61.35-.04.71.07,1.42.15-.82,1.19-1.42,2.19-2.15,3.08-2.99,3.69-6.42,6.94-10.13,9.89-3.65,2.91-7.32,5.8-11.5,7.96-3.11,1.6-6.37,2.5-9.9,2.32-4.36-.22-7.55-2.25-9.65-6.07-1.7-3.1-2.03-6.43-1.54-9.83.52-3.61,1.3-7.19,1.89-10.8.16-1.01.02-2.07.02-3.4,3.6-1.26,6.98-3.12,10.21-5.3,3.93-2.65,6.73-6.09,7.99-10.71,2.26-8.24,1.49-16.14-2.58-23.69-1.7-3.16-3.75-6.01-6.79-8.04-4.04-2.69-7.36-2.3-10.64,1.29-3.29,3.6-5.29,7.8-5.72,12.68-.57,6.53,2.07,10.15,8.04,11.14.5.08,1.01.09,1.51.11,2.3.1,4.61.27,6.91.27,1.75,0,3.14.77,4.48,1.71.74.52.8,1.04.12,1.67-.69.65-1.45,1.27-2.28,1.71-3.33,1.76-6.77,3.28-10.37,4.45-5.21,1.68-10.53,1.66-15.87,1.21-2.28-.19-4.44-1.03-6.61-2.21.44-.38.75-.68,1.1-.93,1.61-1.13,3.3-2.17,4.84-3.38,1-.79,2.13-1.68,2.61-2.78.86-1.99,1.33-4.16,1.84-6.28.44-1.85-.33-3.27-1.86-4.35-2.09-1.48-4.35-2.58-6.8-3.28-6.47-1.83-12.99-1.87-19.53-.49-3.16.67-6.15,1.8-8.8,3.71-1.34.96-2.65,2.05-3.11,3.67-.89,3.1-1.95,6.21-1.01,9.74.91-.32,1.81-.57,2.65-.95,1.71-.76,3.43-1.07,5.23-.35,1.68.67,5.89,4.02,7.12,5.72-.52.61-1.05,1.25-1.6,1.88-3.06,3.48-5.72,7.26-7.79,11.39-4.01,8.04-6.4,16.52-6.93,25.54-.38,6.39.35,12.57,2.45,18.59,1.44,4.15,3.6,7.86,6.96,10.79,4.43,3.85,9.76,5.76,15.36,6.94,4.86,1.03,9.82,1.24,14.78,1.04,3.17-.12,6.25-.59,9.14-2.04,4.99-2.5,10.22-4.42,15.49-6.23.9-.31,1.73-.86,2.65-1.08,1.56-.37,1.16-2.02,2-2.85.24-.24.15-.82.21-1.24,0-.05-.05-.1-.16-.32-.5-.03-1.1-.13-1.7-.1-4.55.26-9.1.48-13.64.84-7.19.58-14.37.99-21.56.15-4.66-.54-9.24-1.4-13.56-3.28-3.81-1.66-7.25-3.83-9.62-7.41-2.42-3.65-3.24-7.75-3.43-12.01-.28-6.21,1.29-12.02,3.86-17.62,2.83-6.16,7.2-11.11,12.15-15.6.44-.4.98-.69,1.46-1.02,2.13,1.66,4.1,3.26,6.13,4.75,2.02,1.48,4.35,2.34,6.73,3.06,2.44.73,4.93,1.29,7.46,1.2,2.48-.08,4.95-.46,7.55-.72-.33,1-.63,1.84-.89,2.69-1.39,4.53-2.21,9.18-2.65,13.89-.58,6.13.33,11.97,3.3,17.47,3.06,5.67,8.77,7.85,14.23,7.5,3-.19,5.88-1.09,8.53-2.5,2.23-1.19,4.39-2.52,6.49-3.93,3.22-2.17,6.32-4.51,9.01-7.34,1.59-1.67,3.1-3.41,4.63-5.14,4.11-4.63,7.11-9.84,8.14-16.02.26-1.53.92-2.48,2.38-3.14,3.38-1.54,6.29-3.72,8.25-6.97.87-1.44,1.63-2.95,2.45-4.42.29-.52.6-1.02.96-1.63.56.43.95.73,1.35,1.04,3.61,2.77,7.54,4.91,12,5.97,2.98.71,4.51.11,6.2-2.4,1.4-2.08,2.21-4.41,2.59-6.89.46-2.97.34-5.96-.06-8.91-.41-3.12-1.5-5.99-3.59-8.42ZM400.66,85.69c1.91-1.96,4.44-1.58,5.99.87-2.06-.09-4.05.51-5.99-.87ZM375.83,56.63c-1.63-.12-3.27-.2-4.9-.36-.53-.05-1.32-.2-1.15-.88.11-.45.95-1.15,1.24-1.06.92.3,1.91-.19,2.74.28.79.45,1.49,1.06,2.23,1.6-.05.14-.1.28-.16.42ZM340.05,70.77c-1.12-1.18-2.09-2.2-3.33-3.5,2.5-.28,4.55-.13,6.89.62-1.28,1.03-2.33,1.89-3.56,2.89ZM445.34,76.81c-2.29-.79-4.49-1.65-6.45-3.34,1.24-1.38,1.24-1.4,2.46-.93,1.64.63,3.24,1.33,3.98,3.11.08.2.15.42.19.64.02.09-.06.2-.18.53Z"/>
          <path class="cls-12" d="M53.81,101.75c1.59-.69,3.27-1.39,4.96-1.57,4.83-.5,9.55-.12,13.82,2.6,1.05.67,1.5.57,2.3-.37.31-.37.51-.86.67-1.33.82-2.5.65-5.11.77-7.69.05-1.14-.31-1.9-1.36-2.44-2.05-1.05-4.01-2.28-6.08-3.29-5.51-2.71-7.73-7.41-8.2-13.21-.02-.26.1-.53.16-.86.47-.11.9-.21,1.33-.31,1.11-.26,1.78-1.31,1.5-2.38-.11-.43-.28-.86-.5-1.25-2.2-3.79-4.42-7.58-6.64-11.36-.11-.19-.25-.38-.4-.54-.8-.87-1.45-.8-1.85.32-.84,2.39-1.6,4.8-2.34,7.22-.14.46-.21,1.06-.05,1.49,1.04,2.68.88,5.54,1.31,8.3.67,4.33,1.12,8.71,2.96,12.77.11.23.08.52.11.81-.28.13-.47.24-.68.31-6.17,1.94-11.45,5.42-16.42,9.46-4.03,3.28-7.44,7.19-11.12,10.83-2.52,2.49-5.09,4.93-7.77,7.24-1.79,1.55-3.88,2.63-6.32,2.99-2.17.32-3.86-.32-5.17-2.05-.99-1.31-1.4-2.81-1.39-4.42.01-3.13.68-6.14,1.86-9.03.87-2.13,1.78-4.26,2.69-6.38.58-1.35,1.15-2.68,2.65-3.34.44-.19.75-.67,1.13-1.01,1.97-1.78,2.89-4.14,3.54-6.6.44-1.67.67-3.41.88-5.13.09-.77-.1-1.57-1.17-2.05-.38.54-.76,1.05-1.11,1.59-.58.89-1.07,1.85-1.73,2.68-.9,1.12-1.49,1.07-2.41-.07-.97-1.2-1.21-2.64-1.3-4.11-.17-2.94.13-5.86.87-8.7.89-3.42,2.02-6.79,3-10.19.3-1.02.55-2.07.66-3.12.05-.5-.08-1.28-.81-1.26-.39,0-.92.41-1.13.79-1.09,1.9-2.16,3.82-3.11,5.79-2.98,6.23-4.31,12.86-4.72,19.72-.22,3.62.09,7.08,2.45,10.23-.52.94-.95,1.79-1.44,2.61-2.59,4.3-4.2,8.95-4.9,13.91-.89,6.28.67,11.98,4.57,16.95,3.11,3.96,8.71,4.79,12.82,2.48,1.75-.98,3.43-2.21,4.87-3.6,3.44-3.32,6.76-6.77,10.04-10.24,5.24-5.54,11.14-10.14,18.17-13.18Z"/>
          <path class="cls-10" d="M162.85,25.67c.26,3.87.45,7.74.71,11.61.25,3.81.54,7.62.83,11.43.39,5.15.8,10.31,1.19,15.46.29,3.87.56,7.73.84,11.6.39,5.38.91,10.76,1.14,16.14.26,5.95.27,11.92.39,17.87,0,.45.02.9.02,1.35,0,.65.29,1.07.92,1.24.43.12.86.22,1.57.4.58-1.16,1.18-2.18,1.62-3.26,1.76-4.38,2.62-8.97,2.69-13.66.07-4.44-.01-8.88-.24-13.31-.26-5.27-.72-10.54-1.14-15.81-.72-8.96-1.49-17.92-2.23-26.88-.06-.78-.12-1.57-.1-2.36.03-1.11.49-1.37,1.53-.92.45.2.88.45,1.46.74.02-.34-.04-.64.06-.73,1.01-.78.77-1.77.52-2.76-.34-1.36-.62-2.75-1.08-4.07-1.22-3.5-2.48-6.99-3.81-10.45-.71-1.83-1.51-3.64-2.44-5.36-.75-1.39-1.62-1.36-2.27.06-1.01,2.19-1.89,4.45-2.73,6.7-.34.9-.28,1.86.07,2.81.25.67.42,1.41.47,2.13Z"/>
          <path class="cls-13" d="M306.97,62.57c-.78-8-1.37-16.01-2.03-24.02-.04-.52.03-1.05.06-1.95.83.75,1.36,1.23,1.98,1.79.22-.15.35-.25.5-.33,1.68-.92,1.93-1.39,1.58-3.19-.21-1.05-.41-2.11-.78-3.1-1.81-4.84-3.65-9.67-5.53-14.49-.43-1.09-1.01-2.14-1.63-3.13-.45-.72-.94-.67-1.49-.03-.18.21-.36.45-.46.7-.98,2.45-1.99,4.88-2.9,7.36-.2.54-.24,1.29-.02,1.8.91,2.08.8,4.31.97,6.47.47,5.94.76,11.89,1.15,17.83.21,3.2.48,6.39.75,9.58.51,6.05,1.06,12.09,1.57,18.14.28,3.36.6,6.72.78,10.09.33,6.28.61,12.57.81,18.86.07,2.19-.14,4.38-.19,6.57-.01.53.11,1.06.17,1.62.84.07,1.49.12,2.29.19.41-.81.86-1.59,1.21-2.4,3.1-7.2,3.7-14.78,3.36-22.49-.39-8.65-1.3-17.25-2.14-25.87Z"/>
          <path class="cls-26" d="M232.03,41.86c1.64.25,2.33-.34,2.1-2-.17-1.28-.39-2.56-.75-3.8-.79-2.69-1.59-5.39-2.57-8.02-1-2.68-2.2-5.29-3.36-7.92-.31-.71-.66-1.55-1.59-1.56-.85,0-1.2.77-1.5,1.43-.59,1.27-1.07,2.59-1.67,3.85-.83,1.76-.83,3.58-.57,5.45.21,1.5.41,3,.53,4.51.4,5.16.72,10.32,1.13,15.48.63,8.13,1.35,16.25,1.95,24.37.69,9.25,1.39,18.5,1.36,27.79,0,1.06,0,2.12,0,3.16.72.32,1.27.57,1.92.87,1.19-1.17,1.79-2.49,2.27-3.88,1.46-4.23,2.21-8.61,2.25-13.08.03-3.31-.09-6.64-.3-9.95-.41-6.45-.91-12.9-1.41-19.34-.37-4.76-.83-9.52-1.21-14.28-.08-.99-.01-1.99-.01-3.1.56,0,1-.05,1.42,0Z"/>
          <path class="cls-22" d="M41.38,48.69c.25.17.4.48.66.8.79-.43,1.54-.81,2.26-1.24,5.47-3.24,11.06-6.24,16.82-8.93,2.65-1.23,5.28-2.52,7.9-3.81,6.51-3.19,12.99-6.44,19.53-9.58,2.58-1.24,5.25-2.32,7.91-3.37,3.3-1.3,4.45-4.07,5.1-7.2.08-.4-.07-.85-.14-1.5-.9.28-1.66.44-2.36.74-3.05,1.3-6.11,2.59-9.13,3.96-12.69,5.78-25.31,11.7-37.72,18.05-2.5,1.28-4.89,2.78-7.27,4.25-1.47.91-2.52,2.22-3.12,3.87-.27.74-.5,1.49-.83,2.2-.34.72-.33,1.27.39,1.74Z"/>
          <path class="cls-17" d="M454.79,30.21c-.9.28-1.66.44-2.36.74-3.05,1.3-6.11,2.59-9.13,3.96-12.69,5.78-25.31,11.7-37.72,18.05-2.5,1.28-4.89,2.78-7.27,4.25-1.47.91-2.52,2.22-3.12,3.87-.27.74-.5,1.49-.83,2.2-.34.72-.33,1.27.39,1.74.25.17.4.48.66.8.79-.43,1.54-.81,2.26-1.24,5.47-3.24,11.06-6.24,16.82-8.93,2.65-1.23,5.28-2.52,7.9-3.81,6.51-3.19,12.99-6.44,19.53-9.58,2.58-1.24,5.25-2.32,7.91-3.37,3.3-1.3,4.45-4.07,5.1-7.2.08-.4-.07-.85-.14-1.5Z"/>
          <path class="cls-23" d="M17.85,27.24c.94.67,2.05,1.24,3.17,1.5.8.18,1.18.52,1.43,1.17.47,1.2.85,2.44,1.35,3.63.45,1.05.29,1.91-.37,2.82-1.23,1.68-1.94,3.53-1.52,5.68.06.29-.03.69-.2.93-1.74,2.42-1.75,5.17-1.42,7.93.18,1.56.5,3.12.94,4.62,1.16,3.95,1.75,8.01,2.29,12.07.1.74,0,1.6.8,2.11,1.42-.37,1.58-1.48,1.64-2.64.2-4.19-.42-8.29-1.19-12.39-.32-1.71-.66-3.42-.87-5.15-.2-1.66,0-1.96,1.55-2.5,1.32-.46,2.69-.8,4.02-1.24,3.68-1.21,4.78-5.17,2.22-8.08-.7-.8-1.52-1.52-2.4-2.1-.87-.57-1.23-1.23-1.04-2.24.53-2.76,1.02-5.52,1.56-8.27.07-.36.33-.69.59-1.22,1.15.26,2.27.52,3.38.77.19-.37.42-.85.69-1.32.61-1.07.78-2.22.63-3.42-.21-1.7-1.6-3.35-3.05-3.7-1.22-.29-2.64.56-3.66,2.2-.18.29-.37.57-.48.89-.39,1.17-.78,2.34-1.12,3.53-.28,1.01-.49,2.05-.72,3.07-.12,0-.24.02-.37.03-.17-.41-.34-.81-.53-1.22-.79-1.76-1.77-3.37-3.21-4.7-2.65-2.46-4.16-2.13-5.76,1.14-1.27,2.6-.06,4.91,1.62,6.1Z"/>
          <path class="cls-6" d="M97.7,50.48c-.68,2.99.53,6.45,2.9,7.89,1.86,1.14,3.82,2.26,5.89,2.86,3.44,1.01,7.01,1.59,10.52,2.35.93.2,1.63-.22,2.28-.8,2.27-2.04,2.64-6.38.79-8.8-1.07-1.4-2.52-2.23-4.14-2.78-2.13-.72-4.28-1.38-6.42-2.08-.45-.15-.88-.34-1.33-.52,0-.12,0-.25,0-.38.61-.15,1.22-.33,1.85-.45.49-.09,1.07.02,1.49-.19,1.54-.77,3.04-.55,4.58-.07,1.66.51,2.25.15,2.63-1.55.06-.27.1-.55.16-.83.43-2.16-.48-3.37-2.69-3.48-2.27-.11-4.49.18-6.61,1.05-2.24.92-4.15,2.25-5.55,4.25-1.4,1.98-1.21,3.92.55,5.6.95.91,2.04,1.53,3.33,1.89,2.05.57,4.07,1.28,6.1,1.95.32.11.61.32.91.48-5.82-.44-11.18-2.01-15.77-5.71-.4-.32-.95-.45-1.46-.68Z"/>
          <path class="cls-24" d="M208.25,15.12c.43.91.78,1.87,1.27,2.75.27.49.75.86,1.13,1.27,1.32-.87,1.26-2.14,1.57-3.3.28.03.51.01.71.08,4.92,1.61,9.83,1.57,14.77.08,3.02-.91,6.06-1.73,8.78-3.4.73-.45,1.57-.73,2.36-1.09.08.08.15.16.23.25-.87,1.72-1.73,3.44-2.68,5.32.74.2,1.26.34,1.87.51,1.94-2.27,3.7-4.46,4.89-7.03.44-.95.74-2.03.83-3.07.18-2.26-1.75-3.65-3.84-2.84-.99.39-1.96.86-2.91,1.34-4.78,2.39-9.79,3.98-15.17,4.15-4.38.14-8.54-.44-11.93-3.62-.44-.42-.98-.76-1.53-1.04-.92-.48-1.4-.35-2.07.43-1.27,1.47-1.39,2.85-.47,4.67.76,1.5,1.48,3.03,2.2,4.55Z"/>
          <path class="cls-7" d="M359.29,31.89c2.02,1.41,4.16,2.67,6.29,3.91,1.08.63,1.89.36,2.57-.7.42-.66.72-1.4,1.1-2.09.32-.58.68-1.13,1.13-1.89.7.41,1.18.68,1.64.99,1.35.9,2.69,1.83,4.05,2.73,1.3.87,2.18.73,3.18-.5.28-.35.56-.72.75-1.12.87-1.88,1.77-3.76,2.55-5.68.62-1.54.48-2.04-.9-3.01-2.25-1.58-4.58-3.05-6.88-4.55-.37-.24-.78-.41-1.32-.69-1.09,1.97-2.13,3.87-3.2,5.8-2.76-1.62-5.4-3.18-8.17-4.81-.48.71-.91,1.22-1.21,1.8-.88,1.69-1.71,3.42-2.57,5.12-.98,1.93-.77,3.46,1,4.7Z"/>
          <path class="cls-2" d="M264.06,49.5c-.53.86-.95,1.78-1.42,2.68-.2.38-.38.77-.63,1.29-.57-.38-1.02-.69-1.49-.99-1.6-1.04-3.17-2.13-4.81-3.11-1.56-.93-1.77-.93-2.67.62-1.09,1.88-1.97,3.88-2.93,5.84-.99,2.03-.91,2.69.94,3.98,2.34,1.64,4.79,3.13,7.15,4.65,2.28-.89,2.53-3.39,4.1-4.93.71.45,1.37.88,2.03,1.28,1.39.85,2.77,1.73,4.2,2.5,1.05.57,1.53.47,2.08-.58,1.18-2.23,2.26-4.52,3.32-6.81.49-1.05.23-2.02-.73-2.68-2.17-1.5-4.34-3.01-6.58-4.4-1.37-.85-1.72-.7-2.57.67Z"/>
          <path class="cls-18" d="M395.38,32.05c3.48-.54,7.03-1.19,10.94-.44-1.01.67-1.74,1.19-2.5,1.64-2.17,1.29-4.38,2.53-6.54,3.84-.69.42-1.29,1.01-2.01,1.59,1.01.97,1.47,2.28,3.09,1.92,5.98-1.35,11.45-3.52,14.57-9.29,1.01-1.87,1.85-3.84,2.55-5.84.48-1.36-.01-2.11-1.35-2.66-.72-.3-1.5-.49-2.26-.64-2.93-.6-5.9-.66-8.89-.78-2.64-.11-4.42,1.08-5.77,3.1-.9,1.35-1.62,2.83-2.42,4.25-.35.63-.49,1.2.05,1.86.28.34.33.86.55,1.47Z"/>
          <path class="cls-1" d="M337.08,122.84c.17,3.38,2.29,5.36,5.67,5.31,2.23-.03,4.35-.53,6.36-1.45.9-.41,1.88-.93,2.47-1.68,1.17-1.48,2.1-3.15,3.12-4.74.05-.07-.02-.21-.06-.49-.94-.17-1.59.37-2.28.66-3.17,1.35-6.49,1.76-9.9,1.56-1.39-.08-1.74-.57-1.53-1.99.17-1.15.72-2.12,1.55-2.93.96-.94,1.84-2,2.92-2.79,1.9-1.4,2.83-3.44,3.89-5.4.53-.97.81-2.09-.25-3.22-.54.32-1.08.58-1.55.95-.57.45-1.07,1-1.62,1.47-.87.75-1.89.97-2.99.64-.2-.06-.5-.45-.45-.58.1-.27.36-.56.63-.66.21-.08.56.05.78.19.76.49,1.28.08,1.76-.44.85-.93,1.05-2.11,1.07-3.29.03-2.12-1.64-3.17-3.56-2.27-.6.28-1.16.69-1.68,1.11-1.58,1.26-2.63,2.9-3.4,4.74-1.09,2.63-.73,4.37,1.33,6.36.07.07.08.2.16.39-.26.49-.55,1.03-.85,1.56-1.21,2.17-1.72,4.49-1.59,6.97Z"/>
          <path class="cls-29" d="M113.82,117.66c-.43.13-.83.33-1.24.52-6.34,2.88-12.68,5.76-19.01,8.66-1.58.73-3.11,1.56-4.65,2.37-2.33,1.22-3.5,3.22-3.8,5.77.38.53.75,1.05,1.18,1.64.27-.05.63-.05.92-.18,3.21-1.49,6.42-2.97,9.6-4.53,3.07-1.51,6.1-3.1,9.15-4.66,2-1.02,4.01-2.01,5.96-3.12,2.03-1.15,2.58-3.33,3.28-5.32.33-.93-.39-1.46-1.38-1.14Z"/>
          <path class="cls-21" d="M259.69,118.48c-1,.51-1.63,1.36-2.12,2.33-.85,1.68-1.22,3.49-1.45,5.33-.09.73-.23,1.45-.34,2.18-.61-.73-.9-1.45-1.27-2.13-.4-.74-.76-1.53-1.31-2.15-.77-.87-1.6-1.76-2.57-2.36-1.51-.93-2.75-.57-3.84.8-1.54,1.93-1.5,4.22.36,5.88,1.06.95,2.39,1.67,3.7,2.26.93.42,1.38.98,1.64,1.91.37,1.35.85,2.67,1.29,4.01.16.48.3.97.52,1.42.6,1.25,1.69,1.33,2.42.17.29-.46.49-1.02.61-1.56.66-2.96,1.28-5.92,1.94-8.88.18-.8.43-1.59.71-2.59.81.38,1.29.66,1.81.85.96.35,1.95,0,2.32-.79.81-1.71.37-4.61-.92-6.05-.95-1.05-2.23-1.28-3.51-.62Z"/>
          <path class="cls-33" d="M195.43,60.18c-2.26-1.55-4.5-3.14-6.82-4.6-1.31-.82-1.79-.64-2.54.78-1.05,1.98-1.99,4.02-2.95,6.04-.19.4-.27.85-.34,1.1,0,1.13.7,2.45,1.71,3.13,1.86,1.26,3.74,2.48,5.64,3.68,1.43.9,2.23.78,3-.75,1.11-2.19,2.04-4.48,3.04-6.73.48-1.08.23-1.99-.73-2.65Z"/>
          <path class="cls-25" d="M40.94,118.06c-1.8-.79-3.45-.18-4.44,1.52-.74,1.27-.36,2.77-.77,4.02-.46,1.38-1.24,2.63-1.04,4.16.14,1.11.29,2.23.47,3.33.68,4.09,1.37,8.19,2.05,12.28.09.55.07,1.14.24,1.66.1.31.46.7.75.73.29.04.73-.23.94-.5.23-.29.33-.72.37-1.1.17-1.39.29-2.78.42-4.03-.14-1.51-.19-2.86-.4-4.18-.34-2.1-.78-4.19-1.18-6.28-.32-1.73-.15-2,1.54-2.52.8-.25,1.64-.42,2.4-.77,2.07-.95,2.86-3.38,1.8-5.4-.7-1.34-1.76-2.33-3.14-2.94Z"/>
          <path class="cls-20" d="M135.44,54.51c.09-.38.19-.8.11-1.16-.08-.34-.32-.73-.61-.89-.17-.1-.66.12-.84.33-.4.46-.74.99-1.01,1.54-1.63,3.29-2.83,6.75-3.61,10.32-.69,3.15-.81,6.33.06,9.52.38,1.41,1.15,2.4,2.3,3.19.71.48,1.32.51,2.16.06,1.27-.68,2.12-1.61,2.69-2.89.82-1.82,1.29-3.72,1.33-5.71.01-.52-.15-1.04-.29-1.93-.66.52-1.07.77-1.38,1.11-.33.37-.55.85-.85,1.25-.33.44-.66,1.13-1.29.8-.42-.22-.62-.85-.89-1.32-.08-.13-.06-.33-.06-.5-.12-2.6-.02-5.16.73-7.68.59-1.99.99-4.03,1.46-6.06Z"/>
          <path class="cls-27" d="M32.24,88.84c1,1.79,2.7,2.1,4.19.69,1.93-1.83,2.86-4.13,2.71-6.8-.02-.4-.32-.77-.5-1.16-.41.23-.87.4-1.21.7-.55.49-.68,1.44-1.63,1.57-.97-.69-1.06-1.68-1.07-2.71-.04-3.14,1-6.08,1.88-9.02.31-1.03.14-1.91.16-2.83-.85-.43-1.21.06-1.58.6-2.92,4.26-4.17,9.02-4.2,14.12,0,1.7.41,3.34,1.25,4.84Z"/>
          <path class="cls-14" d="M291.78,117.42c-1.43-.55-2.77-.23-3.92.78-1.38,1.22-1.99,2.86-2.27,4.59-.09.57.31,1.22.52,1.94,1.34-.32,2.45-.58,3.86-.91-1.22,3.63-3.47,6.34-5.53,9.14,1.21,1.05,1.3,1.08,2.34.38,3.08-2.06,5.48-4.7,6.57-8.29.43-1.42.59-2.98.57-4.47-.01-1.41-.74-2.63-2.15-3.17Z"/>
          <path class="cls-31" d="M388.07,106.54c-.38.38-.85.67-1.27.98-.94-.97-1.18-1.8-1.12-3.3.12-2.89.67-5.68,1.69-8.39.33-.87.46-1.82.7-2.81-1.12-.52-1.5.06-1.86.64-2.78,4.52-4.41,9.34-3.81,14.72.12,1.09.45,2.21.92,3.21.6,1.29,2.55,1.94,3.58,1.36,1.98-1.11,3.46-4.3,3.03-6.54-.1-.5-.2-1.01-.99-1.02-.26.36-.51.8-.86,1.15Z"/>
          <path class="cls-15" d="M190.08,87.81c.27-1.37.66-2.73.93-4.1.05-.25-.15-.64-.37-.82-.13-.11-.52.03-.75.14-.19.09-.32.31-.46.48-2.38,3.15-3.55,6.73-3.71,10.64-.06,1.47.23,2.96,1.1,4.18,1.95,2.73,3.72,2.76,5.53.11,1.21-1.76,1.33-3.9.99-6.01-.04-.24-.41-.43-.63-.65-.73.82-1.38,1.56-2.01,2.27-1.17-.6-1.22-1.59-1.19-2.43.05-1.28.33-2.55.58-3.82Z"/>
          <path class="cls-5" d="M86.18,80.04c.25-.67.44-1.39-.05-2.05-.97-.12-1.49.33-1.93,1.09-1.78,3.14-2.76,6.5-2.96,10.1-.1,1.76.19,3.44.81,5.11.54,1.47,1.7,1.87,2.97,2,1.11.11,1.94-.71,2.37-1.63.68-1.46,1.23-3,1.67-4.56.17-.61.3-1.46-.55-2.1-.3.32-.59.63-.89.94-.35.36-.66.78-1.07,1.05-.83.55-1.4.31-1.55-.69-.13-.88-.15-1.79-.12-2.68.08-2.26.51-4.46,1.3-6.59Z"/>
          <path class="cls-9" d="M134.81,125.46c-.15-.02-.29-.04-.44-.06-.05-.59-.04-1.19-.16-1.77-.22-1.02-.37-2.1-.82-3.03-.57-1.18-1.57-2.15-1.73-3.56-.02-.14-.31-.25-.63-.49-.77,1.43-1.57,2.68-1.87,4.19-.23,1.17.61,1.99.94,2.97,1.08-.02.84.81.9,1.43.08.89.05,1.8.2,2.68.17.98.31,2.03.77,2.89.98,1.82,2.18,1.79,3.24.03.23-.38.42-.79.61-1.2.99-2.19,1.13-4.56,1.41-6.9.04-.31-.22-.65-.38-1.07-1.41,1.03-1.38,2.65-2.03,3.89Z"/>
          <path class="cls-8" d="M54.98,29.13c1.57-1.15,2.62-4.22,2.04-6.06-.08-.25-.25-.46-.45-.8-.81.68-1.53,1.29-2.47,2.08-.39-1.66-.25-2.98,0-4.29.24-1.32.61-2.62.82-3.95.12-.78.4-1.65-.47-2.52-.42.5-.84.92-1.16,1.41-1.83,2.8-2.58,5.94-2.73,9.23-.06,1.4.08,2.82.82,4.07.8,1.36,2.41,1.71,3.61.83Z"/>
          <path class="cls-3" d="M207.02,52.74c1.22,1.44,2.62,1.56,3.9.2,2.11-2.24,2.87-4.98,2.7-7.99-.13-.1-.25-.2-.38-.3-.33.23-.71.42-.98.7-.42.45-.72,1.02-1.15,1.45-.29.28-.8.63-1.1.54-.32-.09-.58-.63-.71-1.02-.14-.41-.18-.89-.14-1.33.1-1.17.18-2.36.42-3.51.46-2.2,1.06-4.37,1.54-6.56.08-.36-.03-.98-.28-1.16-.54-.4-.92.08-1.18.54-.64,1.12-1.26,2.25-1.88,3.38-1.91,3.51-2.62,7.27-2.34,11.23.1,1.43.65,2.74,1.58,3.84Z"/>
          <path class="cls-19" d="M244.3,65.51c-.6.59-1.1.93-1.38,1.4-2.56,4.33-3.75,9.01-3.37,14.04.12,1.56.72,2.94,1.92,4.02,1.18,1.06,2.07,1.11,3.29.1,2.34-1.94,2.62-4.59,2.45-7.37-.04-.6-.67-.8-1.13-.38-.28.26-.45.65-.72.93-.44.47-.93.9-1.61,1.56-.29-.74-.52-1.09-.55-1.46-.29-2.88.25-5.68.88-8.48.29-1.32.86-2.63.22-4.38Z"/>
        </g>
        <path class="cls-11" d="M197.84,33.94l-.82,7.29c-1.59-1.22-3.18-2.61-4.75-4.18-4.93,7.06-9.14,10.51-12.63,10.35-.2,0-1.4-.39-3.59-1.13,3.93-2.37,8.49-6.1,13.66-11.2-2.41-2.2-3.57-4.45-3.46-6.74.11-2.34.99-5.04,2.65-8.11,1.57-2.92,3.28-4.34,5.13-4.26,2.75.12,4.03,2.43,3.83,6.91-.11,2.44-.88,5.32-2.3,8.65.43.57,1.19,1.38,2.3,2.42ZM193.89,27.02c.04-1-.24-2.03-.85-3.1-.61-1.07-1.28-1.63-2.02-1.66-.91-.04-1.39.56-1.44,1.81-.06,1.34,1.22,3.19,3.83,5.56.28-.78.44-1.65.49-2.59Z"/>
        <path class="cls-32" d="M260.38,33.94l-.82,7.29c-1.59-1.22-3.18-2.61-4.75-4.18-4.93,7.06-9.14,10.51-12.63,10.35-.2,0-1.4-.39-3.59-1.13,3.93-2.37,8.49-6.1,13.66-11.2-2.41-2.2-3.57-4.45-3.46-6.74.11-2.34.99-5.04,2.65-8.11,1.57-2.92,3.28-4.34,5.13-4.26,2.75.12,4.03,2.43,3.83,6.91-.11,2.44-.88,5.32-2.3,8.65.43.57,1.19,1.38,2.3,2.42ZM256.43,27.02c.04-1-.24-2.03-.85-3.1-.61-1.07-1.28-1.63-2.02-1.66-.91-.04-1.39.56-1.44,1.81-.06,1.34,1.22,3.19,3.83,5.56.28-.78.44-1.65.49-2.59Z"/>
        <path class="cls-28" d="M448.91,117.31c-1.14-2.24-2.05-3.83-2.74-4.78-.82-1.45-1.79-2.18-2.93-2.18-.75,0-1.49.38-2.23,1.07-.02.02-.04.06-.07.08-.34.34-.68.72-1.01,1.21-.19.27-.26.42-.41.65-.06.1-.12.2-.18.3-.23.36-.48.76-.62,1.02-.47.82-.87,1.59-1.18,2.22-.1.05-.31.49-.63,1.34-.13.34-.27.72-.43,1.18-.6,1.7-.9,2.8-.9,3.31s-.44,1.17-1.32,1.98c-.89.82-5.67,4-14.38,9.55-.63.4-1.26.79-1.85,1.24-.1.08-.35.24-.61.44-.5.36-1.06.74-1.43,1.25-.12.17-.43.59-.31.83.23.44,1.81.09,2.14-.05,0,0,4.68-2.1,9.46-4.46,5.27-2.61,6.16-3.31,6.94-4.1,1.6-1.62,2.54-3.39,3.11-4.83.06.03.12.07.16.08.45.19.92.37,1.38.54.46.17.94.29,1.41.46h.04c.58.15,1.16.3,1.75.42,4.75,1.07,7.31.47,7.31.47,0,0,.6-.54.98-2.7.06-.29.1-.6.14-.92.05-.42.09-.89.12-1.42,0-.57-.56-1.97-1.7-4.21ZM445.76,119.87c-.03.08-.11.12-.2.15-.74-.09-1.66-.23-2.2-.32-1.05-.21-2.09-.46-3.1-.84-.17-.06-1.92-.82-1.85-.97.56-1.26,1.3-2.56,2.82-2.73,1.06-.12,1.87.75,2.49,1.49.71.85,1.49,1.72,1.97,2.75.1.22.12.37.08.47Z"/>
        <path class="cls-16" d="M341.22,25.04c-3.84-.24-7.67-.64-11.51-.84-3.13-.16-7.31-.6-9.29,2.38-1.37,1.92-1.8,4.56-2.08,6.85-.06.48-.09.96-.07,1.44,0,.13.04,1.17.26.72.62-1.23,1.5-1.92,2.51-2.29.94-.35,2.06-.31,3.04-.33,1.95-.04,3.91.07,5.85.16s3.97.27,5.94.51c.16.02.82.2.95.12-.05.03-.09.06-.13.09-.78.53-3.77,2.56-8.34,4.73-6.4,3.04-8.55,3.33-8.46,3.89.14.86,5.19.77,8.78.31,2.45-.32,4.04-.52,5.97-1.49,2.45-1.23,3.75-2.85,5.76-5.33.57-.71,3.23-4.07,3.84-7.89.37-2.32-.95-2.91-3.01-3.04Z"/>
      </g>
    </g>
  </g>
</svg>