<?xml version="1.0" encoding="UTF-8"?>
<svg xmlns="http://www.w3.org/2000/svg" version="1.1" viewBox="0 0 612 202.21">
  <defs>
    <style>
      .cls-1 {
        fill: #0f766e;
      }
    </style>
  </defs>
  <!-- Generator: Adobe Illustrator 28.7.1, SVG Export Plug-In . SVG Version: 1.2.0 Build 142)  -->
  <g>
    <g id="Layer_1">
      <g id="Layer_1-2" data-name="Layer_1">
        <g>
          <path class="cls-1" d="M390.37,136.01c2.62-6.79,3.78-13.8,3.89-21.04.17-11.89-.51-23.74-1.71-35.58-.74-7.31-.94-14.68-1.41-22.02-.22-3.42-.61-6.82-.79-10.23-.13-2.42-.03-4.86-.03-7.28.16-.02.32-.04.49-.07,1.4,1.79,2.79,3.58,4.19,5.37.23-.04.47-.08.7-.13,0-1.28.33-2.66-.05-3.81-2.11-6.28-4.37-12.51-6.64-18.73-.63-1.73-1.48-3.37-2.43-5.54-.74,1.7-1.29,2.86-1.75,4.06-1.36,3.5-3.65,6.9-1.18,10.86.3.48.1,1.29.11,1.95.02,1.76-.03,3.51.05,5.27.38,7.89.83,15.79,1.2,23.69.22,4.52.34,9.04.54,13.57.13,2.91.29,5.82.47,8.72.55,9.01,1.12,18.02,1.68,27.04.28,4.43.6,8.86.83,13.3.18,3.43.53,6.92-3.39,8.86-3.25,1.61-6.48,3.01-10.22,3.25-4.11.26-7.83-.5-11.74-2.54.64-.9,1.01-1.52,1.48-2.05,5.77-6.61,7.47-14.31,5.84-22.76-.75-3.92-2-7.75-5.08-10.63-2.38-2.23-5.26-2.4-7.57-.15-1.65,1.6-3.22,3.37-4.41,5.32-4.25,6.95-5.72,14.54-4.07,22.52,1.02,4.94,1.28,4.89-3.64,6.62-.07.03-.15.02-.22.05-6.81,2.77-13.84,5.07-20.03,9.22-8.73,5.85-15.32,13.84-21.95,21.79-3.89,4.67-7.83,9.24-13.34,12.06-5.8,2.97-11.78.89-12.72-5.75-.42-2.94-.11-6.05.3-9.03.25-1.83.97-3.79,2.08-5.25,1.15-1.52,3.11-2.38,4.53-3.74,4.03-3.86,8.28-7.6,9.56-13.4.34-1.55.42-3.18.88-4.69,1.6-5.3.9-10.49-.83-15.55-1.67-4.9-3.66-9.69-5.62-14.8,1.64.18,3,.32,4.36.47.13-.2.26-.4.39-.6-3.34-4.37-6.67-8.75-10.18-13.35-2.7,5.74-3.04,9.17-1.51,14.41,1.49,5.13,2.95,10.27,4.65,15.33,1.47,4.37,3.34,8.6,4.81,12.97.29.87-.11,2.4-.76,3.09-2.3,2.44-4.68,4.86-7.32,6.9-10.74,8.26-22.25,15.17-35.31,19.16-8.37,2.56-16.81,4.43-25.59,1.91-7.88-2.26-13.64-6.81-16.48-14.7-2.83-7.87-1.49-15.51,1.15-23.1.5-1.44,1.04-1.95,2.82-1.46,7.03,1.93,15.84-1.06,19-9.38,2.77-7.29,3.93-14.79,4.2-22.48.12-3.41-.21-6.85-.41-10.27-.28-4.58-.57-9.16-.97-13.73-.48-5.58-1.12-11.13-1.61-16.71-.36-4.21-.62-8.43-.86-12.65-.1-1.69-.02-3.39-.02-5.09.2-.06.39-.11.59-.17,1.38,1.67,2.76,3.35,4.14,5.02.25-.07.49-.13.74-.2-.07-1.43.18-2.97-.27-4.26-2.54-7.22-5.24-14.38-7.91-21.54-.21-.56-.63-1.04-1.3-2.1-1.55,3.83-2.89,7.13-4.18,10.45-.11.27.1.72.27,1.02,2.01,3.62,1.48,7.65,1.7,11.51.37,6.41.37,12.84.54,19.27,0,.29.02.58.04.88.71,8.99,1.51,17.98,2.1,26.98.57,8.72.89,17.45,1.4,26.16.1,1.62-.49,2.89-1.76,3.46-2.61,1.17-5.29,2.44-8.07,2.9-6.51,1.08-11.64-1.91-16.19-6.27-3.79-3.64-7.62-7.24-11.58-10.68-7.74-6.7-16.18-12.44-24.96-17.7-9.39-5.62-18.69-11.39-28.01-17.11-.52-.32-.94-.81-1.52-1.34.79-.68,1.32-1.3,1.99-1.69,6.95-4.16,13.76-8.64,20.95-12.35,11.31-5.84,22.79-11.35,34.39-16.59,4.75-2.15,9.94-3.38,15.03-4.67,1.2-.31,2.88.64,4.09,1.41.28.18-.32,2.12-.85,3.06-.64,1.12-1.72,1.98-2.46,3.06-3.6,5.16-7.42,10.2-10.61,15.61-1.93,3.27-2.85,7.13-4.23,10.72.26.11.52.22.78.34,1.14-2.14,2.07-4.43,3.46-6.4,3.68-5.21,7.49-10.33,11.35-15.4,3.54-4.65,6.6-9.62,7.74-15.36,1.17-5.94-.66-8.22-5.68-7.76-1.22.11-2.44.34-3.62.67-10.75,3.02-20.89,7.6-30.92,12.4-13.19,6.32-26.36,12.7-38.4,21.13-2.35,1.65-4.22,3.68-4.88,6.45-.8,3.36-1.27,6.8-1.79,10.22-.38,2.47.32,4.58,2.37,6.2,3.87,3.06,7.65,6.24,11.54,9.29,8.34,6.54,16.82,12.91,25.06,19.59,4.88,3.96,8.95,8.75,11.86,14.4,1.93,3.76,1.48,5.28-2.34,7.13-5.19,2.5-10.41,4.95-15.74,7.11-6.76,2.74-13.75,4.9-20.44,7.77-11.64,5-19.72,14.39-28.15,23.37-3.55,3.78-7.53,7.27-11.74,10.32-3.92,2.83-11.17,2.59-14.07-1.6-2.67-3.86-2.73-8.25-2.04-12.57,1.05-6.59,3.6-12.74,6.39-18.79.75-1.61,1.28-3.32,1.91-4.99-.72-.03-.99.13-1.14.36-4.23,6.61-8.09,13.43-9.48,21.26-1.35,7.65-.76,15.02,4.27,21.51,3.15,4.07,9.14,6.31,14.13,4.91,5.79-1.62,9.53-5.96,13.39-10.12,4.05-4.38,7.88-8.99,12.14-13.16,7.87-7.71,18.02-11.32,28.07-15.15,6.53-2.49,12.96-5.29,19.3-8.23,3.24-1.5,6.16-3.76,7.75-7.1,2.87-6.01,3.79-12.26,1.39-18.71-.44-1.18-.89-2.36-1.33-3.55.14-.11.29-.23.44-.35,6.9,6.56,13.8,13.11,20.79,19.75-3.6,9.5-6.45,19.38-4.18,30.16,1.7,8.12,5.77,14.38,12.93,18.34,9.14,5.07,18.96,4.22,28.62,1.99,10.09-2.34,19.3-6.89,28.03-12.43,1.46-.93,2.93-1.85,4.63-2.92-1.24,7.61-1.29,12.71,1.72,18.4,4.1,7.77,12.07,9.71,18.57,5.4,2.4-1.59,4.71-3.47,6.66-5.58,3.3-3.57,6.28-7.44,9.4-11.17,4.63-5.53,9.32-11.07,15.67-14.7,4.05-2.32,8.41-4.13,12.69-6.03,5.05-2.25,10.17-4.35,15.28-6.52,4,6,9.58,8.78,16.76,8.61,8.59-.21,15.28-4.62,18.41-12.77v-.03ZM357.08,128.26c-1.41-3.21-2.82-6.4-4.2-9.62-.72-1.68-.51-3.27.72-4.65,1.35-1.51,2.64-3.1,4.14-4.45,1.52-1.38,3.33-1.04,4.52,1.05,1.62,2.88,2.97,5.91,4.25,8.95.52,1.23.25,2.52-1.02,3.45-2.49,1.8-4.92,3.68-7.38,5.53-.34-.09-.68-.18-1.03-.27h0Z"/>
          <path class="cls-1" d="M497.46,186.22c-4.85.37-9.69,1.03-14.55,1.13-6.13.12-12.26-.22-18.38-.33-6.7-.12-13.26-1.11-19.67-3.08-16.11-4.95-21.86-16.46-21.33-30.8.32-8.71,3.02-16.99,7.18-25.31.87,1.06,1.48,2.01,2.28,2.73,4.25,3.8,8.8,7.23,14.58,8.09,6.45.96,12.96,1.43,19.43,2.21,4.56.55,8.92,1.71,12.57,4.76,3.23,2.69,4.26,7.49,1.69,10.79-2.3,2.95-4.98,5.7-7.9,8.03-6.6,5.27-14.28,8.77-21.82,12.48-1.66.82-3.4,1.46-5.11,2.19.06.17.12.34.18.51,3.17-.63,6.36-1.19,9.51-1.91,5.52-1.27,11.15-2.01,15.77-6.03,6.46-5.62,11.66-11.96,13.6-20.46,1.78-7.79-.95-16.37-8.88-19.04-4.11-1.38-8.6-1.95-12.96-2.23-7.98-.5-15.96-.94-23.77-2.79-2.45-.58-4.78-1.62-7.31-2.5,4.09-6.99,9.32-12.2,14.54-17.07,3.37,3.01,6.58,5.93,9.84,8.78,7.96,6.96,17.32,10.77,27.77,11.66,8.01.68,15.56-1.29,22.5-5.34,2.63-1.53,5.2-3.23,6.59-6.12,2.77-5.74,3.49-11.82,2.45-18.03-1.25-7.4-4.32-13.87-10.28-18.79-4.3-3.55-8.86-3.43-12.79.46-3.74,3.7-5.79,8.2-6.07,13.34-.3,5.52,1.37,8.97,7.68,10.13,3.04.56,6.27.03,9.4.26,3.62.28,6.97,1.25,8.52,5.1-14.76,12.29-41.98,10.12-57.64-7.48,4.79-3.03,9.48-6.15,14.32-9.01,1.78-1.04,2.58-2.41,2.95-4.26.33-1.7.5-3.46,1.05-5.09.48-1.41-.06-1.95-1.14-2.58-6.85-4.03-14.44-5.43-22.18-6-7.18-.52-14.16.94-20.83,3.57-1.69.67-3.88,1.75-4.47,3.2-1.47,3.6-2.14,7.52-3.13,11.31,1.55-.17,2.6-.5,3.47-1.11,1.88-1.33,3.71-1.01,5.51,0,4.54,2.56,8.38,5.92,11.65,10.22-6.27,5.87-10.7,12.98-14.48,20.48-1.15-.5-2.06-.9-2.96-1.3-.14.19-.28.39-.41.58,1.01.72,2.03,1.43,2.89,2.03-5.9,14.28-8.41,25.54-8.03,40.66.12,4.79.81,9.54,2.9,13.94,4.92,10.35,13.57,15.97,24.46,17.78,7.82,1.3,15.85,1.33,23.8,1.85,1.05.07,2.19-.18,3.18-.56,6.51-2.53,13-5.13,19.49-7.72,2.03-.81,4.06-1.63,6.09-2.45-.02-.2-.05-.4-.07-.6-.57-.11-1.15-.36-1.7-.32l.02.04ZM496.85,92.99c-.12,0-.23,0-.35-.03-.14,0-.29-.04-.42-.06-.11-.02-.21-.04-.31-.07-.11-.03-.23-.07-.34-.11s-.22-.08-.32-.14c-.1-.04-.18-.09-.27-.15-.02,0-.04-.02-.06-.04-.06-.04-.11-.07-.17-.12-.04-.02-.07-.05-.11-.08-.08-.06-.15-.13-.22-.2-.06-.06-.12-.13-.18-.2-.05-.06-.1-.13-.14-.19-.02-.03-.04-.06-.06-.09-.04-.06-.07-.12-.1-.18-.04-.08-.08-.17-.11-.26,0,0-.01-.03-.02-.04-.03-.08-.05-.17-.07-.25-.03-.1-.05-.2-.07-.31-.03-.21,0-.43.06-.64,0-.03.02-.06.03-.09.07-.19.18-.38.32-.57.03-.04.06-.07.09-.11.05-.06.11-.12.17-.18.04-.04.07-.07.11-.11h.01c.07-.08.14-.14.22-.2.17-.13.35-.25.55-.36.07-.04.15-.09.24-.13l.04-.02c.08-.04.16-.07.25-.11.07-.03.15-.06.22-.08.04-.02.08-.03.12-.04h.02c.16-.05.32-.09.47-.12.03,0,.05,0,.08,0,.07,0,.15-.02.22-.03.04,0,.07,0,.1,0h.24c.16,0,.32,0,.49,0,.11,0,.21.02.31.03h.01c.13,0,.26.03.39.05.36.06.71.14,1.05.25.06.02.12.04.18.06.01,0,.02,0,.04,0,.15.05.31.11.46.18.06.02.11.05.16.07.09.04.18.09.26.13.09.05.18.1.27.15.22.14.43.29.65.45.05.04.09.07.14.11.07.05.13.11.2.17.09.08.18.17.27.26,0,0,.02.02.03.03.09.09.18.18.27.29s.18.21.27.32c.19.24.38.47.58.7.45.52.93,1.03,1.42,1.56.16.18.33.36.5.54-2.94,0-5.57.07-8.2-.03h.01ZM440.34,86.11c4.82-.47,9.26-.37,13.7.64.5.11,1,.24,1.5.37.61.17,1.23.36,1.85.56.56.18,1.12.39,1.69.61h0c-.64.47-1.26.92-1.87,1.36s-1.2.88-1.79,1.31c-1.18.86-2.33,1.69-3.47,2.52-2.7,1.96-2.66,1.92-4.94-.54-.18-.2-.37-.4-.56-.59-1.32-1.36-2.74-2.62-4.09-3.96-.6-.6-1.12-1.28-2-2.29h-.02Z"/>
          <path class="cls-1" d="M587.64,110.04c-2.24-5.15-5.58-7.28-10.37-5.88-2.71.79-4.94,3.31-7.32,5.15-.66.5-1.01,1.87-1.59,1.94-2.21.24-2.67,2.1-3.56,3.46-3.2,4.82-6.91,8.92-12.76,10.52-1.2.33-1.85.5-2.48-1-1.54-3.74-3.98-6.93-7.04-9.59-2.59-2.25-5.8-2.6-8.65-.73-5.45,3.57-7.86,8.99-8.23,15.25-.26,4.43,2.7,8.01,7.08,8.48,3.72.4,7.55.32,11.28-.08,1.73-.18,2.41.24,2.42,1.62.01,1.13-.18,2.67-.91,3.35-5.52,5.16-10.93,10.48-16.89,15.1-6.17,4.78-12.98,8.25-21.33,8-6.4-.19-11.04-3.76-12.49-10.22-1.11-4.93-.42-9.78,1.02-14.57.74-2.46,1.29-4.98,1.92-7.48-.36-.1-.73-.2-1.1-.3-1.01,2.81-2.13,5.59-3.03,8.44-2.67,8.44-3.98,16.91-.63,25.54,2.48,6.36,7.44,9.57,13.56,9.81,5.33.21,10.14-1.57,14.66-4.12,8.27-4.67,15.28-10.95,21.62-17.93,4.39-4.83,7.64-10.34,8.22-17.1.11-1.31.63-2.34,2.22-3.04,2.04-.9,3.93-2.43,5.46-4.09,1.77-1.92,3.07-4.27,4.59-6.46,5.7,4.9,11.89,8.54,19.24,9.81.85.14,2.28-.29,2.7-.94,4.69-7.21,5.83-14.94,2.35-22.94h.04ZM534.55,127.19s-.09-.02-.14-.04c-.06,0-.12-.03-.18-.05s-.13-.04-.19-.07c-.04,0-.08-.03-.12-.05-.07-.03-.13-.06-.2-.09-.05-.03-.1-.05-.14-.07-.44-.23-.88-.53-1.19-.82-.03-.04-.07-.07-.1-.1,0,0,0,0-.01-.02-.05-.05-.09-.1-.13-.14-.06-.07-.11-.15-.14-.22-.01-.02-.02-.05-.03-.07,0-.03-.02-.05-.02-.08s-.01-.06-.01-.09v-.02c0-.07.01-.15.03-.22,0-.04,0-.07.01-.1h0c0-.07.02-.12.03-.18h0c.02-.1.05-.2.08-.29.04-.11.07-.21.12-.31.02-.06.05-.12.08-.17,0-.03.02-.05.04-.07.02-.04.04-.08.07-.12.04-.06.07-.11.11-.17.03-.04.06-.09.1-.13,0,0,0,0,.01-.02,0-.02.02-.03.04-.04h0s0-.03.03-.04h0s.07-.08.11-.12c.06-.07.13-.13.2-.19s.14-.11.22-.17c.07-.05.16-.11.24-.14.08-.05.17-.09.26-.12h0c.09-.04.18-.07.27-.1.1-.03.19-.05.29-.07s.2-.04.3-.05c.12,0,.24,0,.37,0,.11,0,.23,0,.34,0,.11,0,.21,0,.31.03.12,0,.23.03.35.05.05,0,.1,0,.14.03.05,0,.1.02.14.03.08.02.15.04.23.06.12.04.23.07.34.11.09.03.18.07.27.11.16.07.32.14.47.23.07.04.15.08.23.13.04.02.07.04.11.07.04.02.07.04.11.07.09.06.18.12.26.18.09.06.17.13.26.2.07.06.14.12.22.18.06.05.11.1.17.15.08.07.16.15.24.24.24.24.46.5.68.76.11.14.22.27.32.4.11.14.21.28.31.42.04.05.08.11.12.17-.14-.2-.29-.39-.43-.58.21.27.41.55.62.84h0c.1.13.19.27.29.4,0,0,.01.02.02.03h0c.1.14.2.28.3.42-.07.23-.15.46-.23.69-2.21-.19-4.46-.2-6.62-.65l.02-.02ZM580.11,122.04c-3.27-1.95-6.34-3.78-9.44-5.64h0c.19-.23.39-.44.59-.64.18-.18.35-.34.54-.49.05-.04.11-.09.16-.14.16-.13.32-.25.48-.36.08-.06.16-.11.24-.16s.16-.1.23-.14c.09-.06.19-.11.28-.16.1-.05.19-.1.29-.14.11-.05.22-.1.32-.14.09-.04.18-.07.27-.11.04-.02.08-.03.13-.04.04-.02.09-.03.13-.04.09-.03.19-.06.28-.08s.19-.04.28-.06c.08-.02.17-.03.25-.04.4-.05.78-.05,1.14,0,.03,0,.06,0,.09.02h.02c.09.02.17.03.25.06.1.03.19.06.29.1.22.08.43.2.66.34.08.05.17.11.25.17.19.14.38.29.58.46.1.09.2.18.3.28.14.13.27.27.4.41.08.09.16.18.24.28s.16.2.24.3c.09.12.18.25.27.37.11.15.21.3.3.46.04.07.08.13.12.2l.24.42c.15.29.29.59.42.89.05.13.1.26.15.39.05.13.09.26.13.4.04.12.07.25.11.38.02.04.03.08.04.12.03.1.05.21.07.31.02.06.03.11.04.17.02.1.04.19.05.29.02.1.03.2.04.3v.09c.02.14.03.29.04.44.03.53,0,1.06-.09,1.59h0c-.47-.28-.94-.56-1.41-.84v-.02Z"/>
          <path class="cls-1" d="M116.09,127.65c2.26.83,4.4,1.95,7.17,3.18.3-3.49.76-6.77.77-10.06,0-.91-1.12-2.15-2.04-2.67-3.14-1.77-6.49-3.2-9.65-4.94-3.17-1.74-6.37-3.59-8.31-6.81-1.58-2.61-3.43-5.19-1.6-8.55,2.06-3.78,4.72-6.98,8.34-9.3,3.11-1.99,5.76-1.3,7.68,1.87.54.89,1.07,1.79,1.91,3.18,1.39-4.41,2.99-8.13,1.45-12.28-1.54-4.16-5.62-5.77-9.52-3.58-3.41,1.92-6.09,4.64-8.22,7.97-5.87,9.2-8.2,18.85-4.17,29.67-.5.14-1.18.29-1.84.5-3.89,1.26-7.94,2.2-11.65,3.87-12.41,5.61-22.43,14.61-32.41,23.59-4.28,3.86-8.74,7.4-13.94,9.96-4.82,2.37-9.68,1.74-12.72-1.91-3.08-3.71-2.94-8.23-2.14-12.5,1.44-7.65,4.34-14.82,8.51-21.45.71-1.13,1.35-1.82,2.82-2.06,1.22-.2,2.59-1.08,3.35-2.08,2.56-3.32,3.92-7.23,4.79-11.3.11-.5-.14-1.08-.23-1.63-.2,0-.4-.02-.6-.04-.31.76-.59,1.55-.94,2.29-.4.84-.78,1.72-1.31,2.48-1.63,2.31-4.63,2.19-6.1-.23-2.23-3.66-2.95-7.76-1.91-11.76,1.73-6.67,4.07-13.19,6.13-19.78.33-1.05.51-2.14.76-3.21-.18-.07-.37-.15-.56-.22-.43.7-.95,1.36-1.29,2.1-1.12,2.44-2.23,4.87-3.22,7.36-3.2,8.06-6.5,16.08-6.09,25.07.18,3.83.95,7.28,3.52,10.31-.4.58-.83,1.15-1.21,1.76-5.6,8.82-9.79,18.12-9.26,28.88.28,5.58,2.56,10.45,6.77,14.1,5.23,4.54,12.14,4.98,17.82.76,6.23-4.62,12.1-9.75,17.99-14.8,6.57-5.63,13.3-10.97,21.19-14.68,9.62-4.52,19.48-6.87,29.94-3.06h.02Z"/>
          <path class="cls-1" d="M416.68,41.89c-1.43-4.61-2.98-9.19-4.61-13.73-1.29-3.59-2.77-7.11-4.22-10.79-.41.35-.75.49-.8.71-1.22,4.43-4.76,8.44-2.45,13.52.17.38.18.85.18,1.29.17,6.35.22,12.7.52,19.04.29,6.45.9,12.9,1.23,19.35.27,5.39.32,10.8.52,16.19.09,2.41.29,4.8.44,7.21.57,8.7,1.3,17.4,1.64,26.11.2,5.23-.2,10.49-.38,15.73-.07,2.18-.3,4.35-.4,6.52-.03.5.18,1.01.36,1.98.54-.79.87-1.1,1-1.48,1.45-4.44,3.14-8.83,4.23-13.36,1.67-6.99,1.64-14.18,1.34-21.31-.44-10.25-1.17-20.49-1.77-30.73-.16-2.69-.29-5.38-.46-8.07-.55-8.58-1.14-17.15-1.65-25.72-.08-1.3.15-2.61.26-4.11,1.55,1.96,3.04,3.85,4.53,5.73.24-.07.47-.14.71-.22-.06-1.3.15-2.67-.22-3.87h0Z"/>
          <path class="cls-1" d="M246.69,31.41c.42,6.77.54,13.56.94,20.33.65,11.19,1.43,22.36,2.17,33.54.57,8.58,1.43,17.13,1.68,25.72.23,8.24-.18,16.5-.25,24.75,0,.91.26,1.82.4,2.74,1.09-.97,1.76-1.92,2.13-2.97,2.42-6.87,3.94-13.98,3.85-21.23-.13-11.37-.78-22.73-1.25-34.09-.1-2.47-.4-4.93-.61-7.4-.51-5.71-1.02-11.42-1.56-17.13-.23-2.52-.67-5.04-.75-7.57-.13-4.04-.04-8.08-.04-12.66,1.69,1.92,3.02,3.43,4.35,4.95.24-.08.48-.17.72-.26-.07-1.15.11-2.39-.26-3.45-1.92-5.53-3.95-11.02-5.99-16.5-.9-2.41-1.93-4.78-2.9-7.17-.21.04-.41.07-.61.11-1.07,2.74-2.25,5.45-3.15,8.25-.35,1.07-.21,2.35-.04,3.5.32,2.2,1.05,4.35,1.19,6.55h-.02Z"/>
          <path class="cls-1" d="M314.63,49.12c.21-1.24.61-2.05.41-2.67-2.88-8.67-5.84-17.31-8.77-25.96-.31.05-.63.1-.94.14-.65,1.58-1.24,3.19-1.97,4.74-1.48,3.17-2.08,6.38-.79,9.78.2.53.32,1.11.35,1.68.31,5.79.54,11.58.88,17.37.4,6.82.85,13.63,1.31,20.45.57,8.4,1.26,16.8,1.73,25.22.42,7.56.83,15.13.84,22.7.01,6.99-.52,13.97-.76,20.95-.02.58.37,1.17.62,1.92.47-.4.71-.51.79-.68,3.16-6.83,5.18-14.02,5.42-21.51.25-8.15.04-16.33-.37-24.48-.48-9.51-1.41-19-2.13-28.5-.59-7.83-1.18-15.66-1.75-23.49-.07-.95,0-1.91,0-3.44,1.89,2.13,3.32,3.74,5.13,5.78h0Z"/>
          <path class="cls-1" d="M55,57.22c1.14.79,2.35,2.27,3.95.4,3.8,3.82,4.71,8.79,6.36,13.37-2.59,1.62-4.18,5.42-3.71,7.95,1.15-.8,2.38-1.94,3.84-2.5.51-.2,1.57,1.03,2.74,1.87-1.22.46-1.8.75-2.41.9-2.98.72-4.85,2.49-5.89,5.42-1.33,3.75-.2,7.31.5,10.91,1.03,5.31,2.35,10.56,3.24,15.89.53,3.12.47,6.34.7,9.95,1.75-4.47,1.9-12.46.4-18.56-1.11-4.48-2.31-8.93-3.56-13.37-.48-1.73-.12-3.23,1.48-3.87,2.44-.97,4.99-1.88,7.57-2.23,3.01-.4,5.15-2.44,4.82-5.47-.05-.46-.25-1.03-.58-1.3-2.62-2.1-5.29-4.14-7.98-6.23.29-.94.83-2.21,1.09-3.53.79-4.04,1.35-8.13,2.28-12.13.33-1.41,1.19-3.11,2.34-3.8,1.52-.91,2.77.58,3.75,1.82.11.14.37.17.75.32.33-1.23.86-2.38.92-3.56.1-2.07-1.31-3.46-2.98-4.2-1.53-.68-2.6.42-3.57,1.71-2.03,2.67-2.5,5.8-3.01,8.94-.4,2.46-.83,4.92-1.25,7.38-1.37-2.09-2.1-4.23-3.24-6.13-1.48-2.46-2.97-5.03-5.01-6.99-2.28-2.2-3.68-1.55-4.72,1.48-.18.54-.45,1.05-.66,1.59-.76,1.95.55,3.05,1.85,3.96h0Z"/>
          <path class="cls-1" d="M360.19,33.27c.96.64,1.91,1.29,3.11,2.11-9.62,10.31-21.76,17.19-32.49,25.94.6-.19,1.24-.3,1.78-.59,5.63-2.95,11.37-5.73,16.83-8.97,5.17-3.07,9.46-7.32,13.12-12.07,2.94-3.81,3.35-3.96,6.44-.06.07.08.22.09.35.11.02,0,.04,0,.05,0h0c2.2-3.39,2.22-5.73-.25-7.58-1.32-.99-1.25-1.94-1.04-3.34.39-2.68.79-5.43.58-8.1-.21-2.58-2.63-3.57-4.9-2.31-2.89,1.6-4.9,3.97-6.03,7.15-1.4,3.9-1,5.38,2.46,7.68v.02ZM360.49,25.3v-.04s.03-.06.04-.07c.81-.72,1.78-1.38,2.8-1.66.52-.14,1.71.44,1.84.91.04.15.08.31.12.47.1.42.18.85.25,1.28.03.2.06.4.08.6.08.59.14,1.19.22,1.79.02.2.05.4.07.6l-4.91-2.3s-.06-.05-.08-.08c-.03-.03-.06-.07-.08-.11-.06-.08-.11-.18-.15-.29-.03-.05-.04-.11-.07-.16-.04-.1-.07-.21-.09-.31-.02-.09-.04-.17-.04-.25,0-.04,0-.07-.01-.1v-.28h.01Z"/>
          <path class="cls-1" d="M364.87,70.49c-1.21,2.11-2.49,4.18-3.81,6.4-2.76-2.08-5.48-3.98-8.01-6.11-1.3-1.1-2.02-.5-2.62.49-1.5,2.45-2.89,4.97-4.47,7.73,3.34,2.57,6.62,5.09,10.09,7.76,1.74-2.95,3.2-5.41,4.78-8.08.85.51,1.62.9,2.29,1.39,1.87,1.38,3.75,2.76,5.54,4.25,1.4,1.16,2.34.85,3.14-.62,1.07-1.96,2.08-3.96,3.24-5.87.66-1.1.5-1.84-.48-2.59-2.3-1.77-4.56-3.59-6.85-5.37-1.17-.9-2.09-.68-2.83.62h-.01Z"/>
          <path class="cls-1" d="M482.29,50.89c14.45-6.24,28.94-12.4,43.51-18.38,2.52-1.04,3.63-2.56,4.18-5.25-.83.26-1.48.43-2.1.68-3.84,1.48-7.73,2.85-11.51,4.47-16.26,6.98-32.48,14.07-48.76,21-2.8,1.19-3.61,3.44-4.66,6.56,1.2-.54,1.84-.82,2.48-1.12,5.62-2.67,11.17-5.5,16.87-7.96h0Z"/>
          <path class="cls-1" d="M500.6,54.15c-.79,1.3-1.56,2.62-2.27,3.96-1.54,2.93-1.8,2.95-4.38.89-2.13-1.69-4.38-3.23-6.8-4.99-1.83,3.31-3.46,6.27-5.22,9.45,3.4,2.41,6.71,4.77,10.18,7.24,1.61-2.77,3.05-5.23,4.59-7.88.94.66,1.63,1.15,2.33,1.65,2.06,1.47,4.09,2.99,6.23,4.35.37.24,1.49.02,1.7-.32,1.39-2.36,2.7-4.77,3.87-7.25.24-.5,0-1.66-.43-1.98-2.84-2.18-5.79-4.21-8.71-6.29-.5.54-.87.82-1.09,1.18h0Z"/>
          <path class="cls-1" d="M124.75,101.51c1.51.99,3.06,1.91,4.63,2.88-1.32,2.53-2.49,4.94-3.81,7.26-.75,1.33-.35,2.19.77,2.93,2.84,1.86,5.68,3.71,8.88,5.8,1.33-2.58,2.73-5.09,3.88-7.7.27-.61,0-1.85-.49-2.34-1.43-1.42-3.09-2.61-4.64-3.88,1.18-2.39,2.36-4.69,3.43-7.05.22-.49.29-1.43,0-1.71-2.81-2.65-5.66-5.3-9.76-6.48-1.32,2.51-2.48,4.92-3.82,7.22-.86,1.48-.2,2.33.92,3.06h.01Z"/>
          <path class="cls-1" d="M113.07,41.93c.09.27.17.54.26.81-5.31,3.19-10.61,6.37-15.92,9.55.09.19.18.38.27.57,1.82-.54,3.67-1.01,5.45-1.64,4.53-1.61,9.46-2.54,12.24-7.15,1.38-2.28,2.8-4.55,4.19-6.82,1.42-2.32.9-4-1.71-4.35-3.87-.52-7.8-.9-11.69-.82-2.04.04-4.66.61-5.93,1.96-2.05,2.18-3.2,5.2-4.73,7.87.18.18.37.35.55.53,5.68-1.8,11.35-1.72,17.02-.51h0Z"/>
          <path class="cls-1" d="M112.14,139.66c-1.49,2.59-2.85,4.94-4.26,7.38-2.9-1.92-5.7-3.77-8.7-5.75-1.63,2.91-3.2,5.71-4.86,8.68,2.79,1.83,5.48,3.5,8.07,5.32,1.29.9,1.87.47,2.49-.73.94-1.84,1.98-3.64,3.1-5.67,2.87,1.84,5.58,3.58,8.52,5.47,1.3-2.07,2.59-4.31,4.07-6.44.94-1.37.56-2.34-.61-3.13-2.5-1.69-5.04-3.32-7.81-5.12h-.01Z"/>
          <path class="cls-1" d="M523.44,74.56c7.97-3.51,15.79-7.08,23.71-10.39,9.58-4,19.19-7.91,28.9-11.57,2.79-1.05,4.03-2.86,4.93-5.35-.23-.07-.38-.17-.48-.13-7.98,3.13-15.99,6.18-23.93,9.43-9.41,3.85-18.76,7.89-28.15,11.78-2.9,1.2-3.96,3.66-4.98,6.23h0Z"/>
          <path class="cls-1" d="M169.54,67.78c-3.9-.78-7.66-2.29-11.71-3.55,1.54,2.59,2.37,5.53,5.97,6.01,4.5.6,8.97,1.5,13.49,2.02,1.66.19,3.86.26,4.99-.64,1.27-1.01,2.19-3.17,2.24-4.86.07-2.01-1.52-3.56-3.65-4.08-3.14-.77-6.32-1.39-9.44-2.24-1.36-.37-2.61-1.15-4.08-1.82,3.63-3.57,9.43-4.88,12.3-2.93.25-.35.48-.56.58-.82.36-.89.66-1.8.99-2.7-.99-.29-1.99-.88-2.96-.83-4.07.22-7.5,1.98-10.39,4.82-4.22,4.13-3.76,6.09,1.99,7.8,2.82.83,5.81,1.09,8.64,1.91,1.27.37,2.32,1.49,3.47,2.27-.13.28-.26.56-.4.85-4.01-.37-8.1-.42-12.03-1.19v-.02Z"/>
          <path class="cls-1" d="M419.89,54.85c10.35-4.26,19.72-9.84,26.11-19.75,1.26,1.05,2.34,1.95,3.43,2.85,2.13-3.18,1.93-4.68-.61-7.1-.46-.44-.53-1.49-.47-2.24.17-2.15.79-4.31.65-6.42-.09-1.22-1.08-2.74-2.12-3.42-.63-.41-2.27.35-3.24.94-2.38,1.44-3.8,3.64-4.69,6.31-.69,2.07-.35,3.72,1.27,5.08,1.22,1.02,2.56,1.89,4.1,3.01-6.97,8.41-16.36,13.81-24.42,20.75h0ZM441.02,25.64c1.26-1.69,2.3-3.05,4.16-2.24.06.03.12.05.17.09.04.02.08.05.12.08.1.07.19.15.28.24.03.03.06.07.09.1.03.04.06.07.09.11.05.07.11.15.15.24.09.17.17.36.24.56.03.1.06.21.08.31.02.11.04.21.06.32s.03.23.04.35c0,.11.01.23.01.36,0,.95-.25,2.01-.76,2.98-1.56-1.15-3.09-2.28-4.73-3.49h0Z"/>
          <path class="cls-1" d="M137.29,171.85c-3.06,1.36-4.51,3.55-5.33,7.08,4.11-2.14,7.75-4.22,11.54-5.99,10.79-5.05,21.62-10.01,32.47-14.91,2.2-.99,2.53-2.95,3.88-5.12-3.32,1.33-6.02,2.31-8.64,3.49-11.31,5.14-22.56,10.42-33.92,15.45Z"/>
          <path class="cls-1" d="M277.8,36.01c1.02.76,2.12,1.41,3.28,2.18-6.44,8.11-15.38,13-22.82,19.6,9.92-4,18.34-9.94,24.62-18.88,1.17,1.11,2.16,2.05,3.17,3,2.14-3.87,2.11-3.96-.76-7.13-.33-.36-.33-1.11-.31-1.67.08-2.3.4-4.61.31-6.9-.09-2.24-1.97-3.17-4.07-2.26-2.92,1.26-4.3,3.73-5.2,6.57-.76,2.4-.26,3.98,1.77,5.49h.01ZM278.44,29.48c.21-.13.41-.27.62-.41.25-.18.51-.36.77-.52.05-.03.11-.06.16-.09.11-.07.21-.12.31-.17.22-.1.43-.18.66-.22.25-.05.64.12.98.37.04.02.07.05.1.08.02.01.04.03.07.05.04.03.07.06.11.09.04.04.07.07.11.11.05.05.09.1.13.15s.07.11.11.15c.04.07.07.14.08.2.32,1.22.22,2.55.32,4.28-1.47-.97-2.49-1.52-3.35-2.26-.07-.06-.13-.12-.18-.18-.06-.06-.11-.13-.17-.21-.11-.14-.2-.29-.29-.46-.09-.16-.17-.32-.26-.48-.04-.08-.09-.16-.13-.25-.05-.08-.09-.16-.14-.23h0Z"/>
          <path class="cls-1" d="M574.03,150.07c-1-.8-2.19-1.25-3.1-.24-1.68,1.84-3.3,3.79-4.64,5.88-1.62,2.53-3.44,4.72-5.94,6.51-7.95,5.69-16.99,9.15-25.8,13.08.05.2.1.4.15.59,4.05-.99,8.14-1.85,12.14-3,8.62-2.46,16.11-6.49,19.82-15.33,1.97,1.02,3.75,2.13,5.69,2.86.83.31,2.38.19,2.88-.38,2.02-2.26,1.18-8.07-1.21-9.98h0ZM573.24,156.49c-.57-.35-1.11-.67-1.62-.98-.16-.1-.32-.19-.47-.29-.22-.13-.44-.27-.65-.4-.29-.17-.58-.35-.86-.52.84-.29,1.5-.44,2.04-.44.09,0,.17,0,.25,0h.01c.06,0,.12,0,.18.03.12.02.23.06.33.11.04.02.08.04.12.06.03,0,.06.04.1.06.05.04.11.07.15.12.03.03.07.06.1.1.01,0,.03.02.04.04h0c.07.1.15.2.22.31.03.06.07.11.1.18.03.06.06.13.09.19.08.18.15.38.21.61.01.06.03.11.05.17.04.16.08.33.12.51.02.08.04.17.05.26,0,.07.02.14.04.22h0c-.2-.11-.39-.23-.58-.35h-.02Z"/>
          <path class="cls-1" d="M534.48,100.43c1.15-.29,2.3-.65,3.46-.87,6.92-1.28,11.65-5.34,14.81-11.47,1.42-2.76.82-3.92-2.27-4.33-1.58-.21-3.14-.72-4.71-.69-3.42.06-7.28-1.13-9.66,2.68-1.04,1.66-1.92,3.42-2.97,5.3,5.21-.43,9.75-.75,14.21.46.07.23.13.47.2.7-4.43,2.59-8.86,5.18-13.29,7.76.07.15.14.31.22.46h0Z"/>
          <path class="cls-1" d="M292.53,19.21c.15-1.92.29-3.71.41-5.37,2.38.6,4.77,1.49,7.24,1.78,7.22.83,13.9-.92,20.11-4.66,1.1-.66,2.52-.77,3.8-1.13.12.25.24.5.35.75-1.65,2.44-3.3,4.89-4.95,7.33.2.16.41.32.61.49.5-.62,1.04-1.22,1.5-1.87,1.68-2.42,3.45-4.79,4.92-7.34.38-.65.06-2.01-.41-2.74-.23-.36-1.59-.24-2.32,0-1.36.43-2.67,1.07-3.95,1.7-4.23,2.09-8.6,3.78-13.37,4.01-6.56.32-12.47-1.36-17.31-6-1.26,1.87-1.76,3.49-.35,5.58,1.44,2.14,2.34,4.64,3.71,7.48h.01Z"/>
          <path class="cls-1" d="M324.24,110.15c1.79-.47,3.56-1.09,5.38-1.4,6.67-1.14,10.01-6.13,13.15-11.31.82-1.36.1-2.85-1.44-3.05-3.22-.41-6.47-.82-9.71-.88-3.83-.07-7.97,4.15-8.31,8.26,4.51-1.27,8.98-1.19,13.57.49-4.28,2.44-8.55,4.88-12.83,7.32l.18.57h0Z"/>
          <path class="cls-1" d="M396.06,159.43c-1.51-.77-2.76.55-3.44,1.9-.75,1.47-1.47,3.01-1.81,4.61-.73,3.43-1.22,6.92-1.81,10.38-.18-.03-.36-.05-.54-.07-.12-.32-.22-.65-.37-.95-1.62-3.3-3.04-6.73-4.97-9.84-.81-1.3-2.69-1.95-4.08-2.89-.69,1.08-1.39,2.17-2.09,3.26-.08.12-.16.25-.21.38-.97,2.37,1.24,5.58,3.7,5.01,1.55-.36,2.2.19,2.67,1.26,1.3,2.95,2.5,5.96,3.7,8.96.35.86.53,1.79.79,2.69.29.02.59.04.88.05.75-3.12,1.59-6.22,2.23-9.36.58-2.83.8-5.74,1.44-8.55.55-2.45,2.54-2.83,4.38-1.01.48.48.98.94,1.91,1.82.25-1.77.9-3.2.5-4.23-.51-1.33-1.64-2.77-2.88-3.4v-.02Z"/>
          <path class="cls-1" d="M232.25,133.97c-1.19,2.38-2.38,4.77-3.42,7.22-.18.42.18,1.39.59,1.69,2.72,2.01,5.53,3.89,8.29,5.85,1.15.82,1.85.76,2.49-.64,1.02-2.23,2.13-4.42,3.35-6.54.75-1.3.46-2.18-.65-2.94-2.5-1.72-5-3.43-7.53-5.1-.53-.35-1.18-.52-2.04-.88-.35.43-.82.83-1.08,1.33h0Z"/>
          <path class="cls-1" d="M270.38,65.29c-1.52,2.54-2.95,5.15-4.23,7.82-.25.51.05,1.76.51,2.07,3.04,2.06,6.19,3.96,9.67,6.15,1.48-2.64,3-5.09,4.22-7.69.36-.78.25-2.42-.3-2.89-2.54-2.14-5.29-4.05-8.04-5.91-.36-.25-1.59.06-1.82.46h-.01Z"/>
          <path class="cls-1" d="M355.19,159.46c-1.46-.79-2.76.54-3.25,1.83-1,2.61-1.82,5.3-2.42,8.03-.53,2.38-.65,4.86-.95,7.29-.19,0-.37.01-.56.02-.25-.72-.49-1.44-.75-2.16-1.38-3.92-3.13-7.64-6.18-10.59-2.09-2.02-3.06-1.76-4.01.99-.16.47-.46.9-.7,1.35-.92,1.68-.32,3.12,1.13,3.91,1.26.68,2.83.8,4.94,1.35,1.44,3.53,3.17,7.76,4.94,12.1.52-1.11,1.36-2.27,1.61-3.54.73-3.75,1.07-7.59,1.89-11.31.36-1.62,1.16-3.74,2.42-4.43,1.84-1.01,2.67,1.27,3.63,2.55.04.06.13.07.76.41.22-1.68.85-3.22.44-4.41-.46-1.33-1.66-2.72-2.92-3.39h-.02Z"/>
          <path class="cls-1" d="M577.41,69.7c-.72,1.33-1.44,2.72-1.75,4.18-.78,3.56-1.33,7.17-1.97,10.77-2.23-5.44-4.04-10.92-9.75-13.69-2.25,2.7-2.92,5.14-1.89,6.48,1.31,1.71,3.24,2.4,4.73,1.64,3.34,3.34,3.67,8.13,5.68,12.38.42-.55.8-.84.9-1.21.77-2.77,1.57-5.54,2.2-8.34.56-2.45.68-5.03,1.44-7.41.86-2.69,2.73-2.82,4.39-.58.33.45.66.91,1.17,1.6.49-1.2,1.17-2.16,1.23-3.17.12-1.86-.74-3.39-2.54-4.13-1.69-.69-3.03,0-3.84,1.49h0Z"/>
          <path class="cls-1" d="M322.65,29.92c-.96,2.51,1.06,5.18,3.71,5.03.62-.04,1.54.22,1.87.67.79,1.09,1.41,2.34,1.92,3.6.94,2.31,1.76,4.68,2.85,7.62.66-1.3,1.29-2.09,1.48-2.98.81-3.66,1.37-7.38,2.28-11.01.4-1.56,1.45-2.95,2.2-4.42,1.35.75,2.69,1.5,4.2,2.34.14-.63.45-1.64.56-2.68.22-2.04-.87-3.41-2.67-4-1.77-.58-2.87.58-3.6,2.05-.58,1.15-1.28,2.31-1.55,3.54-.74,3.39-1.28,6.82-1.97,10.57-1.2-2.8-2.09-5.49-3.46-7.89-1.03-1.79-2.58-3.34-4.11-4.76-1.48-1.37-2.58-.61-3.71,2.33h0Z"/>
          <path class="cls-1" d="M447.89,171.54c1.99-.07,4.11-.32,5.91-1.11,2.56-1.12,4.94-2.72,6.42-4.83-3.2.76-6.49,1.73-9.84,2.26-1.45.23-3.13-.28-4.57-.8-1.19-.43-1.77-1.54-.74-2.75,1.95-2.3,3.78-4.75,5.99-6.77,2.1-1.92,3.23-3.47,3.04-5.85-5.44,4.95-6.45,4.03-8.86,1.44,1.22-2.52,1.68-2.73,4.12-1.78,1.3-.98,1.64-2.32.68-3.57-1.2-1.58-2.36-.33-3.27.53-1.09,1.04-2.18,2.16-2.94,3.43-2.06,3.43-2.22,5.65,1.88,7.13.1.04.16.19.17.2-.87,2.05-1.83,4-2.55,6.03-1.38,3.89.5,6.59,4.57,6.45h-.01Z"/>
          <path class="cls-1" d="M70.5,150.63c-.26.1-.55.29-.69.52-1.05,1.73-2.08,3.47-3.11,5.22.23.13.46.26.69.4,2.47-2.43,3.06-2.52,4.8-.66-5.89,1.03-7.09,5.87-5.99,10.51,1.04,4.43,1.97,8.88,2.76,13.35.4,2.3.38,4.67.55,7.01.65-1.54.99-3.13,1.11-4.74.45-5.99-1.41-11.59-3.05-17.22-.74-2.54-.08-3.78,2.5-4.4.9-.22,1.85-.29,2.77-.49,1.24-.27,2.8-.24,3.62-1,1.11-1.03,1.88-2.66.8-4.32-1.62-2.51-5.28-4.76-6.76-4.18h0Z"/>
          <path class="cls-1" d="M471.65,39.27c3.71-.47,6.56-3.34,7.3-7.35.67-3.65-.66-5.92-4.64-7.89-.13-.06-.27-.1-.41-.14-1.13-.4-1.37-1.09-.86-2.19.5-1.08.84-2.22,1.26-3.34-.18-.07-.36-.13-.53-.2-.27.23-.62.41-.8.7-2.99,4.78-4.93,9.98-5.7,15.54-.37,2.66,2.12,5.15,4.38,4.86h0ZM469.73,31.03c.01-.09.03-.18.04-.27.04-.18.07-.36.12-.56.02-.1.05-.2.07-.29.03-.1.06-.21.09-.31.05-.18.12-.37.19-.57h0c.07-.2.14-.4.23-.61.08-.21.17-.42.27-.64.04-.11.09-.22.14-.33h0c.26.17.51.34.77.51.52.34,1.03.68,1.55,1.02.51.34,1.04.68,1.56,1.03.53.35,1.06.7,1.6,1.06.27.18.55.36.83.54-2.38,2.58-4.92,3.35-6.5,2.32-.26-.17-.47-.37-.63-.62-.11-.17-.19-.35-.26-.54-.16-.48-.19-1.07-.09-1.76l.02.02Z"/>
          <path class="cls-1" d="M243.78,188.91c-1.95.86-2.53,2.55-2.76,4.34,7.39-3.24,14.66-6.57,22.06-9.58,2.36-.97,3.64-2.4,4.39-5.12-2.32,1.03-4.28,1.9-6.24,2.75-5.82,2.54-11.64,5.06-17.45,7.61h0Z"/>
          <path class="cls-1" d="M191.33,171.38c-.54.72-1.3,1.78-1.95,1.76-.82-.02-1.97-.81-2.33-1.57-.61-1.32-1.22-2.97-.96-4.31.83-4.36,2.07-8.66,3.13-12.98.19-.76.27-1.54.4-2.31-.31-.07-.62-.15-.93-.23-1.73,5.58-3.75,11.08-5.04,16.75-.54,2.37.16,5.19.87,7.64.63,2.16,2.84,2.79,4.55,1.86,1.69-.93,4.02-6.57,3.53-9.17-.51,1.06-.78,1.91-1.28,2.58v-.02Z"/>
          <path class="cls-1" d="M331.43,69.74c-.52.92-1.19,1.79-1.52,2.77-1.15,3.32-2.32,6.64-3.18,10.04-.36,1.43.28,2.95,2.02,3.36,2.46.58,5.02-.81,6.27-3.29,1.4-2.78,1.28-5.28-.89-6.85-2.18-1.59-4.1-2.92-1.81-6.09-.29.02-.59.04-.89.05h0ZM331.61,78.41c.16.11.31.22.47.32.22.15.43.3.63.45.28.2.55.41.83.62.03.02.06.05.08.09.02.02.03.04.04.07.05.08.08.18.12.29.02.06.04.12.05.18.02.07.04.13.04.19,0,.03.01.06.02.09,0,.06.02.11.02.15v.13c-.64.22-1.3.54-1.95.8-.17.07-.33.13-.49.18-.12.04-.24.08-.36.12-.06.02-.12.03-.18.05-.12.03-.24.06-.35.07-.12.02-.23.03-.35.04-.23,0-.45,0-.66-.05-.05,0-.11-.03-.16-.04-.05,0-.1-.03-.14-.05-.09-.04-.18-.09-.25-.14s-.13-.1-.19-.16c-.03-.02-.05-.05-.07-.07-.04-.04-.07-.07-.09-.12-.03-.04-.05-.07-.07-.11-.03-.04-.05-.09-.07-.13-.01-.02-.02-.04-.03-.06,0-.02-.02-.04-.03-.06v-.02c-.02-.05-.04-.1-.05-.14-.01-.03-.02-.07-.03-.1-.02-.07-.03-.14-.04-.22,0-.06-.01-.12-.02-.18v-.44c0-.09.02-.18.03-.27.01-.07.03-.14.04-.22.01-.06.03-.12.05-.19.05-.18.12-.37.19-.55.03-.07.06-.14.1-.21.05-.1.09-.19.14-.29.11-.22.22-.46.33-.71.07-.15.14-.3.21-.47.04-.08.07-.17.11-.25h0c.18.13.35.25.52.36.53.36,1.04.71,1.54,1.05h.02Z"/>
          <path class="cls-1" d="M546.11,50.6c1.91-1.07,3.8-5.76,3.2-8.46-.43.81-.66,1.48-1.09,1.99-.68.8-1.74,2.23-2.19,2.07-1.03-.35-1.86-1.44-2.61-2.36-.32-.38-.4-1.13-.29-1.64.81-3.57,1.67-7.13,2.59-10.67.41-1.56,1.01-3.07,1.68-5.08-.83.37-1.04.4-1.07.48-1.8,5.08-3.78,10.1-5.3,15.26-.67,2.27-.74,4.86.74,7.11.93,1.41,3,2.05,4.35,1.3h-.01Z"/>
          <path class="cls-1" d="M207.75,65.84c.15-.62.3-1.24.44-1.86-.33-.08-.67-.17-1.01-.26-1.59,4.9-3.45,9.73-4.66,14.73-.55,2.28-.19,4.97.42,7.31.75,2.88,3.7,3.29,5.46.88,1.48-2.02,2.48-4.32,2.06-7.03-.53.58-.78,1.33-1.26,1.87-.61.7-1.55,1.83-2.09,1.7-.85-.21-1.62-1.22-2.17-2.05-.36-.55-.5-1.44-.35-2.09,1-4.41,2.09-8.8,3.15-13.2h0Z"/>
          <path class="cls-1" d="M38.05,179.12c5.44-2.35,10.7-4.72,16.04-6.89,2.12-.86,3.06-2.44,4.01-4.94-6,2.56-11.42,4.94-16.9,7.17-2.15.87-2.99,2.38-3.15,4.66Z"/>
          <path class="cls-1" d="M143.83,37.64c1.77-1.02,3.5-5.23,2.95-7.39-.27.58-.4,1.18-.77,1.56-.64.67-1.74,1.85-2.07,1.68-.9-.47-1.97-1.44-2.13-2.35-.29-1.71-.29-3.6.14-5.26.83-3.19,2.05-6.28,3.11-9.42-.22-.08-.44-.16-.66-.24-1.36,3.31-2.96,6.55-4,9.95-.79,2.59-1.09,5.38-1.18,8.1-.09,2.76,2.59,4.53,4.61,3.37h0Z"/>
          <path class="cls-1" d="M513.48,133.34c-.32-.08-.63-.17-.94-.25-1.23,3.73-2.75,7.4-3.59,11.21-.54,2.45-.33,5.16.05,7.68.14.94,1.66,2,2.75,2.33.62.19,2.02-.81,2.42-1.61.85-1.67,1.27-3.57,1.87-5.37-.18-.07-.37-.15-.56-.22-.35.68-.68,1.36-1.05,2.02-.88,1.56-1.85,1.68-2.95.27-.43-.54-.87-1.29-.84-1.92.11-2.4.22-4.83.7-7.18.48-2.37,1.41-4.64,2.14-6.96h0Z"/>
          <path class="cls-1" d="M292.46,65.78c.85-1.34,1.28-2.95,1.9-4.43-.17-.07-.33-.15-.5-.23-.23.33-.4.73-.69.99-.59.53-1.39,1.5-1.84,1.37-.76-.22-1.71-1.08-1.84-1.8-.22-1.3-.1-2.75.23-4.05.72-2.81,1.66-5.55,2.51-8.33-.22-.07-.43-.13-.65-.2-1.46,4.13-3.84,7.96-3.98,12.5-.04,1.3.29,2.73.84,3.92.91,1.98,2.85,2.12,4.01.26h0Z"/>
          <path class="cls-1" d="M446.9,49.78c.32-1.08.64-2.17.96-3.26-2.49,3.95-3.88,8.24-4.34,12.79-.1,1.01.37,2.14.79,3.12.6,1.39,2.51,1.74,3.35.51,1.01-1.47,1.67-3.18,2.48-4.78-.21-.11-.41-.22-.62-.32-.16.25-.29.55-.49.76-.62.64-1.27,1.25-1.91,1.87-.53-.77-1.44-1.5-1.52-2.31-.15-1.6.06-3.26.31-4.86.19-1.19.67-2.35,1.01-3.52h-.02Z"/>
        </g>
      </g>
    </g>
  </g>
</svg>