<?xml version="1.0" encoding="UTF-8"?>
<svg xmlns="http://www.w3.org/2000/svg" version="1.1" viewBox="0 0 30 30">
  <defs>
    <style>
      .cls-1 {
        fill: #fff;
      }
    </style>
  </defs>
  <!-- Generator: Adobe Illustrator 28.7.1, SVG Export Plug-In . SVG Version: 1.2.0 Build 142)  -->
  <g>
    <g id="Layer_1">
      <path class="cls-1" d="M23,3c-2.2,0-4,1.8-4,4s0,.6,0,.8l-9.1,4.5c-.7-.8-1.8-1.4-3-1.4-2.2,0-4,1.8-4,4s1.8,4,4,4,2.3-.5,3-1.4l9.1,4.5c0,.3,0,.5,0,.8,0,2.2,1.8,4,4,4s4-1.8,4-4-1.8-4-4-4-2.3.5-3,1.4l-9.1-4.5c0-.3,0-.5,0-.8s0-.6,0-.8l9.1-4.5c.7.8,1.8,1.4,3,1.4,2.2,0,4-1.8,4-4s-1.8-4-4-4Z"/>
    </g>
  </g>
</svg>